<svg width="26" height="25" viewBox="0 0 26 25" fill="none" xmlns="http://www.w3.org/2000/svg">
<path d="M20.8542 8.25004V13.6146C20.8542 16.823 19.0209 18.198 16.2709 18.198H7.11457C6.64582 18.198 6.19792 18.1563 5.78125 18.0626C5.52083 18.0209 5.27083 17.948 5.04167 17.8646C3.47917 17.2813 2.53125 15.9271 2.53125 13.6146V8.25004C2.53125 5.04171 4.36457 3.66675 7.11457 3.66675H16.2709C18.6042 3.66675 20.2813 4.65632 20.7292 6.91674C20.8021 7.3334 20.8542 7.76046 20.8542 8.25004Z" stroke="#013CBC" stroke-width="2" stroke-miterlimit="10" stroke-linecap="round" stroke-linejoin="round"/>
<path d="M23.9803 11.375V16.7396C23.9803 19.948 22.147 21.323 19.397 21.323H10.2407C9.46985 21.323 8.77194 21.2188 8.16778 20.9896C6.92819 20.5313 6.08443 19.5834 5.78235 18.0625C6.19902 18.1563 6.64693 18.198 7.11568 18.198H16.272C19.022 18.198 20.8553 16.823 20.8553 13.6146V8.25004C20.8553 7.76046 20.8137 7.323 20.7303 6.91675C22.7095 7.33341 23.9803 8.72922 23.9803 11.375Z" stroke="#013CBC" stroke-width="2" stroke-miterlimit="10" stroke-linecap="round" stroke-linejoin="round"/>
<path d="M11.6858 13.6873C13.2045 13.6873 14.4358 12.456 14.4358 10.9373C14.4358 9.4185 13.2045 8.18726 11.6858 8.18726C10.167 8.18726 8.93579 9.4185 8.93579 10.9373C8.93579 12.456 10.167 13.6873 11.6858 13.6873Z" stroke="#013CBC" stroke-width="2" stroke-miterlimit="10" stroke-linecap="round" stroke-linejoin="round"/>
<path d="M5.72925 8.646V13.2294" stroke="#013CBC" stroke-width="2" stroke-miterlimit="10" stroke-linecap="round" stroke-linejoin="round"/>
<path d="M17.6476 8.64624V13.2296" stroke="#013CBC" stroke-width="2" stroke-miterlimit="10" stroke-linecap="round" stroke-linejoin="round"/>
</svg>
