<svg width="55" height="55" viewBox="0 0 56 55" fill="none" xmlns="http://www.w3.org/2000/svg">
<path d="M35.4376 23.2498V28.6144C35.4376 31.8227 33.6042 33.1977 30.8542 33.1977H21.6979C21.2292 33.1977 20.7813 33.1561 20.3646 33.0623C20.1042 33.0206 19.8542 32.9477 19.625 32.8644C18.0625 32.2811 17.1146 30.9269 17.1146 28.6144V23.2498C17.1146 20.0415 18.9479 18.6665 21.6979 18.6665H30.8542C33.1876 18.6665 34.8647 19.6561 35.3126 21.9165C35.3855 22.3332 35.4376 22.7602 35.4376 23.2498Z" stroke="#791CAC" stroke-width="2" stroke-miterlimit="10" stroke-linecap="round" stroke-linejoin="round"/>
<path d="M38.5637 26.3753V31.7399C38.5637 34.9482 36.7304 36.3232 33.9804 36.3232H24.8241C24.0532 36.3232 23.3553 36.219 22.7511 35.9899C21.5116 35.5315 20.6678 34.5836 20.3657 33.0628C20.7824 33.1565 21.2303 33.1982 21.6991 33.1982H30.8554C33.6054 33.1982 35.4387 31.8232 35.4387 28.6149V23.2503C35.4387 22.7607 35.397 22.3232 35.3137 21.917C37.2929 22.3337 38.5637 23.7295 38.5637 26.3753Z" stroke="#791CAC" stroke-width="2" stroke-miterlimit="10" stroke-linecap="round" stroke-linejoin="round"/>
<path d="M26.2692 28.6875C27.7879 28.6875 29.0192 27.4563 29.0192 25.9375C29.0192 24.4187 27.7879 23.1875 26.2692 23.1875C24.7504 23.1875 23.5192 24.4187 23.5192 25.9375C23.5192 27.4563 24.7504 28.6875 26.2692 28.6875Z" stroke="#791CAC" stroke-width="2" stroke-miterlimit="10" stroke-linecap="round" stroke-linejoin="round"/>
<path d="M20.3126 23.646V28.2294" stroke="#791CAC" stroke-width="2" stroke-miterlimit="10" stroke-linecap="round" stroke-linejoin="round"/>
<path d="M32.231 23.646V28.2293" stroke="#791CAC" stroke-width="2" stroke-miterlimit="10" stroke-linecap="round" stroke-linejoin="round"/>
</svg>
