<svg width="26" height="25" viewBox="0 0 26 25" fill="none" xmlns="http://www.w3.org/2000/svg">
<path d="M3.625 9.48966V15.5001C3.625 17.7084 3.625 17.7084 5.70833 19.1147L11.4375 22.4272C12.3021 22.9272 13.7083 22.9272 14.5625 22.4272L20.2917 19.1147C22.375 17.7084 22.375 17.7084 22.375 15.5105V9.48966C22.375 7.29175 22.375 7.29175 20.2917 5.8855L14.5625 2.573C13.7083 2.073 12.3021 2.073 11.4375 2.573L5.70833 5.8855C3.625 7.29175 3.625 7.29175 3.625 9.48966Z" stroke="#013CBC" stroke-width="2" stroke-linecap="round" stroke-linejoin="round"/>
<path d="M13 15.625C14.7259 15.625 16.125 14.2259 16.125 12.5C16.125 10.7741 14.7259 9.375 13 9.375C11.2741 9.375 9.875 10.7741 9.875 12.5C9.875 14.2259 11.2741 15.625 13 15.625Z" stroke="#013CBC" stroke-width="2" stroke-linecap="round" stroke-linejoin="round"/>
</svg>
