<svg width="56" height="55" viewBox="0 0 56 55" fill="none" xmlns="http://www.w3.org/2000/svg">
<path d="M18.625 24.4897V30.5001C18.625 32.7084 18.625 32.7084 20.7083 34.1147L26.4375 37.4272C27.3021 37.9272 28.7083 37.9272 29.5625 37.4272L35.2917 34.1147C37.375 32.7084 37.375 32.7084 37.375 30.5105V24.4897C37.375 22.2917 37.375 22.2917 35.2917 20.8855L29.5625 17.573C28.7083 17.073 27.3021 17.073 26.4375 17.573L20.7083 20.8855C18.625 22.2917 18.625 22.2917 18.625 24.4897Z" stroke="#791CAC" stroke-width="2" stroke-linecap="round" stroke-linejoin="round"/>
<path d="M28 30.625C29.7259 30.625 31.125 29.2259 31.125 27.5C31.125 25.7741 29.7259 24.375 28 24.375C26.2741 24.375 24.875 25.7741 24.875 27.5C24.875 29.2259 26.2741 30.625 28 30.625Z" stroke="#791CAC" stroke-width="2" stroke-linecap="round" stroke-linejoin="round"/>
</svg>
