<svg width="76" height="76" viewBox="0 0 76 76" fill="none" xmlns="http://www.w3.org/2000/svg">
<path d="M2.02122 70.6674C1.15926 69.3799 0.53986 67.9163 0.228409 66.3419L0.718903 66.2449C0.575345 65.5192 0.5 64.7687 0.5 64V61.4H0V56.2H0.5V51H0V45.8H0.5V40.6H0V35.4H0.5V30.2H0V25H0.5V19.8H0V14.6H0.5V12C0.5 11.2313 0.575345 10.4808 0.718902 9.75509L0.228409 9.65806C0.539859 8.08372 1.15925 6.62011 2.02121 5.33261L2.4367 5.61077C3.27644 4.35647 4.35646 3.27644 5.61077 2.4367L5.33261 2.02122C6.62011 1.15926 8.08372 0.53986 9.65806 0.228409L9.75509 0.718903C10.4807 0.575345 11.2313 0.5 12 0.5H14.6V0H19.8V0.5H25V0H30.2V0.5H35.4V0H40.6V0.5H45.8V0H51V0.5H56.2V0H61.4V0.5H64C64.7687 0.5 65.5192 0.575345 66.2449 0.718902L66.3419 0.228409C67.9163 0.53986 69.3799 1.15926 70.6674 2.02121L70.3892 2.4367C71.6435 3.27644 72.7236 4.35646 73.5633 5.61077L73.9788 5.33261C74.8407 6.62011 75.4601 8.08372 75.7716 9.65806L75.2811 9.75509C75.4247 10.4807 75.5 11.2313 75.5 12V14.6H76V19.8H75.5V25H76V30.2H75.5V35.4H76V40.6H75.5V45.8H76V51H75.5V56.2H76V61.4H75.5V64C75.5 64.7687 75.4247 65.5192 75.2811 66.2449L75.7716 66.3419C75.4601 67.9163 74.8407 69.3799 73.9788 70.6674L73.5633 70.3892C72.7236 71.6435 71.6435 72.7236 70.3892 73.5633L70.6674 73.9788C69.3799 74.8407 67.9163 75.4601 66.3419 75.7716L66.2449 75.2811C65.5192 75.4247 64.7687 75.5 64 75.5H61.4V76H56.2V75.5H51V76H45.8V75.5H40.6V76H35.4V75.5H30.2V76H25V75.5H19.8V76H14.6V75.5H12C11.2313 75.5 10.4808 75.4247 9.75509 75.2811L9.65806 75.7716C8.08372 75.4601 6.62011 74.8408 5.33261 73.9788L5.61077 73.5633C4.35647 72.7236 3.27644 71.6435 2.4367 70.3892L2.02122 70.6674Z" stroke="#1B1A18" stroke-dasharray="5 5"/>
<path d="M41.125 39.0415H34.875" stroke="#1B1A18" stroke-width="1.5" stroke-linecap="round"/>
<path d="M38 35.9165V42.1665" stroke="#1B1A18" stroke-width="1.5" stroke-linecap="round"/>
<path d="M35.6852 47.375H40.3148C43.5659 47.375 45.1914 47.375 46.3591 46.609C46.8646 46.2773 47.2986 45.8511 47.6364 45.3549C48.4166 44.2084 48.4166 42.6124 48.4166 39.4204C48.4166 36.2285 48.4166 34.6325 47.6364 33.486C47.2986 32.9897 46.8646 32.5636 46.3591 32.232C45.6087 31.7397 44.6695 31.5638 43.2312 31.5009C42.5449 31.5009 41.954 30.9903 41.8195 30.3295C41.6175 29.3384 40.7311 28.625 39.7018 28.625H36.2982C35.2688 28.625 34.3824 29.3384 34.1805 30.3295C34.0459 30.9903 33.455 31.5009 32.7687 31.5009C31.3305 31.5638 30.3912 31.7397 29.6409 32.232C29.1353 32.5636 28.7013 32.9897 28.3635 33.486C27.5833 34.6325 27.5833 36.2285 27.5833 39.4204C27.5833 42.6124 27.5833 44.2084 28.3635 45.3549C28.7013 45.8511 29.1353 46.2773 29.6409 46.609C30.8086 47.375 32.4341 47.375 35.6852 47.375Z" stroke="#1B1A18" stroke-width="1.5"/>
<path d="M45.2917 35.9165H44.25" stroke="#1B1A18" stroke-width="1.5" stroke-linecap="round"/>
</svg>
