<svg width="22" height="22" viewBox="0 0 22 22" fill="none" xmlns="http://www.w3.org/2000/svg">
<path fill-rule="evenodd" clip-rule="evenodd" d="M17.6065 5.68975C17.7734 5.51686 17.8658 5.28531 17.8637 5.04496C17.8616 4.80462 17.7652 4.5747 17.5953 4.40475C17.4253 4.23479 17.1954 4.13838 16.9551 4.1363C16.7147 4.13421 16.4832 4.2266 16.3103 4.39358L11 9.70383L5.68978 4.39358C5.5169 4.2266 5.28535 4.13421 5.045 4.1363C4.80465 4.13838 4.57474 4.23479 4.40478 4.40475C4.23483 4.5747 4.13842 4.80462 4.13633 5.04496C4.13424 5.28531 4.22664 5.51686 4.39362 5.68975L9.70387 11L4.39362 16.3102C4.30607 16.3948 4.23623 16.496 4.18819 16.6078C4.14015 16.7196 4.11486 16.8399 4.1138 16.9616C4.11275 17.0833 4.13594 17.204 4.18203 17.3167C4.22812 17.4294 4.29619 17.5317 4.38225 17.6178C4.46832 17.7038 4.57067 17.7719 4.68333 17.818C4.79598 17.8641 4.91669 17.8873 5.0384 17.8862C5.16012 17.8852 5.2804 17.8599 5.39224 17.8118C5.50407 17.7638 5.60522 17.694 5.68978 17.6064L11 12.2962L16.3103 17.6064C16.4832 17.7734 16.7147 17.8658 16.9551 17.8637C17.1954 17.8616 17.4253 17.7652 17.5953 17.5952C17.7652 17.4253 17.8616 17.1954 17.8637 16.955C17.8658 16.7147 17.7734 16.4831 17.6065 16.3102L12.2962 11L17.6065 5.68975Z" fill="#1B1A18"/>
</svg>
