<svg width="25" height="25" viewBox="0 0 25 25" fill="none" xmlns="http://www.w3.org/2000/svg">
<path d="M21.4593 4.27248V6.56415C21.4593 7.39748 20.9385 8.43915 20.4176 8.95998L15.9385 12.9184C15.3135 13.4392 14.8968 14.4809 14.8968 15.3142V19.7934C14.8968 20.4184 14.4801 21.2517 13.9593 21.5642L12.501 22.5017C11.1468 23.335 9.27177 22.3975 9.27177 20.7309V15.21C9.27177 14.4809 8.85511 13.5434 8.43844 13.0225L7.94886 12.5121C7.62594 12.1684 7.56344 11.6475 7.82386 11.2413L13.1572 2.67873C13.3447 2.37665 13.6781 2.18915 14.0426 2.18915H19.376C20.5218 2.18915 21.4593 3.12665 21.4593 4.27248Z" fill="#FDFDFD"/>
<path d="M10.7817 3.7829L7.08378 9.70998C6.72961 10.2829 5.91711 10.3662 5.44836 9.87665L4.47961 8.85581C3.95878 8.33498 3.54211 7.39748 3.54211 6.77248V4.37665C3.54211 3.12665 4.47961 2.18915 5.62545 2.18915H9.89628C10.7088 2.18915 11.2088 3.08498 10.7817 3.7829Z" fill="#FDFDFD"/>
</svg>
