<svg width="55" height="55" viewBox="0 0 55 55" fill="none" xmlns="http://www.w3.org/2000/svg">
<path d="M37.9166 21.2502V23.771C37.9166 25.4168 36.875 26.4585 35.2291 26.4585H31.6666V19.1772C31.6666 18.021 32.6145 17.0835 33.7708 17.0835C34.9062 17.0939 35.9479 17.5522 36.6979 18.3022C37.4479 19.0627 37.9166 20.1043 37.9166 21.2502Z" stroke="#791CAC" stroke-width="2" stroke-miterlimit="10" stroke-linecap="round" stroke-linejoin="round"/>
<path d="M17.0833 22.2918V36.8752C17.0833 37.7397 18.0624 38.2293 18.7499 37.7085L20.5312 36.3752C20.9478 36.0627 21.5312 36.1043 21.9062 36.4793L23.6353 38.2189C24.0416 38.6252 24.7083 38.6252 25.1145 38.2189L26.8645 36.4689C27.2291 36.1043 27.8124 36.0627 28.2187 36.3752L29.9999 37.7085C30.6874 38.2189 31.6666 37.7293 31.6666 36.8752V19.1668C31.6666 18.021 32.6041 17.0835 33.7499 17.0835H22.2916H21.2499C18.1249 17.0835 17.0833 18.9481 17.0833 21.2502V22.2918Z" stroke="#791CAC" stroke-width="2" stroke-miterlimit="10" stroke-linecap="round" stroke-linejoin="round"/>
<path d="M24.375 28.5522H27.5" stroke="#791CAC" stroke-width="2" stroke-linecap="round" stroke-linejoin="round"/>
<path d="M24.375 24.3853H27.5" stroke="#791CAC" stroke-width="2" stroke-linecap="round" stroke-linejoin="round"/>
<path d="M21.2454 28.5415H21.2547" stroke="#791CAC" stroke-width="2" stroke-linecap="round" stroke-linejoin="round"/>
<path d="M21.2454 24.375H21.2547" stroke="#791CAC" stroke-width="2" stroke-linecap="round" stroke-linejoin="round"/>
</svg>
