<svg width="111" height="92" viewBox="0 0 111 92" fill="none" xmlns="http://www.w3.org/2000/svg">
<path d="M101.44 52.9599C101.44 55.8099 99.22 58.1299 96.42 58.2999C96.31 58.3199 96.19 58.3199 96.08 58.3199C93.12 58.3199 90.72 55.9199 90.72 52.9599C90.72 49.9999 93.12 47.5999 96.08 47.5999C96.19 47.5999 96.31 47.5998 96.42 47.6198C99.22 47.7898 101.44 50.1099 101.44 52.9599Z" fill="#309FD9"/>
<path d="M110.64 42.6401H94.7601C89.0601 42.6401 84.4401 47.2601 84.4401 52.9601C84.4401 58.6601 89.0601 63.2701 94.7601 63.2701H110.64V67.3701C110.64 80.4301 98.4801 91.0201 83.4701 91.0201H13.3001C6.41007 91.0201 0.820068 86.1601 0.820068 80.1601V26.6701C0.820068 20.6701 6.41007 15.8101 13.3001 15.8101H98.1501C105.05 15.8101 110.64 20.6701 110.64 26.6701V42.6401Z" fill="#309FD9"/>
<path d="M96.4201 11.2999V42.6399H94.7601C89.0601 42.6399 84.4401 47.2599 84.4401 52.9599C84.4401 58.6599 89.0601 63.2699 94.7601 63.2699H96.4201V64.7899C96.4201 70.7899 91.5601 75.6499 85.5601 75.6499H11.6901C5.69007 75.6499 0.820068 70.7899 0.820068 64.7899V24.0899C0.820068 11.0299 11.4101 0.439941 24.4701 0.439941H85.5601C91.5601 0.439941 96.4201 5.29994 96.4201 11.2999Z" fill="#D7188D"/>
<path d="M96.4201 15.8101V42.6401H94.7601C89.0601 42.6401 84.4401 47.2601 84.4401 52.9601C84.4401 58.6601 89.0601 63.2701 94.7601 63.2701H96.4201V64.7901C96.4201 70.7901 91.5601 75.6501 85.5601 75.6501H11.6901C5.69007 75.6501 0.820068 70.7901 0.820068 64.7901V26.6701C0.820068 20.6701 6.41007 15.8101 13.3001 15.8101H96.4201Z" fill="#7C2B8B"/>
</svg>
