<svg width="55" height="55" viewBox="0 0 55 55" fill="none" xmlns="http://www.w3.org/2000/svg">
<path d="M20.2083 25.4167C19.0625 25.4167 18.125 26.3542 18.125 27.5C18.125 28.6458 19.0625 29.5833 20.2083 29.5833C21.3542 29.5833 22.2917 28.6458 22.2917 27.5C22.2917 26.3542 21.3542 25.4167 20.2083 25.4167Z" stroke="#791CAC" stroke-width="2"/>
<path d="M34.7917 25.4167C33.6459 25.4167 32.7084 26.3542 32.7084 27.5C32.7084 28.6458 33.6459 29.5833 34.7917 29.5833C35.9375 29.5833 36.875 28.6458 36.875 27.5C36.875 26.3542 35.9375 25.4167 34.7917 25.4167Z" stroke="#791CAC" stroke-width="2"/>
<path d="M27.5 25.4167C26.3541 25.4167 25.4166 26.3542 25.4166 27.5C25.4166 28.6458 26.3541 29.5833 27.5 29.5833C28.6458 29.5833 29.5833 28.6458 29.5833 27.5C29.5833 26.3542 28.6458 25.4167 27.5 25.4167Z" stroke="#791CAC" stroke-width="2"/>
</svg>
