<svg width="25" height="25" viewBox="0 0 25 25" fill="none" xmlns="http://www.w3.org/2000/svg">
<path d="M3.125 22.9167H21.875" stroke="#1B1A18" stroke-width="1.5" stroke-linecap="round" stroke-linejoin="round"/>
<path d="M5.83331 8.72903H4.16667C3.59375 8.72903 3.125 9.19778 3.125 9.7707V18.7499C3.125 19.3228 3.59375 19.7916 4.16667 19.7916H5.83331C6.40623 19.7916 6.87498 19.3228 6.87498 18.7499V9.7707C6.87498 9.19778 6.40623 8.72903 5.83331 8.72903Z" stroke="#1B1A18" stroke-width="1.5" stroke-linecap="round" stroke-linejoin="round"/>
<path d="M13.3332 5.40619H11.6667C11.0937 5.40619 10.625 5.87494 10.625 6.44786V18.7499C10.625 19.3228 11.0937 19.7916 11.6667 19.7916H13.3332C13.9061 19.7916 14.3749 19.3228 14.3749 18.7499V6.44786C14.3749 5.87494 13.9061 5.40619 13.3332 5.40619Z" stroke="#1B1A18" stroke-width="1.5" stroke-linecap="round" stroke-linejoin="round"/>
<path d="M20.8333 2.08334H19.1667C18.5937 2.08334 18.125 2.55209 18.125 3.12501V18.75C18.125 19.3229 18.5937 19.7917 19.1667 19.7917H20.8333C21.4063 19.7917 21.875 19.3229 21.875 18.75V3.12501C21.875 2.55209 21.4063 2.08334 20.8333 2.08334Z" stroke="#1B1A18" stroke-width="1.5" stroke-linecap="round" stroke-linejoin="round"/>
</svg>
