<svg width="25" height="25" viewBox="0 0 25 25" fill="none" xmlns="http://www.w3.org/2000/svg">
<path d="M17.8125 2.08334H13.4375C10.2259 2.08334 8.71974 3.22302 8.40596 5.97815C8.34031 6.55454 8.81767 7.03126 9.39779 7.03126H11.5625C15.9375 7.03126 17.9688 9.06251 17.9688 13.4375V15.6022C17.9688 16.1823 18.4454 16.6597 19.0219 16.5941C21.777 16.2802 22.9167 14.7741 22.9167 11.5625V7.18751C22.9167 3.54168 21.4583 2.08334 17.8125 2.08334Z" fill="#1B1A18"/>
<path d="M11.5627 8.33334H7.18766C3.54183 8.33334 2.0835 9.79168 2.0835 13.4375V17.8125C2.0835 21.4583 3.54183 22.9167 7.18766 22.9167H11.5627C15.2085 22.9167 16.6668 21.4583 16.6668 17.8125V13.4375C16.6668 9.79168 15.2085 8.33334 11.5627 8.33334ZM12.8022 14.2188L8.93766 18.0833C8.79183 18.2292 8.60433 18.3021 8.40641 18.3021C8.2085 18.3021 8.021 18.2292 7.87516 18.0833L5.93766 16.1458C5.646 15.8542 5.646 15.3854 5.93766 15.0938C6.22933 14.8021 6.69808 14.8021 6.98975 15.0938L8.396 16.5L11.7397 13.1563C12.0314 12.8646 12.5002 12.8646 12.7918 13.1563C13.0835 13.4479 13.0939 13.9271 12.8022 14.2188Z" fill="#1B1A18"/>
</svg>
