<svg width="25" height="25" viewBox="0 0 25 25" fill="none" xmlns="http://www.w3.org/2000/svg">
<path d="M15.1355 9.86462L9.86475 15.1354C9.18766 14.4583 8.771 13.5312 8.771 12.5C8.771 10.4375 10.4376 8.77087 12.5001 8.77087C13.5314 8.77087 14.4585 9.18754 15.1355 9.86462Z" stroke="#1B1A18" stroke-width="1.5" stroke-linecap="round" stroke-linejoin="round"/>
<path d="M18.5624 6.01041C16.7395 4.63541 14.6561 3.88541 12.4999 3.88541C8.82275 3.88541 5.39567 6.05207 3.01025 9.80207C2.07275 11.2708 2.07275 13.7396 3.01025 15.2083C3.83317 16.5 4.7915 17.6146 5.83317 18.5104" stroke="#1B1A18" stroke-width="1.5" stroke-linecap="round" stroke-linejoin="round"/>
<path d="M8.771 20.3439C9.9585 20.8439 11.2189 21.1147 12.5001 21.1147C16.1772 21.1147 19.6043 18.948 21.9897 15.198C22.9272 13.7293 22.9272 11.2605 21.9897 9.79172C21.646 9.25005 21.271 8.73963 20.8855 8.26047" stroke="#1B1A18" stroke-width="1.5" stroke-linecap="round" stroke-linejoin="round"/>
<path d="M16.1562 13.2292C15.8854 14.6979 14.6875 15.8958 13.2188 16.1667" stroke="#1B1A18" stroke-width="1.5" stroke-linecap="round" stroke-linejoin="round"/>
<path d="M9.86475 15.1354L2.0835 22.9167" stroke="#1B1A18" stroke-width="1.5" stroke-linecap="round" stroke-linejoin="round"/>
<path d="M22.9165 2.08334L15.1353 9.86459" stroke="#1B1A18" stroke-width="1.5" stroke-linecap="round" stroke-linejoin="round"/>
</svg>
