<svg width="25" height="25" viewBox="0 0 25 25" fill="none" xmlns="http://www.w3.org/2000/svg">
<path d="M22.1356 9.53093C19.7293 5.74968 16.2085 3.5726 12.5002 3.5726C10.646 3.5726 8.84391 4.11427 7.19808 5.12468C5.55225 6.14552 4.07308 7.6351 2.86475 9.53093C1.82308 11.1664 1.82308 13.8226 2.86475 15.458C5.271 19.2497 8.79183 21.4164 12.5002 21.4164C14.3543 21.4164 16.1564 20.8747 17.8022 19.8643C19.4481 18.8434 20.9272 17.3539 22.1356 15.458C23.1772 13.833 23.1772 11.1664 22.1356 9.53093ZM12.5002 16.708C10.1668 16.708 8.29183 14.8226 8.29183 12.4997C8.29183 10.1768 10.1668 8.29135 12.5002 8.29135C14.8335 8.29135 16.7085 10.1768 16.7085 12.4997C16.7085 14.8226 14.8335 16.708 12.5002 16.708Z" fill="#1B1A18"/>
<path d="M12.4985 9.52148C10.8631 9.52148 9.52979 10.8548 9.52979 12.5006C9.52979 14.136 10.8631 15.4694 12.4985 15.4694C14.1339 15.4694 15.4777 14.136 15.4777 12.5006C15.4777 10.8652 14.1339 9.52148 12.4985 9.52148Z" fill="#1B1A18"/>
</svg>
