<svg width="25" height="25" viewBox="0 0 25 25" fill="none" xmlns="http://www.w3.org/2000/svg">
<path d="M22.1579 9.56078C21.8558 9.08162 21.5329 8.6337 21.1995 8.21703C20.8141 7.72745 20.085 7.68578 19.6475 8.12328L16.5225 11.2482C16.7516 11.9357 16.7933 12.7274 16.585 13.5503C16.2204 15.0191 15.0329 16.2066 13.5641 16.5712C12.7412 16.7795 11.9495 16.7378 11.262 16.5087C11.262 16.5087 9.77247 17.9982 8.69955 19.0712C8.17872 19.592 8.34539 20.5087 9.0433 20.7795C10.1579 21.2066 11.3141 21.4253 12.5016 21.4253C14.3558 21.4253 16.1579 20.8837 17.8037 19.8732C19.4808 18.8316 20.9912 17.3003 22.21 15.3524C23.1995 13.7795 23.1475 11.1337 22.1579 9.56078Z" fill="#1B1A18"/>
<path d="M14.6048 10.3965L10.3965 14.6048C9.86523 14.0631 9.52148 13.3131 9.52148 12.5006C9.52148 10.8652 10.8548 9.52148 12.5006 9.52148C13.3131 9.52148 14.0631 9.86523 14.6048 10.3965Z" fill="#1B1A18"/>
<path d="M19.0106 5.98927L15.4793 9.52052C14.7189 8.74968 13.6668 8.29135 12.5002 8.29135C10.1668 8.29135 8.29183 10.1768 8.29183 12.4997C8.29183 13.6664 8.76058 14.7184 9.521 15.4789L6.00016 19.0101H5.98975C4.8335 18.0726 3.771 16.8747 2.86475 15.458C1.82308 13.8226 1.82308 11.1664 2.86475 9.53093C4.07308 7.6351 5.55225 6.14552 7.19808 5.12468C8.84391 4.12468 10.646 3.5726 12.5002 3.5726C14.8231 3.5726 17.0731 4.42677 19.0106 5.98927Z" fill="#1B1A18"/>
<path d="M15.4771 12.498C15.4771 14.1334 14.1437 15.4772 12.4979 15.4772C12.4354 15.4772 12.3833 15.4772 12.3208 15.4563L15.4562 12.3209C15.4771 12.3834 15.4771 12.4355 15.4771 12.498Z" fill="#1B1A18"/>
<path d="M22.6759 2.32178C22.3634 2.00928 21.853 2.00928 21.5405 2.32178L2.32178 21.5509C2.00928 21.8634 2.00928 22.3738 2.32178 22.6863C2.47803 22.8322 2.67594 22.9155 2.88428 22.9155C3.09261 22.9155 3.29053 22.8322 3.44678 22.6759L22.6759 3.44678C22.9988 3.13428 22.9988 2.63428 22.6759 2.32178Z" fill="#1B1A18"/>
</svg>
