<svg width="25" height="25" viewBox="0 0 25 25" fill="none" xmlns="http://www.w3.org/2000/svg">
<path d="M20.6145 15.552C18.4687 17.6874 15.3957 18.3436 12.6978 17.4999L7.7916 22.3957C7.43743 22.7603 6.73951 22.9791 6.23951 22.9061L3.96868 22.5936C3.21868 22.4895 2.52076 21.7811 2.40618 21.0311L2.09368 18.7603C2.02076 18.2603 2.26035 17.5624 2.6041 17.2082L7.49993 12.3124C6.66659 9.60411 7.31243 6.5312 9.45826 4.39578C12.5312 1.32287 17.5207 1.32287 20.6041 4.39578C23.6874 7.4687 23.6874 12.4791 20.6145 15.552Z" stroke="#1B1A18" stroke-width="1.5" stroke-miterlimit="10" stroke-linecap="round" stroke-linejoin="round"/>
<path d="M7.17725 18.2188L9.57308 20.6146" stroke="#1B1A18" stroke-width="1.5" stroke-miterlimit="10" stroke-linecap="round" stroke-linejoin="round"/>
<path d="M15.104 11.4583C15.9669 11.4583 16.6665 10.7588 16.6665 9.89584C16.6665 9.0329 15.9669 8.33334 15.104 8.33334C14.2411 8.33334 13.5415 9.0329 13.5415 9.89584C13.5415 10.7588 14.2411 11.4583 15.104 11.4583Z" stroke="#1B1A18" stroke-width="1.5" stroke-linecap="round" stroke-linejoin="round"/>
</svg>
