<svg width="25" height="25" viewBox="0 0 25 25" fill="none" xmlns="http://www.w3.org/2000/svg">
<path d="M8.74023 19.2611V8.67783C8.74023 8.26116 8.86523 7.85491 9.0944 7.51116L11.9381 3.28199C12.386 2.60491 13.5006 2.12574 14.4485 2.47991C15.4694 2.82366 16.1465 3.96949 15.9277 4.99033L15.386 8.39658C15.3444 8.70908 15.4277 8.99032 15.6048 9.20907C15.7819 9.40699 16.0423 9.53199 16.3235 9.53199H20.6048C21.4277 9.53199 22.136 9.86532 22.5527 10.4486C22.9485 11.0111 23.0215 11.7403 22.761 12.4799L20.1985 20.282C19.8756 21.5736 18.4694 22.6257 17.0735 22.6257H13.011C12.3131 22.6257 11.334 22.3861 10.886 21.9382L9.55273 20.907C9.04232 20.5216 8.74023 19.907 8.74023 19.2611Z" fill="#1B1A18"/>
<path d="M6.34375 8H5.27083C3.65625 8 3 8.625 3 10.1667V20.6458C3 22.1875 3.65625 22.8125 5.27083 22.8125H6.34375C7.95833 22.8125 8.61458 22.1875 8.61458 20.6458V10.1667C8.61458 8.625 7.95833 8 6.34375 8Z" fill="#1B1A18"/>
</svg>
