<svg width="25" height="25" viewBox="0 0 25 25" fill="none" xmlns="http://www.w3.org/2000/svg">
<path d="M19.5312 8.33333V10.5208C19.0729 10.4583 18.5521 10.4271 17.9688 10.4167V8.33333C17.9688 5.05208 17.0417 2.86458 12.5 2.86458C7.95833 2.86458 7.03125 5.05208 7.03125 8.33333V10.4167C6.44792 10.4271 5.92708 10.4583 5.46875 10.5208V8.33333C5.46875 5.31249 6.19792 1.30208 12.5 1.30208C18.8021 1.30208 19.5312 5.31249 19.5312 8.33333Z" fill="#1B1A18"/>
<path d="M19.5314 10.5208C19.0731 10.4583 18.5522 10.4271 17.9689 10.4167H7.03141C6.44808 10.4271 5.92725 10.4583 5.46891 10.5208C2.81266 10.8437 2.0835 12.1458 2.0835 15.625V17.7083C2.0835 21.875 3.12516 22.9167 7.29183 22.9167H17.7085C21.8752 22.9167 22.9168 21.875 22.9168 17.7083V15.625C22.9168 12.1458 22.1877 10.8437 19.5314 10.5208ZM9.07308 17.4062C8.87516 17.5937 8.60433 17.7083 8.3335 17.7083C8.19808 17.7083 8.06266 17.6771 7.93766 17.625C7.80225 17.5729 7.69808 17.5 7.59391 17.4062C7.40641 17.2083 7.29183 16.9375 7.29183 16.6667C7.29183 16.5312 7.32308 16.3958 7.37516 16.2708C7.42725 16.1458 7.50016 16.0312 7.59391 15.9271C7.69808 15.8333 7.80225 15.7604 7.93766 15.7083C8.32308 15.5417 8.78141 15.6354 9.07308 15.9271C9.16683 16.0312 9.23975 16.1458 9.29183 16.2708C9.34391 16.3958 9.37516 16.5312 9.37516 16.6667C9.37516 16.9375 9.26058 17.2083 9.07308 17.4062ZM13.4585 17.0625C13.4064 17.1875 13.3335 17.3021 13.2397 17.4062C13.0418 17.5937 12.771 17.7083 12.5002 17.7083C12.2189 17.7083 11.9585 17.5937 11.7606 17.4062C11.6668 17.3021 11.5939 17.1875 11.5418 17.0625C11.4897 16.9375 11.4585 16.8021 11.4585 16.6667C11.4585 16.3854 11.5731 16.125 11.7606 15.9271C12.146 15.5417 12.8439 15.5417 13.2397 15.9271C13.4272 16.125 13.5418 16.3854 13.5418 16.6667C13.5418 16.8021 13.5106 16.9375 13.4585 17.0625ZM17.4064 17.4062C17.2085 17.5937 16.9377 17.7083 16.6668 17.7083C16.396 17.7083 16.1252 17.5937 15.9272 17.4062C15.7397 17.2083 15.6252 16.9479 15.6252 16.6667C15.6252 16.3854 15.7397 16.125 15.9272 15.9271C16.3231 15.5417 17.021 15.5417 17.4064 15.9271C17.4481 15.9792 17.4897 16.0312 17.5314 16.0937C17.5731 16.1458 17.6043 16.2083 17.6252 16.2708C17.6564 16.3333 17.6772 16.3958 17.6877 16.4583C17.6981 16.5312 17.7085 16.6042 17.7085 16.6667C17.7085 16.9375 17.5939 17.2083 17.4064 17.4062Z" fill="#1B1A18"/>
</svg>
