<svg width="25" height="25" viewBox="0 0 25 25" fill="none" xmlns="http://www.w3.org/2000/svg">
<path d="M19.9697 6.91617C19.5218 4.65575 17.8447 3.66617 15.5114 3.66617H6.36556C3.61556 3.66617 1.78223 5.04117 1.78223 8.2495V13.6141C1.78223 15.9266 2.73014 17.2807 4.29264 17.8641C4.52181 17.9474 4.77181 18.0203 5.03223 18.062C5.44889 18.1557 5.89681 18.1974 6.36556 18.1974H15.5218C18.2718 18.1974 20.1051 16.8224 20.1051 13.6141V8.2495C20.1051 7.75992 20.0634 7.32242 19.9697 6.91617ZM5.76139 12.4995C5.76139 12.9266 5.40723 13.2807 4.98014 13.2807C4.55306 13.2807 4.19889 12.9266 4.19889 12.4995V9.3745C4.19889 8.94742 4.55306 8.59325 4.98014 8.59325C5.40723 8.59325 5.76139 8.94742 5.76139 9.3745V12.4995ZM10.9384 13.687C9.41764 13.687 8.18848 12.4578 8.18848 10.937C8.18848 9.41617 9.41764 8.187 10.9384 8.187C12.4593 8.187 13.6884 9.41617 13.6884 10.937C13.6884 12.4578 12.4593 13.687 10.9384 13.687ZM17.6676 12.4995C17.6676 12.9266 17.3134 13.2807 16.8863 13.2807C16.4593 13.2807 16.1051 12.9266 16.1051 12.4995V9.3745C16.1051 8.94742 16.4593 8.59325 16.8863 8.59325C17.3134 8.59325 17.6676 8.94742 17.6676 9.3745V12.4995Z" fill="#1B1A18"/>
<path d="M23.2311 11.3732V16.7378C23.2311 19.9461 21.3978 21.3316 18.6374 21.3316H9.49154C8.71029 21.3316 8.01237 21.217 7.40821 20.9878C6.91862 20.8107 6.49154 20.5503 6.14779 20.217C5.96029 20.0399 6.10612 19.7586 6.36654 19.7586H15.5124C19.3665 19.7586 21.6582 17.467 21.6582 13.6232V8.24825C21.6582 7.99825 21.9394 7.842 22.1165 8.0295C22.8249 8.7795 23.2311 9.87325 23.2311 11.3732Z" fill="#1B1A18"/>
</svg>
