<svg width="25" height="25" viewBox="0 0 25 25" fill="none" xmlns="http://www.w3.org/2000/svg">
<path d="M10.6772 10.4479C10.6772 11.0104 10.8335 11.0937 11.1877 11.2187L11.7189 11.4062V9.63541H11.4064C11.0106 9.63541 10.6772 9.99999 10.6772 10.4479Z" fill="#1B1A18"/>
<path d="M13.2812 15.3654H13.5938C14 15.3654 14.3229 15.0008 14.3229 14.5529C14.3229 13.9904 14.1667 13.9071 13.8125 13.7821L13.2812 13.5946V15.3654Z" fill="#1B1A18"/>
<path d="M20.396 5.70833L18.2606 7.84374C18.1043 7.99999 17.9064 8.07291 17.7085 8.07291C17.5106 8.07291 17.3127 7.99999 17.1564 7.84374C16.8543 7.54166 16.8543 7.04166 17.1564 6.73958L19.2918 4.60416C17.4585 3.04166 15.0939 2.08333 12.5002 2.08333C6.75016 2.08333 2.0835 6.74999 2.0835 12.5C2.0835 18.25 6.75016 22.9167 12.5002 22.9167C18.2502 22.9167 22.9168 18.25 22.9168 12.5C22.9168 9.90624 21.9585 7.54166 20.396 5.70833ZM14.3231 12.3125C14.9897 12.5521 15.8856 13.0312 15.8856 14.5625C15.8856 15.8646 14.8543 16.9375 13.5939 16.9375H13.2814V17.1979C13.2814 17.625 12.9272 17.9792 12.5002 17.9792C12.0731 17.9792 11.7189 17.625 11.7189 17.1979V16.9375H11.6356C10.2502 16.9375 9.11475 15.7708 9.11475 14.3333C9.11475 13.8958 9.46891 13.5417 9.896 13.5417C10.3231 13.5417 10.6772 13.8958 10.6772 14.3229C10.6772 14.8958 11.1043 15.3646 11.6356 15.3646H11.7189V13.0521L10.6772 12.6875C10.0106 12.4479 9.11475 11.9687 9.11475 10.4375C9.11475 9.13541 10.146 8.06249 11.4064 8.06249H11.7189V7.81249C11.7189 7.38541 12.0731 7.03124 12.5002 7.03124C12.9272 7.03124 13.2814 7.38541 13.2814 7.81249V8.07291H13.3647C14.7502 8.07291 15.8856 9.23958 15.8856 10.6771C15.8856 11.1042 15.5314 11.4583 15.1043 11.4583C14.6772 11.4583 14.3231 11.1042 14.3231 10.6771C14.3231 10.1042 13.896 9.63541 13.3647 9.63541H13.2814V11.9479L14.3231 12.3125Z" fill="#1B1A18"/>
<path d="M23.6354 1.78124C23.5521 1.59374 23.4063 1.43749 23.2083 1.35416C23.1146 1.32291 23.0208 1.30208 22.9167 1.30208H18.75C18.3229 1.30208 17.9688 1.65624 17.9688 2.08333C17.9688 2.51041 18.3229 2.86458 18.75 2.86458H21.0313L19.2917 4.60416C19.6875 4.94791 20.0521 5.31249 20.3958 5.70833L22.1354 3.96874V6.24999C22.1354 6.67708 22.4896 7.03124 22.9167 7.03124C23.3438 7.03124 23.6979 6.67708 23.6979 6.24999V2.08333C23.6979 1.97916 23.6771 1.88541 23.6354 1.78124Z" fill="#1B1A18"/>
</svg>
