<svg width="25" height="25" viewBox="0 0 25 25" fill="none" xmlns="http://www.w3.org/2000/svg">
<path d="M19.5923 6.5109H21.009C20.811 6.22965 20.6027 5.96923 20.384 5.70882L19.5923 6.5109Z" fill="#1B1A18"/>
<path d="M19.2918 4.60449C19.0314 4.38574 18.771 4.17741 18.4897 3.97949V5.39616L19.2918 4.60449Z" fill="#1B1A18"/>
<path d="M20.3952 5.7098L23.4681 2.63688C23.7702 2.3348 23.7702 1.8348 23.4681 1.53271C23.166 1.23063 22.666 1.23063 22.3639 1.53271L19.291 4.60563C19.6868 4.94938 20.0514 5.32438 20.3952 5.7098Z" fill="#1B1A18"/>
<path d="M18.4915 3.125C18.4915 2.69792 18.1374 2.34375 17.7103 2.34375C17.2936 2.34375 16.9603 2.67708 16.9395 3.08333C17.4811 3.34375 18.002 3.63542 18.4915 3.97917V3.125Z" fill="#1B1A18"/>
<path d="M22.658 7.29167C22.658 6.86459 22.3039 6.51042 21.8768 6.51042H21.0122C21.356 7.00001 21.658 7.52084 21.908 8.0625C22.3247 8.04167 22.658 7.70834 22.658 7.29167Z" fill="#1B1A18"/>
<path d="M13.2812 15.3654H13.5938C14 15.3654 14.3229 15.0008 14.3229 14.5529C14.3229 13.9904 14.1667 13.9071 13.8125 13.7821L13.2812 13.5946V15.3654Z" fill="#1B1A18"/>
<path d="M21.9168 8.06249C21.9064 8.06249 21.896 8.07291 21.8752 8.07291H17.7085C17.6043 8.07291 17.5106 8.05208 17.4064 8.01041C17.2189 7.92708 17.0627 7.78124 16.9793 7.58333C16.9481 7.48958 16.9272 7.39583 16.9272 7.29166V3.12499C16.9272 3.11458 16.9377 3.10416 16.9377 3.08333C15.5835 2.44791 14.0835 2.08333 12.5002 2.08333C6.75016 2.08333 2.0835 6.74999 2.0835 12.5C2.0835 18.25 6.75016 22.9167 12.5002 22.9167C18.2502 22.9167 22.9168 18.25 22.9168 12.5C22.9168 10.9167 22.5522 9.41666 21.9168 8.06249ZM14.3231 12.3125C14.9897 12.5417 15.8856 13.0312 15.8856 14.5625C15.8856 15.8646 14.8543 16.9375 13.5939 16.9375H13.2814V17.1979C13.2814 17.625 12.9272 17.9792 12.5002 17.9792C12.0731 17.9792 11.7189 17.625 11.7189 17.1979V16.9375H11.6356C10.2502 16.9375 9.11475 15.7708 9.11475 14.3333C9.11475 13.8958 9.46891 13.5417 9.896 13.5417C10.3231 13.5417 10.6772 13.8958 10.6772 14.3229C10.6772 14.8958 11.1043 15.3646 11.6356 15.3646H11.7189V13.0521L10.6772 12.6875C10.0106 12.4583 9.11475 11.9687 9.11475 10.4375C9.11475 9.13541 10.146 8.06249 11.4064 8.06249H11.7189V7.81249C11.7189 7.38541 12.0731 7.03124 12.5002 7.03124C12.9272 7.03124 13.2814 7.38541 13.2814 7.81249V8.07291H13.3647C14.7502 8.07291 15.8856 9.23958 15.8856 10.6771C15.8856 11.1042 15.5314 11.4583 15.1043 11.4583C14.6772 11.4583 14.3231 11.1042 14.3231 10.6771C14.3231 10.1042 13.896 9.63541 13.3647 9.63541H13.2814V11.9479L14.3231 12.3125Z" fill="#1B1A18"/>
<path d="M10.6772 10.4479C10.6772 11.0104 10.8335 11.0937 11.1877 11.2187L11.7189 11.4062V9.63541H11.4064C11.0106 9.63541 10.6772 9.99999 10.6772 10.4479Z" fill="#1B1A18"/>
</svg>
