<svg width="25" height="25" viewBox="0 0 25 25" fill="none" xmlns="http://www.w3.org/2000/svg">
<path d="M20.1458 15.0938L19.1041 13.3646C18.8854 12.9792 18.6875 12.25 18.6875 11.8229V9.18751C18.6875 6.73959 17.25 4.62501 15.1771 3.63543C14.6354 2.67709 13.6354 2.08334 12.4896 2.08334C11.3541 2.08334 10.3334 2.69793 9.79169 3.66668C7.76044 4.67709 6.35419 6.77084 6.35419 9.18751V11.8229C6.35419 12.25 6.15627 12.9792 5.93752 13.3542L4.88544 15.0938C4.46877 15.7917 4.37502 16.5625 4.63544 17.2708C4.88544 17.9688 5.47919 18.5104 6.25002 18.7708C8.27085 19.4583 10.3959 19.7917 12.5208 19.7917C14.6458 19.7917 16.7708 19.4583 18.7916 18.7813C19.5208 18.5417 20.0833 17.9896 20.3541 17.2708C20.625 16.5521 20.5521 15.7604 20.1458 15.0938Z" fill="#1B1A18"/>
<path d="M15.4474 20.8438C15.0099 22.0521 13.8537 22.9167 12.4995 22.9167C11.6766 22.9167 10.8641 22.5833 10.2912 21.9896C9.95784 21.6771 9.70785 21.2604 9.56201 20.8333C9.69743 20.8542 9.83284 20.8646 9.97868 20.8854C10.2183 20.9167 10.4683 20.9479 10.7183 20.9688C11.312 21.0208 11.9162 21.0521 12.5204 21.0521C13.1141 21.0521 13.7079 21.0208 14.2912 20.9688C14.5099 20.9479 14.7287 20.9375 14.937 20.9063C15.1037 20.8854 15.2704 20.8646 15.4474 20.8438Z" fill="#1B1A18"/>
</svg>
