<svg width="25" height="25" viewBox="0 0 25 25" fill="none" xmlns="http://www.w3.org/2000/svg">
<path d="M22.9165 6.24999V8.77083C22.9165 10.4167 21.8748 11.4583 20.229 11.4583H16.6665V4.17708C16.6665 3.02083 17.6144 2.08333 18.7707 2.08333C19.9061 2.09374 20.9478 2.55208 21.6978 3.30208C22.4478 4.06249 22.9165 5.10416 22.9165 6.24999Z" stroke="#1B1A18" stroke-width="1.5" stroke-miterlimit="10" stroke-linecap="round" stroke-linejoin="round"/>
<path d="M2.0835 7.29166V21.875C2.0835 22.7396 3.06266 23.2292 3.75016 22.7083L5.53141 21.375C5.94808 21.0625 6.53141 21.1042 6.90641 21.4792L8.63558 23.2187C9.04183 23.625 9.7085 23.625 10.1147 23.2187L11.8647 21.4687C12.2293 21.1042 12.8127 21.0625 13.2189 21.375L15.0002 22.7083C15.6877 23.2187 16.6668 22.7292 16.6668 21.875V4.16666C16.6668 3.02083 17.6043 2.08333 18.7502 2.08333H7.29183H6.25016C3.12516 2.08333 2.0835 3.94791 2.0835 6.24999V7.29166Z" stroke="#1B1A18" stroke-width="1.5" stroke-miterlimit="10" stroke-linecap="round" stroke-linejoin="round"/>
<path d="M9.375 13.5521H12.5" stroke="#1B1A18" stroke-width="1.5" stroke-linecap="round" stroke-linejoin="round"/>
<path d="M9.375 9.38542H12.5" stroke="#1B1A18" stroke-width="1.5" stroke-linecap="round" stroke-linejoin="round"/>
<path d="M6.24561 13.5417H6.25496" stroke="#1B1A18" stroke-width="1.5" stroke-linecap="round" stroke-linejoin="round"/>
<path d="M6.24561 9.375H6.25496" stroke="#1B1A18" stroke-width="1.5" stroke-linecap="round" stroke-linejoin="round"/>
</svg>
