<svg width="25" height="25" viewBox="0 0 25 25" fill="none" xmlns="http://www.w3.org/2000/svg">
<path d="M7.29183 2.08333H6.25016C3.12516 2.08333 2.0835 3.94791 2.0835 6.24999V7.29166V21.875C2.0835 22.7396 3.06266 23.2292 3.75016 22.7083L5.53141 21.375C5.94808 21.0625 6.53141 21.1042 6.90641 21.4792L8.63558 23.2187C9.04183 23.625 9.7085 23.625 10.1147 23.2187L11.8647 21.4687C12.2293 21.1042 12.8127 21.0625 13.2189 21.375L15.0002 22.7083C15.6877 23.2187 16.6668 22.7292 16.6668 21.875V4.16666C16.6668 3.02083 17.6043 2.08333 18.7502 2.08333H7.29183ZM6.21891 14.5937C5.646 14.5937 5.17725 14.125 5.17725 13.5521C5.17725 12.9792 5.646 12.5104 6.21891 12.5104C6.79183 12.5104 7.26058 12.9792 7.26058 13.5521C7.26058 14.125 6.79183 14.5937 6.21891 14.5937ZM6.21891 10.4271C5.646 10.4271 5.17725 9.95833 5.17725 9.38541C5.17725 8.81249 5.646 8.34374 6.21891 8.34374C6.79183 8.34374 7.26058 8.81249 7.26058 9.38541C7.26058 9.95833 6.79183 10.4271 6.21891 10.4271ZM12.5002 14.3333H9.37516C8.94808 14.3333 8.59391 13.9792 8.59391 13.5521C8.59391 13.125 8.94808 12.7708 9.37516 12.7708H12.5002C12.9272 12.7708 13.2814 13.125 13.2814 13.5521C13.2814 13.9792 12.9272 14.3333 12.5002 14.3333ZM12.5002 10.1667H9.37516C8.94808 10.1667 8.59391 9.81249 8.59391 9.38541C8.59391 8.95833 8.94808 8.60416 9.37516 8.60416H12.5002C12.9272 8.60416 13.2814 8.95833 13.2814 9.38541C13.2814 9.81249 12.9272 10.1667 12.5002 10.1667Z" fill="#1B1A18"/>
<path d="M18.7603 3.64583C19.4478 3.64583 20.104 3.92708 20.5832 4.39583C21.0832 4.90624 21.354 5.56249 21.354 6.24999V8.77083C21.354 9.54166 21.0103 9.89583 20.229 9.89583H18.229V4.17708C18.229 3.88541 18.4686 3.64583 18.7603 3.64583ZM18.7603 2.08333C17.604 2.08333 16.6665 3.02083 16.6665 4.17708V11.4583H20.229C21.8748 11.4583 22.9165 10.4167 22.9165 8.77083V6.24999C22.9165 5.10416 22.4478 4.06249 21.6978 3.30208C20.9373 2.55208 19.9061 2.09374 18.7603 2.08333Z" fill="#1B1A18"/>
</svg>
