<svg width="25" height="25" viewBox="0 0 25 25" fill="none" xmlns="http://www.w3.org/2000/svg">
<path d="M19.2808 8.59456C19.8016 8.59456 20.2183 8.17789 20.2183 7.65706V2.81331C20.2183 2.29248 19.8016 1.87581 19.2808 1.87581C18.7599 1.87581 18.3433 2.29248 18.3433 2.81331V7.65706C18.3433 8.16748 18.7703 8.59456 19.2808 8.59456Z" fill="#1B1A18"/>
<path d="M12.4995 16.4062C11.9787 16.4062 11.562 16.8229 11.562 17.3437V22.1875C11.562 22.7083 11.9787 23.125 12.4995 23.125C13.0203 23.125 13.437 22.7083 13.437 22.1875V17.3437C13.437 16.8333 13.0203 16.4062 12.4995 16.4062Z" fill="#1B1A18"/>
<path d="M5.71875 8.59456C6.23958 8.59456 6.65625 8.17789 6.65625 7.65706V2.81331C6.65625 2.29248 6.23958 1.87581 5.71875 1.87581C5.19792 1.87581 4.78125 2.29248 4.78125 2.81331V7.65706C4.78125 8.16748 5.19792 8.59456 5.71875 8.59456Z" fill="#1B1A18"/>
<path d="M7.65674 10.5957H3.78174C3.26091 10.5957 2.84424 11.0124 2.84424 11.5332C2.84424 12.0541 3.26091 12.4707 3.78174 12.4707H4.78174V22.1895C4.78174 22.7103 5.1984 23.127 5.71924 23.127C6.24007 23.127 6.65674 22.7103 6.65674 22.1895V12.4707H7.65674C8.17757 12.4707 8.59424 12.0541 8.59424 11.5332C8.59424 11.0124 8.16715 10.5957 7.65674 10.5957Z" fill="#1B1A18"/>
<path d="M21.2188 10.5957H17.3437C16.8229 10.5957 16.4062 11.0124 16.4062 11.5332C16.4062 12.0541 16.8229 12.4707 17.3437 12.4707H18.3438V22.1895C18.3438 22.7103 18.7604 23.127 19.2813 23.127C19.8021 23.127 20.2187 22.7103 20.2187 22.1895V12.4707H21.2188C21.7396 12.4707 22.1563 12.0541 22.1563 11.5332C22.1563 11.0124 21.7396 10.5957 21.2188 10.5957Z" fill="#1B1A18"/>
<path d="M14.4375 12.5321H13.4375V2.81331C13.4375 2.29248 13.0208 1.87581 12.5 1.87581C11.9791 1.87581 11.5625 2.29248 11.5625 2.81331V12.5321H10.5625C10.0417 12.5321 9.625 12.9487 9.625 13.4696C9.625 13.9904 10.0417 14.4071 10.5625 14.4071H14.4375C14.9583 14.4071 15.375 13.9904 15.375 13.4696C15.375 12.9487 14.9583 12.5321 14.4375 12.5321Z" fill="#1B1A18"/>
</svg>
