<svg width="25" height="25" viewBox="0 0 25 25" fill="none" xmlns="http://www.w3.org/2000/svg">
<path d="M16.8647 2.08334H8.13558C4.34391 2.08334 2.0835 4.34376 2.0835 8.13543V16.8542C2.0835 20.6563 4.34391 22.9167 8.13558 22.9167H16.8543C20.646 22.9167 22.9064 20.6563 22.9064 16.8646V8.13543C22.9168 4.34376 20.6564 2.08334 16.8647 2.08334ZM17.5835 14.9271C17.5835 15.0208 17.5627 15.1146 17.5314 15.2083C17.4585 15.3854 17.3127 15.5313 17.1356 15.6042C17.0418 15.6458 16.9481 15.6563 16.8543 15.6563H14.9168C14.5106 15.6563 14.1877 15.3333 14.1877 14.9271C14.1877 14.5208 14.5106 14.1979 14.9168 14.1979H15.1043L12.9064 12L11.8439 13.5833C11.7189 13.7604 11.5314 13.8854 11.3127 13.9063C11.0939 13.9271 10.8856 13.8542 10.7293 13.6979L7.62516 10.5938C7.34391 10.3125 7.34391 9.85418 7.62516 9.56251C7.90641 9.27084 8.36475 9.28126 8.65641 9.56251L11.1356 12.0417L12.1981 10.4583C12.3231 10.2813 12.5106 10.1563 12.7293 10.1354C12.9585 10.1146 13.1564 10.1875 13.3127 10.3438L16.146 13.1771V12.9896C16.146 12.5833 16.4689 12.2604 16.8752 12.2604C17.2814 12.2604 17.6043 12.5833 17.6043 12.9896V14.9271H17.5835Z" fill="#1B1A18"/>
</svg>
