<svg width="25" height="25" viewBox="0 0 25 25" fill="none" xmlns="http://www.w3.org/2000/svg">
<path d="M17.4481 3.70831V2.08331C17.4481 1.65623 17.0939 1.30206 16.6668 1.30206C16.2397 1.30206 15.8856 1.65623 15.8856 2.08331V3.64581H9.11478V2.08331C9.11478 1.65623 8.76061 1.30206 8.33353 1.30206C7.90645 1.30206 7.55228 1.65623 7.55228 2.08331V3.70831C4.73978 3.96873 3.3752 5.64581 3.16686 8.1354C3.14603 8.43748 3.39603 8.68748 3.6877 8.68748H21.3127C21.6147 8.68748 21.8647 8.42706 21.8335 8.1354C21.6252 5.64581 20.2606 3.96873 17.4481 3.70831Z" fill="#FDFDFD"/>
<path d="M20.8333 10.2498H4.16667C3.59375 10.2498 3.125 10.7185 3.125 11.2914V17.7081C3.125 20.8331 4.6875 22.9164 8.33333 22.9164H16.6667C20.3125 22.9164 21.875 20.8331 21.875 17.7081V11.2914C21.875 10.7185 21.4062 10.2498 20.8333 10.2498ZM9.59375 18.9685C9.54167 19.0102 9.48958 19.0623 9.4375 19.0935C9.375 19.1352 9.3125 19.1664 9.25 19.1873C9.1875 19.2185 9.125 19.2394 9.0625 19.2498C8.98958 19.2602 8.92708 19.2706 8.85417 19.2706C8.71875 19.2706 8.58333 19.2394 8.45833 19.1873C8.32292 19.1352 8.21875 19.0623 8.11458 18.9685C7.92708 18.7706 7.8125 18.4998 7.8125 18.2289C7.8125 17.9581 7.92708 17.6873 8.11458 17.4894C8.21875 17.3956 8.32292 17.3227 8.45833 17.2706C8.64583 17.1873 8.85417 17.1664 9.0625 17.2081C9.125 17.2185 9.1875 17.2394 9.25 17.2706C9.3125 17.2914 9.375 17.3227 9.4375 17.3644C9.48958 17.406 9.54167 17.4477 9.59375 17.4894C9.78125 17.6873 9.89583 17.9581 9.89583 18.2289C9.89583 18.4998 9.78125 18.7706 9.59375 18.9685ZM9.59375 15.3227C9.39583 15.5102 9.125 15.6248 8.85417 15.6248C8.58333 15.6248 8.3125 15.5102 8.11458 15.3227C7.92708 15.1248 7.8125 14.8539 7.8125 14.5831C7.8125 14.3123 7.92708 14.0414 8.11458 13.8435C8.40625 13.5519 8.86458 13.4581 9.25 13.6248C9.38542 13.6769 9.5 13.7498 9.59375 13.8435C9.78125 14.0414 9.89583 14.3123 9.89583 14.5831C9.89583 14.8539 9.78125 15.1248 9.59375 15.3227ZM13.2396 18.9685C13.0417 19.156 12.7708 19.2706 12.5 19.2706C12.2292 19.2706 11.9583 19.156 11.7604 18.9685C11.5729 18.7706 11.4583 18.4998 11.4583 18.2289C11.4583 17.9581 11.5729 17.6873 11.7604 17.4894C12.1458 17.1039 12.8542 17.1039 13.2396 17.4894C13.4271 17.6873 13.5417 17.9581 13.5417 18.2289C13.5417 18.4998 13.4271 18.7706 13.2396 18.9685ZM13.2396 15.3227C13.1875 15.3644 13.1354 15.406 13.0833 15.4477C13.0208 15.4894 12.9583 15.5206 12.8958 15.5414C12.8333 15.5727 12.7708 15.5935 12.7083 15.6039C12.6354 15.6144 12.5729 15.6248 12.5 15.6248C12.2292 15.6248 11.9583 15.5102 11.7604 15.3227C11.5729 15.1248 11.4583 14.8539 11.4583 14.5831C11.4583 14.3123 11.5729 14.0414 11.7604 13.8435C11.8542 13.7498 11.9688 13.6769 12.1042 13.6248C12.4896 13.4581 12.9479 13.5519 13.2396 13.8435C13.4271 14.0414 13.5417 14.3123 13.5417 14.5831C13.5417 14.8539 13.4271 15.1248 13.2396 15.3227ZM16.8854 18.9685C16.6875 19.156 16.4167 19.2706 16.1458 19.2706C15.875 19.2706 15.6042 19.156 15.4062 18.9685C15.2187 18.7706 15.1042 18.4998 15.1042 18.2289C15.1042 17.9581 15.2187 17.6873 15.4062 17.4894C15.7917 17.1039 16.5 17.1039 16.8854 17.4894C17.0729 17.6873 17.1875 17.9581 17.1875 18.2289C17.1875 18.4998 17.0729 18.7706 16.8854 18.9685ZM16.8854 15.3227C16.8333 15.3644 16.7812 15.406 16.7292 15.4477C16.6667 15.4894 16.6042 15.5206 16.5417 15.5414C16.4792 15.5727 16.4167 15.5935 16.3542 15.6039C16.2812 15.6144 16.2083 15.6248 16.1458 15.6248C15.875 15.6248 15.6042 15.5102 15.4062 15.3227C15.2187 15.1248 15.1042 14.8539 15.1042 14.5831C15.1042 14.3123 15.2187 14.0414 15.4062 13.8435C15.5104 13.7498 15.6146 13.6769 15.75 13.6248C15.9375 13.5414 16.1458 13.5206 16.3542 13.5623C16.4167 13.5727 16.4792 13.5935 16.5417 13.6248C16.6042 13.6456 16.6667 13.6769 16.7292 13.7185C16.7812 13.7602 16.8333 13.8019 16.8854 13.8435C17.0729 14.0414 17.1875 14.3123 17.1875 14.5831C17.1875 14.8539 17.0729 15.1248 16.8854 15.3227Z" fill="#FDFDFD"/>
</svg>
