<svg width="25" height="25" viewBox="0 0 25 25" fill="none" xmlns="http://www.w3.org/2000/svg">
<path d="M20.9375 9.60567C19.0521 9.60567 18.2812 8.27233 19.2187 6.63692C19.7604 5.689 19.4375 4.48067 18.4896 3.939L16.6875 2.90775C15.8646 2.41817 14.8021 2.70983 14.3125 3.53275L14.1979 3.73067C13.2604 5.36608 11.7187 5.36608 10.7708 3.73067L10.6562 3.53275C10.1875 2.70983 9.12498 2.41817 8.30206 2.90775L6.49998 3.939C5.55206 4.48067 5.22915 5.69942 5.77081 6.64733C6.71873 8.27233 5.9479 9.60567 4.06248 9.60567C2.97915 9.60567 2.08331 10.4911 2.08331 11.5848V13.4182C2.08331 14.5015 2.96873 15.3973 4.06248 15.3973C5.9479 15.3973 6.71873 16.7307 5.77081 18.3661C5.22915 19.314 5.55206 20.5223 6.49998 21.064L8.30206 22.0952C9.12498 22.5848 10.1875 22.2932 10.6771 21.4703L10.7916 21.2723C11.7291 19.6369 13.2708 19.6369 14.2187 21.2723L14.3333 21.4703C14.8229 22.2932 15.8854 22.5848 16.7083 22.0952L18.5104 21.064C19.4583 20.5223 19.7812 19.3036 19.2396 18.3661C18.2916 16.7307 19.0625 15.3973 20.9479 15.3973C22.0312 15.3973 22.9271 14.5119 22.9271 13.4182V11.5848C22.9166 10.5015 22.0312 9.60567 20.9375 9.60567ZM12.5 15.8869C10.6354 15.8869 9.11456 14.3661 9.11456 12.5015C9.11456 10.6369 10.6354 9.11608 12.5 9.11608C14.3646 9.11608 15.8854 10.6369 15.8854 12.5015C15.8854 14.3661 14.3646 15.8869 12.5 15.8869Z" fill="#FDFDFD"/>
</svg>
