<svg width="25" height="25" viewBox="0 0 25 25" fill="none" xmlns="http://www.w3.org/2000/svg">
<path d="M21.3543 16.6667V19.2708C21.3543 21.2812 19.7189 22.9167 17.7085 22.9167H7.29183C5.28141 22.9167 3.646 21.2812 3.646 19.2708V18.5938C3.646 16.9583 4.97933 15.625 6.61475 15.625H20.3127C20.8856 15.625 21.3543 16.0937 21.3543 16.6667Z" fill="#1B1A18"/>
<path d="M16.146 2.08333H8.85433C4.68766 2.08333 3.646 3.12499 3.646 7.29166V15.1875C4.43766 14.4896 5.47933 14.0625 6.61475 14.0625H20.3127C20.8856 14.0625 21.3543 13.5937 21.3543 13.0208V7.29166C21.3543 3.12499 20.3127 2.08333 16.146 2.08333ZM13.5418 11.1979H8.3335C7.90641 11.1979 7.55225 10.8437 7.55225 10.4167C7.55225 9.98958 7.90641 9.63541 8.3335 9.63541H13.5418C13.9689 9.63541 14.3231 9.98958 14.3231 10.4167C14.3231 10.8437 13.9689 11.1979 13.5418 11.1979ZM16.6668 7.55208H8.3335C7.90641 7.55208 7.55225 7.19791 7.55225 6.77083C7.55225 6.34374 7.90641 5.98958 8.3335 5.98958H16.6668C17.0939 5.98958 17.4481 6.34374 17.4481 6.77083C17.4481 7.19791 17.0939 7.55208 16.6668 7.55208Z" fill="#1B1A18"/>
</svg>
