<svg width="25" height="25" viewBox="0 0 25 25" fill="none" xmlns="http://www.w3.org/2000/svg">
<path d="M10.4167 22.9167H14.5833C19.7917 22.9167 21.875 20.8333 21.875 15.625V9.37499C21.875 4.16666 19.7917 2.08333 14.5833 2.08333H10.4167C5.20833 2.08333 3.125 4.16666 3.125 9.37499V15.625C3.125 20.8333 5.20833 22.9167 10.4167 22.9167Z" stroke="#1B1A18" stroke-width="1.5" stroke-linecap="round" stroke-linejoin="round"/>
<path d="M17.1875 7.8958V8.93746C17.1875 9.79163 16.4896 10.5 15.625 10.5H9.375C8.52083 10.5 7.8125 9.80205 7.8125 8.93746V7.8958C7.8125 7.04163 8.51042 6.3333 9.375 6.3333H15.625C16.4896 6.3333 17.1875 7.03121 17.1875 7.8958Z" stroke="#1B1A18" stroke-width="1.5" stroke-linecap="round" stroke-linejoin="round"/>
<path d="M8.4751 14.5833H8.48713" stroke="#1B1A18" stroke-width="1.5" stroke-linecap="round" stroke-linejoin="round"/>
<path d="M12.4951 14.5833H12.5072" stroke="#1B1A18" stroke-width="1.5" stroke-linecap="round" stroke-linejoin="round"/>
<path d="M16.5151 14.5833H16.5271" stroke="#1B1A18" stroke-width="1.5" stroke-linecap="round" stroke-linejoin="round"/>
<path d="M8.4751 18.2292H8.48713" stroke="#1B1A18" stroke-width="1.5" stroke-linecap="round" stroke-linejoin="round"/>
<path d="M12.4951 18.2292H12.5072" stroke="#1B1A18" stroke-width="1.5" stroke-linecap="round" stroke-linejoin="round"/>
<path d="M16.5151 18.2292H16.5271" stroke="#1B1A18" stroke-width="1.5" stroke-linecap="round" stroke-linejoin="round"/>
</svg>
