<svg width="25" height="25" viewBox="0 0 25 25" fill="none" xmlns="http://www.w3.org/2000/svg">
<path d="M16.6667 2.08333H8.33333C5.45833 2.08333 3.125 4.41666 3.125 7.29166V17.7083C3.125 20.5833 5.45833 22.9167 8.33333 22.9167H16.6667C19.5417 22.9167 21.875 20.5833 21.875 17.7083V7.29166C21.875 4.41666 19.5417 2.08333 16.6667 2.08333ZM9.22917 19.4062C9.03125 19.6042 8.77083 19.7083 8.5 19.7083C8.21875 19.7083 7.95833 19.6042 7.76042 19.4062C7.5625 19.2083 7.44792 18.9479 7.44792 18.6667C7.44792 18.3958 7.5625 18.125 7.76042 17.9271C7.85417 17.8333 7.96875 17.7604 8.09375 17.7083C8.35417 17.6042 8.63542 17.6042 8.89583 17.7083C8.95833 17.7292 9.02083 17.7604 9.07292 17.8021C9.13542 17.8333 9.1875 17.8854 9.22917 17.9271C9.42708 18.125 9.54167 18.3958 9.54167 18.6667C9.54167 18.9479 9.42708 19.2083 9.22917 19.4062ZM7.44792 14.5C7.44792 14.3646 7.47917 14.2292 7.53125 14.1042C7.58333 13.9687 7.65625 13.8646 7.76042 13.7604C8 13.5208 8.36458 13.4062 8.69792 13.4792C8.76042 13.4896 8.83333 13.5104 8.89583 13.5417C8.95833 13.5625 9.02083 13.5937 9.07292 13.6354C9.13542 13.6667 9.1875 13.7187 9.22917 13.7604C9.32292 13.8646 9.40625 13.9687 9.45833 14.1042C9.51042 14.2292 9.53125 14.3646 9.53125 14.5C9.53125 14.7812 9.42708 15.0417 9.22917 15.2396C9.03125 15.4375 8.77083 15.5417 8.5 15.5417C8.35417 15.5417 8.21875 15.5104 8.09375 15.4583C7.96875 15.4062 7.85417 15.3333 7.76042 15.2396C7.5625 15.0417 7.44792 14.7812 7.44792 14.5ZM13.3958 19.4062C13.3021 19.5 13.1875 19.5729 13.0625 19.625C12.9375 19.6771 12.8021 19.7083 12.6562 19.7083C12.3854 19.7083 12.125 19.6042 11.9271 19.4062C11.7292 19.2083 11.6146 18.9479 11.6146 18.6667C11.6146 18.5937 11.625 18.5312 11.6354 18.4583C11.6562 18.3958 11.6771 18.3333 11.6979 18.2708C11.7292 18.2083 11.7604 18.1458 11.7917 18.0833C11.8333 18.0312 11.875 17.9792 11.9271 17.9271C12.0208 17.8333 12.1354 17.7604 12.2604 17.7083C12.6458 17.5521 13.1042 17.6354 13.3958 17.9271C13.5937 18.125 13.6979 18.3958 13.6979 18.6667C13.6979 18.9479 13.5937 19.2083 13.3958 19.4062ZM13.3958 15.2396C13.1979 15.4375 12.9375 15.5417 12.6562 15.5417C12.3854 15.5417 12.125 15.4375 11.9271 15.2396C11.7292 15.0417 11.6146 14.7812 11.6146 14.5C11.6146 14.2292 11.7292 13.9583 11.9271 13.7604C12.3125 13.375 13.0104 13.375 13.3958 13.7604C13.4896 13.8646 13.5729 13.9687 13.625 14.1042C13.6771 14.2292 13.6979 14.3646 13.6979 14.5C13.6979 14.7812 13.5937 15.0417 13.3958 15.2396ZM9.375 10.8958C8.30208 10.8958 7.41667 10.0208 7.41667 8.93749V7.89583C7.41667 6.82291 8.29167 5.93749 9.375 5.93749H15.625C16.6979 5.93749 17.5833 6.81249 17.5833 7.89583V8.93749C17.5833 10.0104 16.7083 10.8958 15.625 10.8958H9.375ZM17.5625 19.4062C17.3646 19.6042 17.1042 19.7083 16.8229 19.7083C16.6875 19.7083 16.5521 19.6771 16.4271 19.625C16.3021 19.5729 16.1875 19.5 16.0937 19.4062C15.8958 19.2083 15.7917 18.9479 15.7917 18.6667C15.7917 18.3958 15.8958 18.125 16.0937 17.9271C16.375 17.6354 16.8438 17.5521 17.2292 17.7083C17.3542 17.7604 17.4688 17.8333 17.5625 17.9271C17.7604 18.125 17.8646 18.3958 17.8646 18.6667C17.8646 18.9479 17.7604 19.2083 17.5625 19.4062ZM17.7917 14.8958C17.7396 15.0208 17.6667 15.1354 17.5625 15.2396C17.3646 15.4375 17.1042 15.5417 16.8229 15.5417C16.5521 15.5417 16.2917 15.4375 16.0937 15.2396C15.8958 15.0417 15.7812 14.7812 15.7812 14.5C15.7812 14.2292 15.8958 13.9583 16.0937 13.7604C16.4792 13.375 17.1771 13.375 17.5625 13.7604C17.7604 13.9583 17.875 14.2292 17.875 14.5C17.875 14.6354 17.8437 14.7708 17.7917 14.8958Z" fill="#1B1A18"/>
</svg>
