<svg width="25" height="25" viewBox="0 0 25 25" fill="none" xmlns="http://www.w3.org/2000/svg">
<path d="M15.625 13.5417H9.375" stroke="#1B1A18" stroke-width="1.5" stroke-linecap="round"/>
<path d="M12.5 10.4167V16.6667" stroke="#1B1A18" stroke-width="1.5" stroke-linecap="round"/>
<path d="M10.1853 21.875H14.815C18.0661 21.875 19.6916 21.875 20.8593 21.109C21.3647 20.7773 21.7988 20.3511 22.1366 19.8549C22.9168 18.7084 22.9168 17.1124 22.9168 13.9204C22.9168 10.7285 22.9168 9.13251 22.1366 7.98604C21.7988 7.48973 21.3647 7.06358 20.8593 6.73196C20.1089 6.23972 19.1696 6.06378 17.7314 6.0009C17.0451 6.0009 16.4542 5.49029 16.3196 4.82954C16.1177 3.83843 15.2313 3.125 14.2019 3.125H10.7984C9.76896 3.125 8.88261 3.83843 8.68071 4.82954C8.54612 5.49029 7.95521 6.0009 7.26891 6.0009C5.83071 6.06378 4.89136 6.23972 4.14104 6.73196C3.63553 7.06358 3.2015 7.48973 2.86373 7.98604C2.0835 9.13251 2.0835 10.7285 2.0835 13.9204C2.0835 17.1124 2.0835 18.7084 2.86373 19.8549C3.2015 20.3511 3.63553 20.7773 4.14104 21.109C5.30875 21.875 6.93428 21.875 10.1853 21.875Z" stroke="#1B1A18" stroke-width="1.5"/>
<path d="M19.7917 10.4167H18.75" stroke="#1B1A18" stroke-width="1.5" stroke-linecap="round"/>
</svg>
