<svg width="25" height="25" viewBox="0 0 25 25" fill="none" xmlns="http://www.w3.org/2000/svg">
<path fill-rule="evenodd" clip-rule="evenodd" d="M12.4998 10.6771C12.9313 10.6771 13.2811 11.0269 13.2811 11.4583V12.7604H14.5832C15.0146 12.7604 15.3644 13.1102 15.3644 13.5417C15.3644 13.9731 15.0146 14.3229 14.5832 14.3229H13.2811V15.625C13.2811 16.0565 12.9313 16.4063 12.4998 16.4063C12.0684 16.4063 11.7186 16.0565 11.7186 15.625V14.3229H10.4165C9.98504 14.3229 9.63525 13.9731 9.63525 13.5417C9.63525 13.1102 9.98504 12.7604 10.4165 12.7604H11.7186V11.4583C11.7186 11.0269 12.0684 10.6771 12.4998 10.6771Z" fill="#1B1A18"/>
<path fill-rule="evenodd" clip-rule="evenodd" d="M10.1853 21.875H14.815C18.0661 21.875 19.6916 21.875 20.8593 21.109C21.3647 20.7773 21.7988 20.3511 22.1366 19.8549C22.9168 18.7084 22.9168 17.1124 22.9168 13.9204C22.9168 10.7285 22.9168 9.13251 22.1366 7.98604C21.7988 7.48973 21.3647 7.06358 20.8593 6.73196C20.1089 6.23972 19.1696 6.06378 17.7314 6.0009C17.0451 6.0009 16.4542 5.49029 16.3196 4.82954C16.1177 3.83843 15.2313 3.125 14.2019 3.125H10.7984C9.76896 3.125 8.88261 3.83843 8.68071 4.82954C8.54612 5.49029 7.95521 6.0009 7.26891 6.0009C5.83071 6.06378 4.89136 6.23972 4.14104 6.73196C3.63553 7.06358 3.2015 7.48973 2.86373 7.98604C2.0835 9.13251 2.0835 10.7285 2.0835 13.9204C2.0835 17.1124 2.0835 18.7084 2.86373 19.8549C3.2015 20.3511 3.63553 20.7773 4.14104 21.109C5.30875 21.875 6.93428 21.875 10.1853 21.875ZM16.6668 13.5417C16.6668 15.8428 14.8013 17.7083 12.5002 17.7083C10.199 17.7083 8.3335 15.8428 8.3335 13.5417C8.3335 11.2405 10.199 9.375 12.5002 9.375C14.8013 9.375 16.6668 11.2405 16.6668 13.5417ZM18.7502 9.63542C18.3187 9.63542 17.9689 9.9852 17.9689 10.4167C17.9689 10.8481 18.3187 11.1979 18.7502 11.1979H19.7918C20.2233 11.1979 20.5731 10.8481 20.5731 10.4167C20.5731 9.9852 20.2233 9.63542 19.7918 9.63542H18.7502Z" fill="#1B1A18"/>
</svg>
