<svg width="25" height="25" viewBox="0 0 25 25" fill="none" xmlns="http://www.w3.org/2000/svg">
<path d="M21.875 23.6979H3.125C2.69792 23.6979 2.34375 23.3437 2.34375 22.9167C2.34375 22.4896 2.69792 22.1354 3.125 22.1354H21.875C22.3021 22.1354 22.6562 22.4896 22.6562 22.9167C22.6562 23.3437 22.3021 23.6979 21.875 23.6979Z" fill="#1B1A18"/>
<path d="M5.83333 8.72803H4.16667C3.59375 8.72803 3.125 9.19678 3.125 9.76969V18.7488C3.125 19.3218 3.59375 19.7905 4.16667 19.7905H5.83333C6.40625 19.7905 6.875 19.3218 6.875 18.7488V9.76969C6.875 9.18636 6.40625 8.72803 5.83333 8.72803Z" fill="#1B1A18"/>
<path d="M13.3324 5.40771H11.6657C11.0928 5.40771 10.624 5.87646 10.624 6.44938V18.7515C10.624 19.3244 11.0928 19.7931 11.6657 19.7931H13.3324C13.9053 19.7931 14.374 19.3244 14.374 18.7515V6.44938C14.374 5.87646 13.9053 5.40771 13.3324 5.40771Z" fill="#1B1A18"/>
<path d="M20.8338 2.08334H19.1672C18.5942 2.08334 18.1255 2.55209 18.1255 3.12501V18.75C18.1255 19.3229 18.5942 19.7917 19.1672 19.7917H20.8338C21.4067 19.7917 21.8755 19.3229 21.8755 18.75V3.12501C21.8755 2.55209 21.4067 2.08334 20.8338 2.08334Z" fill="#1B1A18"/>
</svg>
