<svg width="25" height="25" viewBox="0 0 25 25" fill="none" xmlns="http://www.w3.org/2000/svg">
<path d="M22.9168 22.9167H2.0835C1.65641 22.9167 1.30225 22.5625 1.30225 22.1354C1.30225 21.7083 1.65641 21.3542 2.0835 21.3542H22.9168C23.3439 21.3542 23.6981 21.7083 23.6981 22.1354C23.6981 22.5625 23.3439 22.9167 22.9168 22.9167Z" fill="#1B1A18"/>
<path d="M10.1562 4.16668V22.9167H14.8438V4.16668C14.8438 3.02084 14.375 2.08334 12.9687 2.08334H12.0313C10.625 2.08334 10.1562 3.02084 10.1562 4.16668Z" fill="#1B1A18"/>
<path d="M3.125 10.4167V22.9167H7.29167V10.4167C7.29167 9.27084 6.875 8.33334 5.625 8.33334H4.79167C3.54167 8.33334 3.125 9.27084 3.125 10.4167Z" fill="#1B1A18"/>
<path d="M17.7085 15.625V22.9167H21.8752V15.625C21.8752 14.4792 21.4585 13.5417 20.2085 13.5417H19.3752C18.1252 13.5417 17.7085 14.4792 17.7085 15.625Z" fill="#1B1A18"/>
</svg>
