<svg width="25" height="25" viewBox="0 0 25 25" fill="none" xmlns="http://www.w3.org/2000/svg">
<path fill-rule="evenodd" clip-rule="evenodd" d="M20.0074 6.46561C20.1971 6.26915 20.3021 6.00602 20.2998 5.7329C20.2974 5.45978 20.1878 5.19852 19.9947 5.00538C19.8016 4.81225 19.5403 4.7027 19.2672 4.70033C18.9941 4.69795 18.7309 4.80295 18.5345 4.9927L12.5001 11.0271L6.46573 4.9927C6.26927 4.80295 6.00614 4.69795 5.73302 4.70033C5.4599 4.7027 5.19864 4.81225 5.0055 5.00538C4.81237 5.19852 4.70282 5.45978 4.70044 5.7329C4.69807 6.00602 4.80307 6.26915 4.99281 6.46561L11.0272 12.5L4.99281 18.5344C4.89332 18.6305 4.81397 18.7454 4.75937 18.8725C4.70478 18.9996 4.67605 19.1363 4.67484 19.2746C4.67364 19.4129 4.7 19.55 4.75237 19.6781C4.80475 19.8061 4.8821 19.9224 4.9799 20.0202C5.07771 20.118 5.19401 20.1953 5.32203 20.2477C5.45004 20.3001 5.58721 20.3264 5.72552 20.3252C5.86383 20.324 6.00052 20.2953 6.12761 20.2407C6.2547 20.1861 6.36964 20.1068 6.46573 20.0073L12.5001 13.9729L18.5345 20.0073C18.7309 20.197 18.9941 20.302 19.2672 20.2996C19.5403 20.2973 19.8016 20.1877 19.9947 19.9946C20.1878 19.8015 20.2974 19.5402 20.2998 19.2671C20.3021 18.9939 20.1971 18.7308 20.0074 18.5344L13.973 12.5L20.0074 6.46561Z" fill="#1B1A18"/>
</svg>
