<svg width="25" height="25" viewBox="0 0 25 25" fill="none" xmlns="http://www.w3.org/2000/svg">
<path d="M16.6668 13.4375V17.8125C16.6668 21.4583 15.2085 22.9167 11.5627 22.9167H7.18766C3.54183 22.9167 2.0835 21.4583 2.0835 17.8125V13.4375C2.0835 9.79166 3.54183 8.33333 7.18766 8.33333H11.5627C15.2085 8.33333 16.6668 9.79166 16.6668 13.4375Z" stroke="#1B1A18" stroke-width="1.5" stroke-linecap="round" stroke-linejoin="round"/>
<path d="M22.9168 7.18749V11.5625C22.9168 15.2083 21.4585 16.6667 17.8127 16.6667H16.6668V13.4375C16.6668 9.79166 15.2085 8.33333 11.5627 8.33333H8.3335V7.18749C8.3335 3.54166 9.79183 2.08333 13.4377 2.08333H17.8127C21.4585 2.08333 22.9168 3.54166 22.9168 7.18749Z" stroke="#1B1A18" stroke-width="1.5" stroke-linecap="round" stroke-linejoin="round"/>
</svg>
