<svg width="25" height="25" viewBox="0 0 25 25" fill="none" xmlns="http://www.w3.org/2000/svg">
<path d="M22.9168 11.5625V7.18751C22.9168 3.54168 21.4585 2.08334 17.8127 2.08334H13.4377C9.79183 2.08334 8.3335 3.54168 8.3335 7.18751V8.33334H11.5627C15.2085 8.33334 16.6668 9.79168 16.6668 13.4375V16.6667H17.8127C21.4585 16.6667 22.9168 15.2083 22.9168 11.5625Z" stroke="#1B1A18" stroke-width="1.5" stroke-linecap="round" stroke-linejoin="round"/>
<path d="M16.6668 17.8125V13.4375C16.6668 9.79168 15.2085 8.33334 11.5627 8.33334H7.18766C3.54183 8.33334 2.0835 9.79168 2.0835 13.4375V17.8125C2.0835 21.4583 3.54183 22.9167 7.18766 22.9167H11.5627C15.2085 22.9167 16.6668 21.4583 16.6668 17.8125Z" stroke="#1B1A18" stroke-width="1.5" stroke-linecap="round" stroke-linejoin="round"/>
<path d="M6.3335 15.625L8.36475 17.6563L12.4169 13.5938" stroke="#1B1A18" stroke-width="1.5" stroke-linecap="round" stroke-linejoin="round"/>
</svg>
