<svg width="25" height="25" viewBox="0 0 25 25" fill="none" xmlns="http://www.w3.org/2000/svg">
<path d="M16.6668 13.4375V17.8125C16.6668 21.4583 15.2085 22.9167 11.5627 22.9167H7.18766C3.54183 22.9167 2.0835 21.4583 2.0835 17.8125V13.4375C2.0835 9.79168 3.54183 8.33334 7.18766 8.33334H11.5627C15.2085 8.33334 16.6668 9.79168 16.6668 13.4375Z" fill="#1B1A18"/>
<path d="M17.8125 2.08333H13.4375C10.2259 2.08333 8.71974 3.22301 8.40596 5.97813C8.34031 6.55453 8.81767 7.03124 9.39779 7.03124H11.5625C15.9375 7.03124 17.9688 9.06249 17.9688 13.4375V15.6022C17.9688 16.1823 18.4454 16.6597 19.0219 16.5941C21.777 16.2802 22.9167 14.7741 22.9167 11.5625V7.18749C22.9167 3.54166 21.4583 2.08333 17.8125 2.08333Z" fill="#1B1A18"/>
</svg>
