<svg width="25" height="25" viewBox="0 0 25 25" fill="none" xmlns="http://www.w3.org/2000/svg">
<path d="M22.6671 16.5833L16.0004 4.58333C15.1046 2.96875 13.865 2.08333 12.5004 2.08333C11.1359 2.08333 9.89624 2.96875 9.0004 4.58333L2.33374 16.5833C1.48999 18.1146 1.39624 19.5833 2.07332 20.7396C2.7504 21.8958 4.08374 22.5312 5.83374 22.5312H19.1671C20.9171 22.5312 22.2504 21.8958 22.9275 20.7396C23.6046 19.5833 23.5109 18.1042 22.6671 16.5833ZM11.7192 9.37499C11.7192 8.94791 12.0734 8.59374 12.5004 8.59374C12.9275 8.59374 13.2817 8.94791 13.2817 9.37499V14.5833C13.2817 15.0104 12.9275 15.3646 12.5004 15.3646C12.0734 15.3646 11.7192 15.0104 11.7192 14.5833V9.37499ZM13.24 18.4479C13.1879 18.4896 13.1359 18.5312 13.0838 18.5729C13.0213 18.6146 12.9588 18.6458 12.8963 18.6667C12.8338 18.6979 12.7713 18.7187 12.6984 18.7292C12.6359 18.7396 12.5629 18.75 12.5004 18.75C12.4379 18.75 12.365 18.7396 12.2921 18.7292C12.2296 18.7187 12.1671 18.6979 12.1046 18.6667C12.0421 18.6458 11.9796 18.6146 11.9171 18.5729C11.865 18.5312 11.8129 18.4896 11.7609 18.4479C11.5734 18.25 11.4588 17.9792 11.4588 17.7083C11.4588 17.4375 11.5734 17.1667 11.7609 16.9687C11.8129 16.9271 11.865 16.8854 11.9171 16.8437C11.9796 16.8021 12.0421 16.7708 12.1046 16.75C12.1671 16.7187 12.2296 16.6979 12.2921 16.6875C12.4275 16.6562 12.5734 16.6562 12.6984 16.6875C12.7713 16.6979 12.8338 16.7187 12.8963 16.75C12.9588 16.7708 13.0213 16.8021 13.0838 16.8437C13.1359 16.8854 13.1879 16.9271 13.24 16.9687C13.4275 17.1667 13.5421 17.4375 13.5421 17.7083C13.5421 17.9792 13.4275 18.25 13.24 18.4479Z" fill="#1B1A18"/>
</svg>
