<svg width="25" height="25" viewBox="0 0 25 25" fill="none" xmlns="http://www.w3.org/2000/svg">
<path d="M16.2293 12.5C16.2293 14.5625 14.5626 16.2292 12.5001 16.2292C10.4376 16.2292 8.771 14.5625 8.771 12.5C8.771 10.4375 10.4376 8.77087 12.5001 8.77087C14.5626 8.77087 16.2293 10.4375 16.2293 12.5Z" stroke="#1B1A18" stroke-width="1.5" stroke-linecap="round" stroke-linejoin="round"/>
<path d="M12.4999 21.1146C16.177 21.1146 19.604 18.9479 21.9895 15.1979C22.927 13.7292 22.927 11.2604 21.9895 9.79164C19.604 6.04164 16.177 3.87497 12.4999 3.87497C8.82275 3.87497 5.39567 6.04164 3.01025 9.79164C2.07275 11.2604 2.07275 13.7292 3.01025 15.1979C5.39567 18.9479 8.82275 21.1146 12.4999 21.1146Z" stroke="#1B1A18" stroke-width="1.5" stroke-linecap="round" stroke-linejoin="round"/>
</svg>
