<svg width="25" height="25" viewBox="0 0 25 25" fill="none" xmlns="http://www.w3.org/2000/svg">
<path d="M5.62484 2.18747H19.3748C20.5206 2.18747 21.4581 3.12497 21.4581 4.2708V6.56247C21.4581 7.3958 20.9373 8.43747 20.4165 8.9583L15.9373 12.9167C15.3123 13.4375 14.8956 14.4792 14.8956 15.3125V19.7917C14.8956 20.4167 14.479 21.25 13.9581 21.5625L12.4998 22.5C11.1456 23.3333 9.27067 22.3958 9.27067 20.7292V15.2083C9.27067 14.4792 8.854 13.5417 8.43734 13.0208L4.479 8.85414C3.95817 8.3333 3.5415 7.3958 3.5415 6.7708V4.37497C3.5415 3.12497 4.479 2.18747 5.62484 2.18747Z" stroke="#1B1A18" stroke-width="1.5" stroke-miterlimit="10" stroke-linecap="round" stroke-linejoin="round"/>
<path d="M11.3854 2.18747L6.25 10.4166" stroke="#1B1A18" stroke-width="1.5" stroke-miterlimit="10" stroke-linecap="round" stroke-linejoin="round"/>
</svg>
