<svg width="25" height="25" viewBox="0 0 25 25" fill="none" xmlns="http://www.w3.org/2000/svg">
<path d="M21.4594 4.27245V6.56412C21.4594 7.39745 20.9386 8.43912 20.4178 8.95995L15.9386 12.9183C15.3136 13.4392 14.8969 14.4808 14.8969 15.3142V19.7933C14.8969 20.4183 14.4803 21.2517 13.9594 21.5642L12.5011 22.5017C11.1469 23.335 9.27189 22.3975 9.27189 20.7308V15.21C9.27189 14.4808 8.85523 13.5433 8.43856 13.0225L7.94898 12.5121C7.62606 12.1683 7.56356 11.6475 7.82398 11.2412L13.1574 2.6787C13.3449 2.37662 13.6782 2.18912 14.0428 2.18912H19.3761C20.5219 2.18912 21.4594 3.12662 21.4594 4.27245Z" fill="#1B1A18"/>
<path d="M10.7816 3.78287L7.08366 9.70995C6.72949 10.2829 5.91699 10.3662 5.44824 9.87662L4.47949 8.85578C3.95866 8.33495 3.54199 7.39745 3.54199 6.77245V4.37662C3.54199 3.12662 4.47949 2.18912 5.62533 2.18912H9.89616C10.7087 2.18912 11.2087 3.08495 10.7816 3.78287Z" fill="#1B1A18"/>
</svg>
