<svg width="25" height="25" viewBox="0 0 25 25" fill="none" xmlns="http://www.w3.org/2000/svg">
<path d="M20.8332 4.42709H4.16652L4.1665 4.16668C4.1665 3.18458 4.1665 2.69354 4.4716 2.38844C4.7767 2.08334 5.26774 2.08334 6.24984 2.08334H18.7498C19.7319 2.08334 20.223 2.08334 20.5281 2.38844C20.8332 2.69354 20.8332 3.18458 20.8332 4.16668V4.42709Z" fill="#1B1A18"/>
<path d="M16.8453 9.19629C16.6763 9.36519 16.5311 9.51041 16.4061 9.64037V9.63543H8.59359V9.64037C8.46858 9.51042 8.32339 9.36523 8.15452 9.19636L4.94775 5.98959H20.0519L16.8453 9.19629Z" fill="#1B1A18"/>
<path fill-rule="evenodd" clip-rule="evenodd" d="M9.37497 12.1426V19.7917C9.37497 20.7624 9.37497 21.2477 9.53355 21.6306C9.745 22.141 10.1506 22.5467 10.661 22.7581C11.0439 22.9167 11.5292 22.9167 12.5 22.9167C13.4707 22.9167 13.956 22.9167 14.3389 22.7581C14.8493 22.5467 15.255 22.141 15.4664 21.6306C15.625 21.2477 15.625 20.7624 15.625 19.7917V12.1426C15.625 11.7495 15.625 11.4472 15.6406 11.1979H9.35938C9.37497 11.4472 9.37497 11.7495 9.37497 12.1426ZM13.2812 13.5417C13.2812 13.1102 12.9314 12.7604 12.5 12.7604C12.0685 12.7604 11.7187 13.1102 11.7187 13.5417V15.625C11.7187 16.0564 12.0685 16.4062 12.5 16.4062C12.9314 16.4062 13.2812 16.0564 13.2812 15.625V13.5417Z" fill="#1B1A18"/>
</svg>
