<svg width="25" height="25" viewBox="0 0 25 25" fill="none" xmlns="http://www.w3.org/2000/svg">
<path d="M9.37484 10.4167C10.5255 10.4167 11.4582 9.48393 11.4582 8.33333C11.4582 7.18274 10.5255 6.25 9.37484 6.25C8.22424 6.25 7.2915 7.18274 7.2915 8.33333C7.2915 9.48393 8.22424 10.4167 9.37484 10.4167Z" stroke="#1B1A18" stroke-width="1.5" stroke-linecap="round" stroke-linejoin="round"/>
<path d="M13.5418 2.08334H9.37516C4.16683 2.08334 2.0835 4.16668 2.0835 9.37501V15.625C2.0835 20.8333 4.16683 22.9167 9.37516 22.9167H15.6252C20.8335 22.9167 22.9168 20.8333 22.9168 15.625V10.4167" stroke="#1B1A18" stroke-width="1.5" stroke-linecap="round" stroke-linejoin="round"/>
<path d="M16.4062 5.20834H22.1354" stroke="#1B1A18" stroke-width="1.5" stroke-linecap="round"/>
<path d="M19.271 8.07292V2.34375" stroke="#1B1A18" stroke-width="1.5" stroke-linecap="round"/>
<path d="M2.78125 19.7397L7.91667 16.2918C8.73958 15.7397 9.92708 15.8022 10.6666 16.4376L11.0104 16.7397C11.8229 17.4376 13.1354 17.4376 13.9479 16.7397L18.2812 13.0209C19.0937 12.323 20.4062 12.323 21.2187 13.0209L22.9166 14.4793" stroke="#1B1A18" stroke-width="1.5" stroke-linecap="round" stroke-linejoin="round"/>
</svg>
