<svg width="25" height="25" viewBox="0 0 25 25" fill="none" xmlns="http://www.w3.org/2000/svg">
<path d="M21.8436 1.04166H18.7811C17.8748 1.04166 17.2082 1.41666 16.9061 2.08332C16.7394 2.38541 16.6665 2.73957 16.6665 3.15624V6.21874C16.6665 7.54166 17.4582 8.33332 18.7811 8.33332H21.8436C22.2603 8.33332 22.6144 8.26041 22.9165 8.09374C23.5832 7.79166 23.9582 7.12499 23.9582 6.21874V3.15624C23.9582 1.83332 23.1665 1.04166 21.8436 1.04166ZM22.8228 5.13541C22.7186 5.23957 22.5623 5.31249 22.3957 5.32291H20.9269V5.85416L20.9373 6.77082C20.9269 6.94791 20.8644 7.09374 20.7394 7.21874C20.6353 7.32291 20.479 7.39582 20.3123 7.39582C19.9686 7.39582 19.6873 7.11457 19.6873 6.77082V5.31249L18.229 5.32291C17.8853 5.32291 17.604 5.03124 17.604 4.68749C17.604 4.34374 17.8853 4.06249 18.229 4.06249L19.1457 4.07291H19.6873V2.61457C19.6873 2.27082 19.9686 1.97916 20.3123 1.97916C20.6561 1.97916 20.9373 2.27082 20.9373 2.61457L20.9269 3.35416V4.06249H22.3957C22.7394 4.06249 23.0207 4.34374 23.0207 4.68749C23.0103 4.86457 22.9373 5.01041 22.8228 5.13541Z" fill="#1B1A18"/>
<path d="M9.37614 10.8137C10.7453 10.8137 11.8553 9.70369 11.8553 8.33448C11.8553 6.96528 10.7453 5.85532 9.37614 5.85532C8.00694 5.85532 6.89697 6.96528 6.89697 8.33448C6.89697 9.70369 8.00694 10.8137 9.37614 10.8137Z" fill="#1B1A18"/>
<path d="M21.8439 8.33334H21.3543V13.1354L21.2189 13.0208C20.4064 12.3229 19.0939 12.3229 18.2814 13.0208L13.9481 16.7396C13.1356 17.4375 11.8231 17.4375 11.0106 16.7396L10.6564 16.4479C9.91683 15.8021 8.73975 15.7396 7.90641 16.3021L4.01058 18.9167C3.78141 18.3333 3.646 17.6563 3.646 16.8646V8.13543C3.646 5.19793 5.19808 3.64584 8.13558 3.64584H16.6668V3.15626C16.6668 2.73959 16.7397 2.38543 16.9064 2.08334H8.13558C4.34391 2.08334 2.0835 4.34376 2.0835 8.13543V16.8646C2.0835 18 2.28141 18.9896 2.66683 19.8229C3.56266 21.8021 5.47933 22.9167 8.13558 22.9167H16.8647C20.6564 22.9167 22.9168 20.6563 22.9168 16.8646V8.09376C22.6147 8.26043 22.2606 8.33334 21.8439 8.33334Z" fill="#1B1A18"/>
</svg>
