<svg width="25" height="25" viewBox="0 0 25 25" fill="none" xmlns="http://www.w3.org/2000/svg">
<path fill-rule="evenodd" clip-rule="evenodd" d="M22.9168 12.5C22.9168 18.2529 18.2531 22.9167 12.5002 22.9167C6.74719 22.9167 2.0835 18.2529 2.0835 12.5C2.0835 6.74704 6.74719 2.08334 12.5002 2.08334C18.2531 2.08334 22.9168 6.74704 22.9168 12.5ZM12.5002 18.4896C12.9316 18.4896 13.2814 18.1398 13.2814 17.7083V11.4583C13.2814 11.0269 12.9316 10.6771 12.5002 10.6771C12.0687 10.6771 11.7189 11.0269 11.7189 11.4583V17.7083C11.7189 18.1398 12.0687 18.4896 12.5002 18.4896ZM12.5002 7.29168C13.0755 7.29168 13.5418 7.75805 13.5418 8.33334C13.5418 8.90864 13.0755 9.37501 12.5002 9.37501C11.9248 9.37501 11.4585 8.90864 11.4585 8.33334C11.4585 7.75805 11.9248 7.29168 12.5002 7.29168Z" fill="#1B1A18"/>
</svg>
