<svg width="25" height="25" viewBox="0 0 25 25" fill="none" xmlns="http://www.w3.org/2000/svg">
<path d="M20.6131 4.39615C17.5297 1.32323 12.5297 1.32323 9.46721 4.39615C7.31096 6.53157 6.66513 9.60448 7.49846 12.3128L2.60263 17.2086C2.25888 17.5628 2.0193 18.2607 2.09221 18.7607L2.40471 21.0316C2.5193 21.7816 3.21721 22.4899 3.96721 22.5941L6.23805 22.9066C6.73805 22.9795 7.43596 22.7503 7.79013 22.3857L8.6443 21.5316C8.85263 21.3336 8.85263 21.0003 8.6443 20.792L6.62346 18.7711C6.32138 18.4691 6.32138 17.9691 6.62346 17.667C6.92555 17.3649 7.42555 17.3649 7.72763 17.667L9.75888 19.6982C9.9568 19.8961 10.2901 19.8961 10.4881 19.6982L12.6964 17.5003C15.3943 18.3441 18.4672 17.6878 20.6131 15.5524C23.686 12.4795 23.686 7.46907 20.6131 4.39615ZM15.1027 12.5003C13.6652 12.5003 12.4985 11.3336 12.4985 9.89615C12.4985 8.45865 13.6652 7.29198 15.1027 7.29198C16.5402 7.29198 17.7068 8.45865 17.7068 9.89615C17.7068 11.3336 16.5402 12.5003 15.1027 12.5003Z" fill="#1B1A18"/>
</svg>
