<svg width="25" height="25" viewBox="0 0 25 25" fill="none" xmlns="http://www.w3.org/2000/svg">
<path d="M7.7915 19.1146L11.0207 21.6146C11.4374 22.0313 12.3749 22.2396 12.9999 22.2396H16.9582C18.2082 22.2396 19.5624 21.3021 19.8749 20.0521L22.3749 12.4479C22.8957 10.9896 21.9582 9.73955 20.3957 9.73955H16.229C15.604 9.73955 15.0832 9.21872 15.1874 8.48956L15.7082 5.15622C15.9165 4.21872 15.2915 3.17706 14.354 2.86456C13.5207 2.55206 12.479 2.96872 12.0624 3.59372L7.7915 9.94789" stroke="#1B1A18" stroke-width="1.5" stroke-miterlimit="10"/>
<path d="M2.479 19.1146V8.90628C2.479 7.44794 3.104 6.92711 4.56234 6.92711H5.604C7.06234 6.92711 7.68734 7.44794 7.68734 8.90628V19.1146C7.68734 20.5729 7.06234 21.0938 5.604 21.0938H4.56234C3.104 21.0938 2.479 20.5729 2.479 19.1146Z" stroke="#1B1A18" stroke-width="1.5" stroke-linecap="round" stroke-linejoin="round"/>
</svg>
