<svg width="25" height="25" viewBox="0 0 25 25" fill="none" xmlns="http://www.w3.org/2000/svg">
<path d="M17.5 2.08334H14.7917C11.4583 2.08334 9.375 4.16668 9.375 7.50001V11.7188H15.8854C16.3125 11.7188 16.6667 12.0729 16.6667 12.5C16.6667 12.9271 16.3125 13.2813 15.8854 13.2813H9.375V17.5C9.375 20.8333 11.4583 22.9167 14.7917 22.9167H17.4896C20.8229 22.9167 22.9062 20.8333 22.9062 17.5V7.50001C22.9167 4.16668 20.8333 2.08334 17.5 2.08334Z" fill="#1B1A18"/>
<path d="M4.75146 11.7185L6.90771 9.56233C7.06396 9.40608 7.13688 9.20816 7.13688 9.01024C7.13688 8.81233 7.06396 8.60399 6.90771 8.45816C6.60563 8.15608 6.10563 8.15608 5.80355 8.45816L2.31396 11.9477C2.01188 12.2498 2.01188 12.7498 2.31396 13.0519L5.80355 16.5415C6.10563 16.8435 6.60563 16.8435 6.90771 16.5415C7.2098 16.2394 7.2098 15.7394 6.90771 15.4373L4.75146 13.281H9.37646V11.7185H4.75146Z" fill="#1B1A18"/>
</svg>
