<svg width="25" height="25" viewBox="0 0 25 25" fill="none" xmlns="http://www.w3.org/2000/svg">
<path d="M20.1042 8.24998V13.6146C20.1042 16.8229 18.2709 18.1979 15.5209 18.1979H6.36457C5.89582 18.1979 5.44792 18.1562 5.03125 18.0625C4.77083 18.0208 4.52083 17.9479 4.29167 17.8646C2.72917 17.2812 1.78125 15.9271 1.78125 13.6146V8.24998C1.78125 5.04165 3.61457 3.66669 6.36457 3.66669H15.5209C17.8542 3.66669 19.5313 4.65626 19.9792 6.91668C20.0521 7.33334 20.1042 7.7604 20.1042 8.24998Z" stroke="#1B1A18" stroke-width="1.5" stroke-miterlimit="10" stroke-linecap="round" stroke-linejoin="round"/>
<path d="M23.2302 11.3751V16.7397C23.2302 19.948 21.3969 21.323 18.6469 21.323H9.49056C8.71973 21.323 8.02182 21.2189 7.41765 20.9897C6.17807 20.5314 5.33431 19.5834 5.03223 18.0626C5.44889 18.1563 5.89681 18.198 6.36556 18.198H15.5219C18.2719 18.198 20.1052 16.823 20.1052 13.6147V8.2501C20.1052 7.76052 20.0635 7.32306 19.9802 6.91681C21.9594 7.33348 23.2302 8.72928 23.2302 11.3751Z" stroke="#1B1A18" stroke-width="1.5" stroke-miterlimit="10" stroke-linecap="round" stroke-linejoin="round"/>
<path d="M10.936 13.6874C12.4548 13.6874 13.686 12.4561 13.686 10.9374C13.686 9.41859 12.4548 8.18735 10.936 8.18735C9.41726 8.18735 8.18604 9.41859 8.18604 10.9374C8.18604 12.4561 9.41726 13.6874 10.936 13.6874Z" stroke="#1B1A18" stroke-width="1.5" stroke-miterlimit="10" stroke-linecap="round" stroke-linejoin="round"/>
<path d="M4.979 8.64587V13.2293" stroke="#1B1A18" stroke-width="1.5" stroke-miterlimit="10" stroke-linecap="round" stroke-linejoin="round"/>
<path d="M16.8975 8.64615V13.2295" stroke="#1B1A18" stroke-width="1.5" stroke-miterlimit="10" stroke-linecap="round" stroke-linejoin="round"/>
</svg>
