<svg width="25" height="25" viewBox="0 0 25 25" fill="none" xmlns="http://www.w3.org/2000/svg">
<path d="M9.896 14.3229C9.896 15.3333 10.6772 16.1458 11.6356 16.1458H13.5939C14.4272 16.1458 15.1043 15.4375 15.1043 14.5521C15.1043 13.6042 14.6877 13.2604 14.0731 13.0417L10.9377 11.9479C10.3231 11.7292 9.90642 11.3958 9.90642 10.4375C9.90642 9.56248 10.5835 8.84373 11.4168 8.84373H13.3752C14.3335 8.84373 15.1147 9.65623 15.1147 10.6667" stroke="#1B1A18" stroke-width="1.5" stroke-linecap="round" stroke-linejoin="round"/>
<path d="M12.5 7.8125V17.1875" stroke="#1B1A18" stroke-width="1.5" stroke-linecap="round" stroke-linejoin="round"/>
<path d="M22.9168 12.5C22.9168 18.25 18.2502 22.9167 12.5002 22.9167C6.75016 22.9167 2.0835 18.25 2.0835 12.5C2.0835 6.74999 6.75016 2.08333 12.5002 2.08333" stroke="#1B1A18" stroke-width="1.5" stroke-linecap="round" stroke-linejoin="round"/>
<path d="M17.7085 3.125V7.29167H21.8752" stroke="#1B1A18" stroke-width="1.5" stroke-linecap="round" stroke-linejoin="round"/>
<path d="M22.9168 2.08333L17.7085 7.29166" stroke="#1B1A18" stroke-width="1.5" stroke-linecap="round" stroke-linejoin="round"/>
</svg>
