<svg width="25" height="25" viewBox="0 0 25 25" fill="none" xmlns="http://www.w3.org/2000/svg">
<path d="M5.20833 10.4167C4.0625 10.4167 3.125 11.3542 3.125 12.5C3.125 13.6458 4.0625 14.5833 5.20833 14.5833C6.35417 14.5833 7.29167 13.6458 7.29167 12.5C7.29167 11.3542 6.35417 10.4167 5.20833 10.4167Z" stroke="#1B1A18" stroke-width="1.5"/>
<path d="M19.7918 10.4167C18.646 10.4167 17.7085 11.3542 17.7085 12.5C17.7085 13.6458 18.646 14.5833 19.7918 14.5833C20.9377 14.5833 21.8752 13.6458 21.8752 12.5C21.8752 11.3542 20.9377 10.4167 19.7918 10.4167Z" stroke="#1B1A18" stroke-width="1.5"/>
<path d="M12.4998 10.4167C11.354 10.4167 10.4165 11.3542 10.4165 12.5C10.4165 13.6458 11.354 14.5833 12.4998 14.5833C13.6457 14.5833 14.5832 13.6458 14.5832 12.5C14.5832 11.3542 13.6457 10.4167 12.4998 10.4167Z" stroke="#1B1A18" stroke-width="1.5"/>
</svg>
