<svg width="25" height="25" viewBox="0 0 25 25" fill="none" xmlns="http://www.w3.org/2000/svg">
<path d="M16.8647 2.08334H8.13558C4.34391 2.08334 2.0835 4.34376 2.0835 8.13543V16.8542C2.0835 20.6563 4.34391 22.9167 8.13558 22.9167H16.8543C20.646 22.9167 22.9064 20.6563 22.9064 16.8646V8.13543C22.9168 4.34376 20.6564 2.08334 16.8647 2.08334ZM7.29183 13.8646C6.54183 13.8646 5.92725 13.25 5.92725 12.5C5.92725 11.75 6.54183 11.1354 7.29183 11.1354C8.04183 11.1354 8.65641 11.75 8.65641 12.5C8.65641 13.25 8.04183 13.8646 7.29183 13.8646ZM12.5002 13.8646C11.7502 13.8646 11.1356 13.25 11.1356 12.5C11.1356 11.75 11.7502 11.1354 12.5002 11.1354C13.2502 11.1354 13.8647 11.75 13.8647 12.5C13.8647 13.25 13.2502 13.8646 12.5002 13.8646ZM17.7085 13.8646C16.9585 13.8646 16.3439 13.25 16.3439 12.5C16.3439 11.75 16.9585 11.1354 17.7085 11.1354C18.4585 11.1354 19.0731 11.75 19.0731 12.5C19.0731 13.25 18.4585 13.8646 17.7085 13.8646Z" fill="#1B1A18"/>
</svg>
