<svg width="25" height="25" viewBox="0 0 25 25" fill="none" xmlns="http://www.w3.org/2000/svg">
<path d="M12.5209 3.03116C9.07295 3.03116 6.27086 5.83324 6.27086 9.28116V12.2916C6.27086 12.927 6.00003 13.8957 5.67711 14.4374L4.4792 16.427C3.73961 17.6561 4.25003 19.0207 5.6042 19.4791C10.0938 20.9791 14.9376 20.9791 19.4271 19.4791C20.6876 19.0624 21.2396 17.5728 20.5521 16.427L19.3542 14.4374C19.0417 13.8957 18.7709 12.927 18.7709 12.2916V9.28116C18.7709 5.84366 15.9584 3.03116 12.5209 3.03116Z" stroke="#1B1A18" stroke-width="1.5" stroke-miterlimit="10" stroke-linecap="round"/>
<path d="M14.4479 3.33328C14.125 3.23953 13.7917 3.16662 13.4479 3.12495C12.4479 2.99995 11.4896 3.07287 10.5938 3.33328C10.8958 2.56245 11.6458 2.02078 12.5208 2.02078C13.3958 2.02078 14.1458 2.56245 14.4479 3.33328Z" stroke="#1B1A18" stroke-width="1.5" stroke-miterlimit="10" stroke-linecap="round" stroke-linejoin="round"/>
<path d="M15.646 19.8543C15.646 21.573 14.2397 22.9793 12.521 22.9793C11.6668 22.9793 10.8751 22.6251 10.3127 22.0626C9.75016 21.5001 9.396 20.7084 9.396 19.8543" stroke="#1B1A18" stroke-width="1.5" stroke-miterlimit="10"/>
</svg>
