<svg width="25" height="25" viewBox="0 0 25 25" fill="none" xmlns="http://www.w3.org/2000/svg">
<path d="M7.29183 2.08333H6.25016C3.12516 2.08333 2.0835 3.94791 2.0835 6.24999V7.29166V21.875C2.0835 22.7396 3.06266 23.2292 3.75016 22.7083L5.53141 21.375C5.94808 21.0625 6.53141 21.1042 6.90641 21.4792L8.63558 23.2187C9.04183 23.625 9.7085 23.625 10.1147 23.2187L11.8647 21.4687C12.2293 21.1042 12.8127 21.0625 13.2189 21.375L15.0002 22.7083C15.6877 23.2187 16.6668 22.7292 16.6668 21.875V4.16666C16.6668 3.02083 17.6043 2.08333 18.7502 2.08333H7.29183ZM11.7189 14.3229H7.03141C6.60433 14.3229 6.25016 13.9687 6.25016 13.5417C6.25016 13.1146 6.60433 12.7604 7.03141 12.7604H11.7189C12.146 12.7604 12.5002 13.1146 12.5002 13.5417C12.5002 13.9687 12.146 14.3229 11.7189 14.3229ZM12.5002 10.1562H6.25016C5.82308 10.1562 5.46891 9.80208 5.46891 9.37499C5.46891 8.94791 5.82308 8.59374 6.25016 8.59374H12.5002C12.9272 8.59374 13.2814 8.94791 13.2814 9.37499C13.2814 9.80208 12.9272 10.1562 12.5002 10.1562Z" fill="#1B1A18"/>
<path d="M18.7603 3.64583C19.4478 3.64583 20.104 3.92708 20.5832 4.39583C21.0832 4.90624 21.354 5.56249 21.354 6.24999V8.77083C21.354 9.54166 21.0103 9.89583 20.229 9.89583H18.229V4.17708C18.229 3.88541 18.4686 3.64583 18.7603 3.64583ZM18.7603 2.08333C17.604 2.08333 16.6665 3.02083 16.6665 4.17708V11.4583H20.229C21.8748 11.4583 22.9165 10.4167 22.9165 8.77083V6.24999C22.9165 5.10416 22.4478 4.06249 21.6978 3.30208C20.9373 2.55208 19.9061 2.09374 18.7603 2.08333Z" fill="#1B1A18"/>
</svg>
