<svg width="25" height="25" viewBox="0 0 25 25" fill="none" xmlns="http://www.w3.org/2000/svg">
<path d="M2.0835 9.37501V6.77084C2.0835 4.17709 4.17725 2.08334 6.771 2.08334H9.37516" stroke="#1B1A18" stroke-width="1.5" stroke-linecap="round" stroke-linejoin="round"/>
<path d="M15.625 2.08334H18.2292C20.8229 2.08334 22.9167 4.17709 22.9167 6.77084V9.37501" stroke="#1B1A18" stroke-width="1.5" stroke-linecap="round" stroke-linejoin="round"/>
<path d="M22.9165 16.6667V18.2292C22.9165 20.8229 20.8228 22.9167 18.229 22.9167H16.6665" stroke="#1B1A18" stroke-width="1.5" stroke-linecap="round" stroke-linejoin="round"/>
<path d="M9.37516 22.9167H6.771C4.17725 22.9167 2.0835 20.8229 2.0835 18.2292V15.625" stroke="#1B1A18" stroke-width="1.5" stroke-linecap="round" stroke-linejoin="round"/>
<path d="M17.7082 9.89584V15.1042C17.7082 17.1875 16.6665 18.2292 14.5832 18.2292H10.4165C8.33317 18.2292 7.2915 17.1875 7.2915 15.1042V9.89584C7.2915 7.81251 8.33317 6.77084 10.4165 6.77084H14.5832C16.6665 6.77084 17.7082 7.81251 17.7082 9.89584Z" stroke="#1B1A18" stroke-width="1.5" stroke-linecap="round" stroke-linejoin="round"/>
<path d="M19.7918 12.5H5.2085" stroke="#1B1A18" stroke-width="1.5" stroke-linecap="round" stroke-linejoin="round"/>
</svg>
