<svg width="25" height="25" viewBox="0 0 25 25" fill="none" xmlns="http://www.w3.org/2000/svg">
<path d="M2.88558 10.4167C2.43766 10.4167 2.0835 10.0625 2.0835 9.61459V7.20834C2.0835 4.38543 4.38558 2.08334 7.2085 2.08334H9.61475C10.0627 2.08334 10.4168 2.43751 10.4168 2.88543C10.4168 3.33334 10.0627 3.68751 9.61475 3.68751H7.2085C5.26058 3.68751 3.68766 5.27084 3.68766 7.20834V9.61459C3.68766 10.0625 3.32308 10.4167 2.88558 10.4167Z" fill="#1B1A18"/>
<path d="M22.1147 10.4167C21.6772 10.4167 21.3127 10.0625 21.3127 9.61459V7.20834C21.3127 5.26043 19.7293 3.68751 17.7918 3.68751H15.3856C14.9377 3.68751 14.5835 3.32293 14.5835 2.88543C14.5835 2.44793 14.9377 2.08334 15.3856 2.08334H17.7918C20.6147 2.08334 22.9168 4.38543 22.9168 7.20834V9.61459C22.9168 10.0625 22.5627 10.4167 22.1147 10.4167Z" fill="#1B1A18"/>
<path d="M17.7935 22.9163H16.3455C15.908 22.9163 15.5435 22.5622 15.5435 22.1143C15.5435 21.6768 15.8976 21.3122 16.3455 21.3122H17.7935C19.7414 21.3122 21.3143 19.7288 21.3143 17.7913V16.3538C21.3143 15.9163 21.6685 15.5518 22.1164 15.5518C22.5539 15.5518 22.9185 15.9059 22.9185 16.3538V17.7913C22.9185 20.6143 20.6164 22.9163 17.7935 22.9163Z" fill="#1B1A18"/>
<path d="M9.61475 22.9167H7.2085C4.38558 22.9167 2.0835 20.6146 2.0835 17.7917V15.3854C2.0835 14.9375 2.43766 14.5833 2.88558 14.5833C3.3335 14.5833 3.68766 14.9375 3.68766 15.3854V17.7917C3.68766 19.7396 5.271 21.3125 7.2085 21.3125H9.61475C10.0522 21.3125 10.4168 21.6667 10.4168 22.1146C10.4168 22.5625 10.0627 22.9167 9.61475 22.9167Z" fill="#1B1A18"/>
<path d="M19.2286 11.6984H17.812H7.18701H5.77034C5.32243 11.6984 4.96826 12.063 4.96826 12.5005C4.96826 12.938 5.32243 13.3026 5.77034 13.3026H7.18701H17.812H19.2286C19.6766 13.3026 20.0307 12.938 20.0307 12.5005C20.0307 12.063 19.6766 11.6984 19.2286 11.6984Z" fill="#1B1A18"/>
<path d="M7.18604 14.5214V14.8651C7.18604 16.5943 8.58187 17.9901 10.311 17.9901H14.686C16.4152 17.9901 17.811 16.5943 17.811 14.8651V14.5214C17.811 14.3964 17.7172 14.3026 17.5922 14.3026H7.40479C7.27979 14.3026 7.18604 14.3964 7.18604 14.5214Z" fill="#1B1A18"/>
<path d="M7.18604 10.4797V10.1359C7.18604 8.40673 8.58187 7.01089 10.311 7.01089H14.686C16.4152 7.01089 17.811 8.40673 17.811 10.1359V10.4797C17.811 10.6047 17.7172 10.6984 17.5922 10.6984H7.40479C7.27979 10.6984 7.18604 10.6047 7.18604 10.4797Z" fill="#1B1A18"/>
</svg>
