<svg width="25" height="25" viewBox="0 0 25 25" fill="none" xmlns="http://www.w3.org/2000/svg">
<path d="M3.125 9.4897V15.5001C3.125 17.7084 3.125 17.7084 5.20833 19.1147L10.9375 22.4272C11.8021 22.9272 13.2083 22.9272 14.0625 22.4272L19.7917 19.1147C21.875 17.7084 21.875 17.7084 21.875 15.5105V9.4897C21.875 7.29178 21.875 7.29178 19.7917 5.88553L14.0625 2.57303C13.2083 2.07303 11.8021 2.07303 10.9375 2.57303L5.20833 5.88553C3.125 7.29178 3.125 7.29178 3.125 9.4897Z" stroke="#1B1A18" stroke-width="1.5" stroke-linecap="round" stroke-linejoin="round"/>
<path d="M12.5 15.625C14.2259 15.625 15.625 14.2259 15.625 12.5C15.625 10.7741 14.2259 9.375 12.5 9.375C10.7741 9.375 9.375 10.7741 9.375 12.5C9.375 14.2259 10.7741 15.625 12.5 15.625Z" stroke="#1B1A18" stroke-width="1.5" stroke-linecap="round" stroke-linejoin="round"/>
</svg>
