<svg width="25" height="25" viewBox="0 0 25 25" fill="none" xmlns="http://www.w3.org/2000/svg">
<path d="M20.9377 9.60562C19.0522 9.60562 18.2814 8.27229 19.2189 6.63687C19.7606 5.68895 19.4377 4.48062 18.4897 3.93895L16.6877 2.9077C15.8647 2.41812 14.8022 2.70979 14.3127 3.5327L14.1981 3.73062C13.2606 5.36604 11.7189 5.36604 10.771 3.73062L10.6564 3.5327C10.1877 2.70979 9.12516 2.41812 8.30225 2.9077L6.50016 3.93895C5.55225 4.48062 5.22933 5.69937 5.771 6.64729C6.71891 8.27229 5.94808 9.60562 4.06266 9.60562C2.97933 9.60562 2.0835 10.491 2.0835 11.5848V13.4181C2.0835 14.5015 2.96891 15.3973 4.06266 15.3973C5.94808 15.3973 6.71891 16.7306 5.771 18.366C5.22933 19.314 5.55225 20.5223 6.50016 21.064L8.30225 22.0952C9.12516 22.5848 10.1877 22.2931 10.6772 21.4702L10.7918 21.2723C11.7293 19.6369 13.271 19.6369 14.2189 21.2723L14.3335 21.4702C14.8231 22.2931 15.8856 22.5848 16.7085 22.0952L18.5106 21.064C19.4585 20.5223 19.7814 19.3035 19.2397 18.366C18.2918 16.7306 19.0627 15.3973 20.9481 15.3973C22.0314 15.3973 22.9272 14.5119 22.9272 13.4181V11.5848C22.9168 10.5015 22.0314 9.60562 20.9377 9.60562ZM12.5002 15.8869C10.6356 15.8869 9.11475 14.366 9.11475 12.5015C9.11475 10.6369 10.6356 9.11604 12.5002 9.11604C14.3647 9.11604 15.8856 10.6369 15.8856 12.5015C15.8856 14.366 14.3647 15.8869 12.5002 15.8869Z" fill="#1B1A18"/>
</svg>
