<svg width="25" height="25" viewBox="0 0 25 25" fill="none" xmlns="http://www.w3.org/2000/svg">
<path d="M19.7295 5.6473L14.3441 2.53271C13.3128 1.93896 11.6983 1.93896 10.667 2.53271L5.22949 5.66813C3.07324 7.12646 2.94824 7.34521 2.94824 9.66813V15.3244C2.94824 17.6473 3.07324 17.8765 5.27116 19.3556L10.6566 22.4702C11.1774 22.7723 11.8441 22.9181 12.5003 22.9181C13.1566 22.9181 13.8233 22.7723 14.3337 22.4702L19.7712 19.3348C21.9274 17.8765 22.0524 17.6577 22.0524 15.3348V9.66813C22.0524 7.34521 21.9274 7.12646 19.7295 5.6473ZM12.5003 15.8869C10.6358 15.8869 9.11491 14.366 9.11491 12.5015C9.11491 10.6369 10.6358 9.11605 12.5003 9.11605C14.3649 9.11605 15.8858 10.6369 15.8858 12.5015C15.8858 14.366 14.3649 15.8869 12.5003 15.8869Z" fill="#1B1A18"/>
</svg>
