<svg width="25" height="25" viewBox="0 0 25 25" fill="none" xmlns="http://www.w3.org/2000/svg">
<path d="M16.8647 2.08334H8.13558C4.34391 2.08334 2.0835 4.34376 2.0835 8.13543V16.8542C2.0835 20.6563 4.34391 22.9167 8.13558 22.9167H16.8543C20.646 22.9167 22.9064 20.6563 22.9064 16.8646V8.13543C22.9168 4.34376 20.6564 2.08334 16.8647 2.08334ZM17.5835 12.0104C17.5835 12.4167 17.2606 12.7396 16.8543 12.7396C16.4481 12.7396 16.1252 12.4167 16.1252 12.0104V11.8229L13.2918 14.6563C13.1356 14.8125 12.9272 14.8854 12.7085 14.8646C12.4897 14.8438 12.2918 14.7292 12.1772 14.5417L11.1147 12.9583L8.63558 15.4375C8.48975 15.5833 8.31266 15.6458 8.12516 15.6458C7.93766 15.6458 7.75016 15.5729 7.61475 15.4375C7.3335 15.1563 7.3335 14.6979 7.61475 14.4063L10.7189 11.3021C10.8752 11.1458 11.0835 11.0729 11.3022 11.0938C11.521 11.1146 11.7189 11.2292 11.8335 11.4167L12.896 13L15.0939 10.8021H14.9064C14.5002 10.8021 14.1772 10.4792 14.1772 10.0729C14.1772 9.66668 14.5002 9.34376 14.9064 9.34376H16.8439C16.9377 9.34376 17.0314 9.36459 17.1252 9.39584C17.3022 9.46876 17.4481 9.61459 17.521 9.79168C17.5627 9.88543 17.5731 9.97918 17.5731 10.0729V12.0104H17.5835Z" fill="#1B1A18"/>
</svg>
