<svg width="25" height="25" viewBox="0 0 25 25" fill="none" xmlns="http://www.w3.org/2000/svg">
<path d="M13.5415 9.375H7.2915" stroke="#1B1A18" stroke-width="1.5" stroke-linecap="round" stroke-linejoin="round"/>
<path d="M22.9166 11.427V13.5729C22.9166 14.1458 22.4582 14.6145 21.8749 14.6353H19.8331C18.7081 14.6353 17.677 13.8124 17.5832 12.6874C17.5207 12.0311 17.7706 11.4166 18.2081 10.9895C18.5936 10.5936 19.1249 10.3645 19.7082 10.3645H21.8749C22.4582 10.3854 22.9166 10.8541 22.9166 11.427Z" stroke="#1B1A18" stroke-width="1.5" stroke-linecap="round" stroke-linejoin="round"/>
<path d="M18.2085 10.9896C17.771 11.4167 17.521 12.0313 17.5835 12.6875C17.6772 13.8125 18.7085 14.6354 19.8335 14.6354H21.8752V16.1458C21.8752 19.2708 19.7918 21.3542 16.6668 21.3542H7.29183C4.16683 21.3542 2.0835 19.2708 2.0835 16.1458V8.85418C2.0835 6.02084 3.79183 4.04168 6.44808 3.70834C6.71891 3.66668 7.00016 3.64584 7.29183 3.64584H16.6668C16.9377 3.64584 17.1981 3.65625 17.4481 3.69792C20.1356 4.01042 21.8752 6.00001 21.8752 8.85418V10.3646H19.7085C19.1252 10.3646 18.5939 10.5938 18.2085 10.9896Z" stroke="#1B1A18" stroke-width="1.5" stroke-linecap="round" stroke-linejoin="round"/>
</svg>
