<svg width="25" height="25" viewBox="0 0 25 25" fill="none" xmlns="http://www.w3.org/2000/svg">
<path d="M22.9171 11.4262V13.5721C22.9171 14.145 22.4587 14.6137 21.8754 14.6346H19.8337C18.7087 14.6346 17.6775 13.8117 17.5837 12.6867C17.5212 12.0304 17.7712 11.4158 18.2087 10.9887C18.5941 10.5929 19.1254 10.3638 19.7087 10.3638H21.8754C22.4587 10.3846 22.9171 10.8533 22.9171 11.4262Z" fill="#1B1A18"/>
<path d="M21.3231 16.1979H19.8335C17.8543 16.1979 16.1877 14.7083 16.021 12.8125C15.9272 11.7292 16.3231 10.6458 17.1147 9.87501C17.7814 9.18751 18.7085 8.80209 19.7085 8.80209H21.3231C21.6252 8.80209 21.8752 8.55209 21.8439 8.25001C21.6147 5.71876 19.9377 3.98959 17.4481 3.69793C17.1981 3.65626 16.9377 3.64584 16.6668 3.64584H7.29183C7.00016 3.64584 6.71891 3.66668 6.44808 3.70834C3.79183 4.04168 2.0835 6.02084 2.0835 8.85418V16.1458C2.0835 19.0208 4.41683 21.3542 7.29183 21.3542H16.6668C19.5835 21.3542 21.5939 19.5313 21.8439 16.75C21.8752 16.4479 21.6252 16.1979 21.3231 16.1979ZM13.5418 10.1563H7.29183C6.86475 10.1563 6.51058 9.80209 6.51058 9.37501C6.51058 8.94793 6.86475 8.59376 7.29183 8.59376H13.5418C13.9689 8.59376 14.3231 8.94793 14.3231 9.37501C14.3231 9.80209 13.9689 10.1563 13.5418 10.1563Z" fill="#1B1A18"/>
</svg>
