<svg width="55" height="55" viewBox="0 0 56 56" fill="none" xmlns="http://www.w3.org/2000/svg">
<path d="M5.08325 20.7917V15.0625C5.08325 9.35625 9.6895 4.75 15.3958 4.75H21.1249" stroke="#F59E0B" stroke-width="3" stroke-linecap="round" stroke-linejoin="round"/>
<path d="M34.875 4.75H40.6042C46.3104 4.75 50.9167 9.35625 50.9167 15.0625V20.7917" stroke="#F59E0B" stroke-width="3" stroke-linecap="round" stroke-linejoin="round"/>
<path d="M50.9167 36.8333V40.2708C50.9167 45.977 46.3105 50.5833 40.6042 50.5833H37.1667" stroke="#F59E0B" stroke-width="3" stroke-linecap="round" stroke-linejoin="round"/>
<path d="M21.1249 50.5833H15.3958C9.6895 50.5833 5.08325 45.977 5.08325 40.2708V34.5416" stroke="#F59E0B" stroke-width="3" stroke-linecap="round" stroke-linejoin="round"/>
<path d="M39.4584 21.9375V33.3958C39.4584 37.9792 37.1667 40.2708 32.5834 40.2708H23.4167C18.8334 40.2708 16.5417 37.9792 16.5417 33.3958V21.9375C16.5417 17.3542 18.8334 15.0625 23.4167 15.0625H32.5834C37.1667 15.0625 39.4584 17.3542 39.4584 21.9375Z" stroke="#F59E0B" stroke-width="3" stroke-linecap="round" stroke-linejoin="round"/>
<path d="M44.0416 27.6666H11.9583" stroke="#F59E0B" stroke-width="3" stroke-linecap="round" stroke-linejoin="round"/>
</svg>
