<svg width="1033" height="976" viewBox="0 0 1033 976" fill="none" xmlns="http://www.w3.org/2000/svg">
<path d="M251.759 783.463C161.552 731.915 442.682 563.65 425.557 453.3C409.162 347.66 278.819 279.258 344.399 175.47C446.272 14.2427 855.492 247.684 906.518 400.13C963.824 571.34 402.419 869.558 251.759 783.463Z" fill="#7E19FF" fill-opacity="0.6"/>
<path d="M866.88 585.614C760.917 603.311 712.057 518.7 622.409 459.523C536.587 402.872 439.32 393.417 418.682 292.705C386.623 136.255 649.697 65.3657 794.878 132.023C957.93 206.885 1043.86 556.056 866.88 585.614Z" fill="#6F12E7" fill-opacity="0.8"/>
<path d="M933.88 560.614C827.917 578.311 779.057 493.7 689.409 434.523C603.587 377.872 506.32 368.417 485.682 267.705C453.623 111.255 716.697 40.3657 861.878 107.023C1024.93 181.885 1110.86 531.056 933.88 560.614Z" stroke="#ACFF86" stroke-opacity="0.6"/>
</svg>
