<svg width="342" height="272" viewBox="0 0 342 272" fill="none" xmlns="http://www.w3.org/2000/svg">
<path d="M145.015 261.323C146.267 261.401 146.958 259.847 146.011 258.942L145.917 258.567C145.93 258.537 145.942 258.507 145.955 258.478C147.221 255.461 151.511 255.482 152.766 258.503C153.88 261.184 155.298 263.869 155.647 266.704C155.804 267.955 155.733 269.23 155.455 270.458C158.066 264.76 159.439 258.539 159.439 252.282C159.439 250.71 159.353 249.138 159.177 247.57C159.032 246.288 158.833 245.013 158.574 243.75C157.177 236.922 154.152 230.419 149.789 224.988C147.691 223.842 145.942 222.051 144.886 219.904C144.506 219.13 144.209 218.297 144.068 217.448C144.306 217.48 144.968 213.847 144.788 213.624C145.12 213.12 145.716 212.869 146.079 212.377C147.886 209.929 150.375 210.356 151.675 213.683C154.451 215.083 154.478 217.405 152.775 219.638C151.691 221.059 151.542 222.982 150.591 224.503C150.689 224.628 150.791 224.749 150.889 224.874C152.683 227.174 154.234 229.645 155.542 232.242C155.173 229.356 155.718 225.88 156.649 223.639C157.708 221.085 159.693 218.935 161.442 216.728C163.542 214.076 167.848 215.233 168.218 218.594C168.221 218.627 168.225 218.659 168.228 218.692C167.969 218.838 167.714 218.994 167.466 219.158C166.048 220.095 166.538 222.29 168.218 222.55L168.256 222.555C168.162 223.49 168.001 224.417 167.767 225.328C170.009 233.995 165.167 237.152 158.253 237.294C158.101 237.372 157.952 237.45 157.799 237.524C158.5 239.495 159.06 241.517 159.474 243.566C159.846 245.377 160.104 247.207 160.249 249.045C160.429 251.363 160.413 253.694 160.218 256.009L160.23 255.927C160.727 253.377 162.112 250.996 164.123 249.346C167.12 246.886 171.353 245.98 174.586 244.003C176.142 243.051 178.136 244.281 177.864 246.084L177.851 246.17C177.37 246.366 176.9 246.593 176.446 246.847C176.187 246.993 175.932 247.149 175.684 247.313C174.266 248.25 174.756 250.445 176.436 250.705L176.474 250.71C176.501 250.714 176.525 250.718 176.552 250.722C175.726 252.681 174.576 254.5 173.136 256.068C171.733 263.634 165.71 264.352 159.267 262.148H159.263C158.559 265.214 157.529 268.209 156.207 271.064H145.289C145.249 270.943 145.214 270.818 145.179 270.696C146.189 270.759 147.206 270.7 148.2 270.517C147.39 269.523 146.58 268.522 145.77 267.529C145.75 267.509 145.735 267.49 145.719 267.47C145.308 266.962 144.893 266.458 144.482 265.949L144.482 265.949C144.457 264.388 144.644 262.832 145.015 261.323Z" fill="#F2F2F2"/>
<path d="M330.049 271.839H204.904C198.314 271.839 192.953 266.482 192.953 259.897V11.9419C192.953 5.35725 198.314 0 204.904 0H330.049C336.639 0 342 5.35725 342 11.9419V259.897C342 266.482 336.639 271.839 330.049 271.839ZM204.904 1.21087C198.973 1.21087 194.165 6.01519 194.165 11.9416V259.897C194.165 265.824 198.973 270.629 204.904 270.629H330.049C335.98 270.629 340.788 265.824 340.788 259.897V91.2417C340.788 41.519 300.45 1.21087 250.691 1.21087H204.904Z" fill="#E6E6E6"/>
<path d="M228.498 122.369C236.529 122.369 243.039 115.863 243.039 107.839C243.039 99.8137 236.529 93.3082 228.498 93.3082C220.467 93.3082 213.957 99.8137 213.957 107.839C213.957 115.863 220.467 122.369 228.498 122.369Z" fill="#E6E6E6"/>
<path d="M306.455 122.369C314.486 122.369 320.996 115.863 320.996 107.839C320.996 99.8137 314.486 93.3082 306.455 93.3082C298.424 93.3082 291.914 99.8137 291.914 107.839C291.914 115.863 298.424 122.369 306.455 122.369Z" fill="#E6E6E6"/>
<path d="M267.476 122.369C275.507 122.369 282.018 115.863 282.018 107.839C282.018 99.8137 275.507 93.3082 267.476 93.3082C259.446 93.3082 252.935 99.8137 252.935 107.839C252.935 115.863 259.446 122.369 267.476 122.369Z" fill="#E6E6E6"/>
<path d="M228.498 164.144C236.529 164.144 243.039 157.638 243.039 149.613C243.039 141.589 236.529 135.083 228.498 135.083C220.467 135.083 213.957 141.589 213.957 149.613C213.957 157.638 220.467 164.144 228.498 164.144Z" fill="#E6E6E6"/>
<path d="M306.455 164.144C314.486 164.144 320.996 157.638 320.996 149.613C320.996 141.589 314.486 135.083 306.455 135.083C298.424 135.083 291.914 141.589 291.914 149.613C291.914 157.638 298.424 164.144 306.455 164.144Z" fill="#E6E6E6"/>
<path d="M267.476 164.144C275.507 164.144 282.018 157.638 282.018 149.613C282.018 141.589 275.507 135.083 267.476 135.083C259.446 135.083 252.935 141.589 252.935 149.613C252.935 157.638 259.446 164.144 267.476 164.144Z" fill="#E6E6E6"/>
<path d="M228.498 205.919C236.529 205.919 243.039 199.413 243.039 191.388C243.039 183.363 236.529 176.858 228.498 176.858C220.467 176.858 213.957 183.363 213.957 191.388C213.957 199.413 220.467 205.919 228.498 205.919Z" fill="#E6E6E6"/>
<path d="M306.158 247.622C314.188 247.622 320.699 241.117 320.699 233.092C320.699 225.067 314.188 218.561 306.158 218.561C298.127 218.561 291.616 225.067 291.616 233.092C291.616 241.117 298.127 247.622 306.158 247.622Z" fill="#E6E6E6"/>
<path d="M248.296 247.622C267.202 247.622 282.528 241.117 282.528 233.092C282.528 225.067 267.202 218.561 248.296 218.561C229.39 218.561 214.064 225.067 214.064 233.092C214.064 241.117 229.39 247.622 248.296 247.622Z" fill="#E6E6E6"/>
<path d="M306.455 205.919C314.486 205.919 320.996 199.413 320.996 191.388C320.996 183.363 314.486 176.858 306.455 176.858C298.424 176.858 291.914 183.363 291.914 191.388C291.914 199.413 298.424 205.919 306.455 205.919Z" fill="#E6E6E6"/>
<path d="M267.476 205.919C275.507 205.919 282.018 199.413 282.018 191.388C282.018 183.363 275.507 176.858 267.476 176.858C259.446 176.858 252.935 183.363 252.935 191.388C252.935 199.413 259.446 205.919 267.476 205.919Z" fill="#791CAC"/>
<path d="M270.334 16.9521H131.264C127.141 16.9521 123.787 20.3028 123.787 24.4234V75.473C123.787 79.5936 127.141 82.9443 131.264 82.9443H270.334C274.458 82.9443 277.811 79.5936 277.811 75.473V24.4234C277.811 20.3028 274.458 16.9521 270.334 16.9521Z" fill="white"/>
<path d="M270.334 16.9521H131.264C127.141 16.9521 123.787 20.3028 123.787 24.4234V75.473C123.787 79.5936 127.141 82.9443 131.264 82.9443H270.334C274.458 82.9443 277.811 79.5936 277.811 75.473V24.4234C277.811 20.3028 274.458 16.9521 270.334 16.9521ZM277.025 75.473C277.025 79.1615 274.025 82.1587 270.334 82.1587H131.264C127.573 82.1587 124.574 79.1615 124.574 75.473V24.4234C124.574 20.7349 127.573 17.7377 131.264 17.7377H270.334C274.025 17.7377 277.025 20.7349 277.025 24.4234V75.473Z" fill="#3F3D56"/>
<path d="M262.599 47.8292H138.999C137.828 47.8292 136.879 48.7779 136.879 49.9482C136.879 51.1185 137.828 52.0672 138.999 52.0672H262.599C263.77 52.0672 264.72 51.1185 264.72 49.9482C264.72 48.7779 263.77 47.8292 262.599 47.8292Z" fill="#791CAC"/>
<path d="M41.1708 109.233L39.9321 116.604L50.9171 143.306L56.8109 140.278L51.0744 115.291L50.25 105.754L41.1708 109.233Z" fill="#A0616A"/>
<path d="M53.2969 67.7652C53.2969 67.7652 47.5455 64.9812 43.0827 74.388C38.6198 83.7948 39.1724 104.426 39.1724 104.426C39.1724 104.426 37.5474 105.972 38.579 107.055C39.6105 108.138 40.5723 109.856 39.5199 111.836C38.9653 112.88 37.6817 114.922 39.7837 115.502C41.8857 116.082 51.7183 113.341 51.7183 113.341C51.7183 113.341 55.395 111.696 53.3059 110.587C51.2169 109.479 54.1591 102.774 54.1591 102.774L56.5901 83.4052L53.2969 67.7652Z" fill="#791CAC"/>
<path d="M57.8129 153.508C60.1214 152.799 61.0249 149.075 59.831 145.19C58.6371 141.305 55.7978 138.73 53.4893 139.438C51.1807 140.147 50.2772 143.87 51.4711 147.756C52.6651 151.641 55.5044 154.216 57.8129 153.508Z" fill="#A0616A"/>
<path d="M112.256 267.946L117.761 266.47L114.682 244.548L106.557 246.727L112.256 267.946Z" fill="#A0616A"/>
<path d="M131.085 262.764C131.333 263.007 131.674 263.914 131.764 264.249C132.041 265.28 131.429 266.34 130.397 266.617L113.348 271.189C112.644 271.377 111.92 270.96 111.731 270.257L111.54 269.547C111.54 269.547 110.125 267.642 111.155 264.548C111.155 264.548 113.866 266.027 116.226 261.94L116.714 259.964L124.949 263.149L128.891 262.595C129.753 262.474 130.461 262.157 131.085 262.764Z" fill="#2F2E41"/>
<path d="M58.2925 267.82L63.9926 267.819L66.7042 245.849L58.2914 245.85L58.2925 267.82Z" fill="#A0616A"/>
<path d="M77.8217 267.691C77.9991 267.989 78.0928 268.953 78.0928 269.301C78.0928 270.368 77.2266 271.234 76.1582 271.234H58.5057C57.7768 271.234 57.1859 270.644 57.1859 269.915V269.181C57.1859 269.181 56.3126 266.974 58.1105 264.253C58.1105 264.253 60.3451 266.383 63.684 263.047L64.6686 261.264L71.7959 266.473L75.7465 266.959C76.6108 267.065 77.3771 266.943 77.8217 267.691Z" fill="#2F2E41"/>
<path d="M96.2276 136.952L111.216 201.511L118.452 253.674L107.082 255.223L75.5536 166.391L68.3177 255.223L55.3964 256.256C55.3964 256.256 45.0594 150.897 49.7111 137.985L96.2276 136.952Z" fill="#2F2E41"/>
<path d="M114.069 60.6127L119.24 55.2129L125.179 26.9593L118.601 26.1521L109.287 50.0393L104.603 58.3887L114.069 60.6127Z" fill="#A0616A"/>
<path d="M80.7094 88.0936C80.7094 88.0936 85.5493 97.0113 94.5327 91.7393C103.516 86.4673 113.017 65.7107 113.017 65.7107C113.017 65.7107 114.914 60.4342 116.898 59.3876C117.944 58.836 120.636 58.2412 119.224 56.5805C117.812 54.9199 107.658 51.2895 107.658 51.2895C107.658 51.2895 103.691 50.585 104.795 52.6753C105.899 54.7656 102.273 53.4707 102.639 55.6829C103.005 57.8952 99.6934 58.6575 99.6934 58.6575L80.7094 88.0936Z" fill="#791CAC"/>
<path d="M127.225 22.9683C128.423 19.0845 127.524 15.3597 125.216 14.6486C122.909 13.9374 120.066 16.5094 118.868 20.3931C117.669 24.2768 118.568 28.0017 120.876 28.7128C123.184 29.4239 126.026 26.852 127.225 22.9683Z" fill="#A0616A"/>
<path d="M81.3519 57.1974H67.2007L66.6281 61.6558C66.6281 61.6558 48.781 66.5601 49.2272 69.2352C49.6734 71.9103 52.3505 116.495 52.3505 116.495L50.1196 138.787C50.1196 138.787 90.2754 155.729 96.5219 135.666L93.3987 112.482C93.3987 112.482 100.984 72.802 99.1989 71.0186C97.4142 69.2352 82.6904 62.1017 82.6904 62.1017L81.3519 57.1974Z" fill="#791CAC"/>
<path d="M73.132 57.2529C80.1469 57.2529 85.8337 51.5704 85.8337 44.5606C85.8337 37.5509 80.1469 31.8683 73.132 31.8683C66.117 31.8683 60.4303 37.5509 60.4303 44.5606C60.4303 51.5704 66.117 57.2529 73.132 57.2529Z" fill="#A0616A"/>
<path d="M82.5388 39.3397C84.1617 39.2026 85.7845 39.0655 87.4074 38.9284C86.8495 38.6727 86.2686 38.3991 85.8969 37.911C85.5252 37.4231 85.4484 36.652 85.8973 36.2338C86.422 35.7453 87.2909 36.0041 87.8643 36.4345C87.5486 34.7872 86.5646 33.2778 85.1842 32.3236C83.498 31.158 79.3265 32.5479 77.2937 32.2803C74.9481 31.9715 74.6554 29.9733 72.3099 29.6645C71.4258 29.5481 70.4309 29.4603 69.7357 30.0184C68.9646 30.6374 68.8781 31.8076 68.1979 32.5249C67.2266 33.5492 65.5619 33.247 64.1796 33.5352C62.2219 33.9434 60.746 35.6588 60.0644 37.5377C59.3828 39.4165 59.3577 41.46 59.3403 43.4585C59.3208 45.6982 59.3138 48.291 60.9349 49.8378C61.9224 50.7802 64.6127 54.0136 64.9034 55.3469C65.11 56.2938 73.5274 57.4471 75.3518 57.3947L81.5699 55.3469C82.181 52.658 81.1701 47.3386 79.7172 44.9944C80.1957 45.6259 82.4083 47.527 82.7466 46.8107C83.0848 46.0943 82.9314 43.8491 83.3525 43.1781C83.884 42.3312 81.542 39.4239 82.5388 39.3397Z" fill="#2F2E41"/>
</svg>
