<svg width="342" height="276" viewBox="0 0 342 276" fill="none" xmlns="http://www.w3.org/2000/svg">
<path d="M194.831 244.171C192.466 240.856 189.265 238.431 185.24 237.523C181.731 236.732 178.122 236.867 174.555 236.894L129.446 237.242C125.583 237.272 121.879 240.622 122.058 244.637C122.236 248.618 125.305 252.064 129.446 252.032C142.66 251.93 155.873 251.828 169.087 251.726C172.202 251.702 175.319 251.646 178.435 251.656C179.134 251.658 179.831 251.695 180.53 251.703C180.699 251.705 180.821 251.703 180.908 251.7C180.929 251.706 180.948 251.712 180.976 251.72C181.34 251.82 181.714 251.889 182.081 251.985C181.953 251.988 182.319 252.217 182.503 252.295C182.528 252.345 182.582 252.433 182.672 252.57C182.798 252.806 183.169 253.521 183.185 253.499C183.743 254.912 184.204 256.363 184.564 257.84C185.422 261.097 185.611 261.778 185.735 264.834C185.891 268.694 189.021 272.412 193.123 272.228C196.991 272.055 200.678 268.974 200.51 264.834C200.228 257.857 199.005 250.021 194.831 244.171Z" fill="#E6E6E6"/>
<path d="M132.098 260.858C131.251 255.719 130.42 250.576 129.556 245.44C128.679 240.229 126.889 235.458 122.838 232.038C121.756 231.124 120.634 230.271 119.507 229.421C119.11 229.122 118.715 228.822 118.323 228.517C118.3 228.499 118.285 228.487 118.264 228.471C118.221 228.434 118.17 228.39 118.1 228.331C116.412 226.901 114.78 225.407 113.226 223.819C111.846 222.409 110.526 220.938 109.267 219.408C108.952 219.025 108.641 218.64 108.335 218.251C108.282 218.184 107.998 217.816 107.811 217.576C107.637 217.336 107.319 216.903 107.265 216.827C106.907 216.32 106.555 215.808 106.21 215.292C103.857 211.763 101.819 208.033 100.121 204.146C99.9523 203.761 99.7878 203.373 99.6274 202.983C99.5843 202.864 99.5286 202.711 99.4547 202.508C99.1125 201.565 98.7709 200.625 98.4579 199.671C97.7931 197.647 97.2214 195.592 96.7431 193.508C96.5066 192.478 96.2937 191.444 96.1044 190.404C96.0067 189.87 95.9154 189.334 95.8304 188.797C95.8165 188.708 95.7335 188.128 95.6846 187.801C95.6485 187.472 95.5813 186.89 95.5723 186.8C95.5182 186.259 95.4702 185.717 95.4282 185.175C95.3338 183.955 95.2699 182.732 95.2366 181.508C95.1798 179.332 95.2187 177.157 95.3534 174.981C95.43 173.759 95.5392 172.54 95.6735 171.323C95.6817 171.248 95.688 171.189 95.6938 171.135C95.702 171.081 95.7114 171.019 95.7227 170.942C95.8221 170.27 95.9267 169.598 96.0438 168.929C96.4869 166.387 97.0632 163.871 97.7703 161.389C98.1051 160.216 98.4688 159.052 98.8613 157.897C99.0363 157.385 99.2168 156.874 99.4029 156.366C99.3907 156.399 99.9487 154.972 99.9562 154.924C102.17 149.688 105.791 144.915 105.796 138.967C105.8 134.94 102.396 131.082 98.4086 131.268C96.4205 131.343 94.5392 132.188 93.161 133.624C91.7828 135.06 91.0155 136.976 91.0207 138.967C91.0207 139.057 91.0203 139.134 91.0201 139.209C90.9829 139.335 90.9518 139.439 90.9238 139.532C90.492 140.471 89.9631 141.363 89.4892 142.279C88.1915 144.786 87.0838 147.375 86.0316 150.001C84.309 154.279 82.9904 158.709 82.0932 163.233C80.143 173.145 79.9917 183.327 81.6464 193.293C84.5108 210.769 93.9571 227.498 107.09 238.743C108.229 239.719 109.397 240.662 110.575 241.586C111.063 241.968 111.555 242.343 112.049 242.716C112.282 242.892 113.25 243.656 112.824 243.286C113.74 244.068 114.125 244.461 114.36 245.037C114.394 245.17 114.441 245.35 114.504 245.597C114.669 246.246 114.827 246.895 114.958 247.553C116.101 253.308 116.895 259.159 117.85 264.951C118.506 268.931 123.401 271.521 126.938 270.328C131.055 268.94 132.801 265.122 132.098 260.858Z" fill="#E6E6E6"/>
<path d="M195.578 275.784C192.476 275.792 189.497 274.568 187.294 272.38C185.092 270.192 183.847 267.22 183.832 264.114V255.679C175.008 256.667 144.795 256.438 136.134 255.045V263.777C136.111 266.88 134.863 269.848 132.663 272.034C130.462 274.22 127.488 275.447 124.387 275.447C121.287 275.447 118.312 274.22 116.112 272.034C113.912 269.848 112.664 266.88 112.641 263.777V246.634C100.91 240.111 91.1316 230.573 84.3134 219.005C77.4952 207.437 73.8846 194.257 73.8543 180.825C73.8543 157.795 84.2818 136.311 102.463 121.882C114.285 112.469 128.647 106.808 143.707 105.626C145.751 105.466 147.808 105.384 149.82 105.384C156.909 105.384 188.892 106.48 196.916 108.791L215.214 90.6177C215.483 90.3469 215.827 90.1624 216.201 90.0878C216.575 90.0132 216.963 90.0518 217.315 90.1987C217.67 90.34 217.974 90.5854 218.187 90.9026C218.4 91.2199 218.512 91.5943 218.509 91.9765V94.866L222.071 91.334C222.34 91.0629 222.683 90.8782 223.057 90.8034C223.431 90.7286 223.819 90.7672 224.171 90.9143C224.526 91.0555 224.83 91.3009 225.043 91.6184C225.256 91.9358 225.369 92.3103 225.365 92.6928V124.983C234.547 133.268 241.545 143.692 245.739 155.332C249.933 166.971 251.194 179.467 249.41 191.711C247.626 203.954 242.852 215.569 235.511 225.524C228.17 235.48 218.488 243.469 207.325 248.784V264.114C207.31 267.22 206.065 270.192 203.863 272.38C201.66 274.568 198.681 275.792 195.578 275.784ZM184.755 254.63V264.114C184.779 266.972 185.929 269.705 187.956 271.717C189.984 273.73 192.723 274.859 195.578 274.859C198.434 274.859 201.173 273.73 203.201 271.717C205.228 269.705 206.378 266.972 206.402 264.114V248.2L206.665 248.075C219.191 242.125 229.825 232.817 237.385 221.185C247.019 206.34 251.026 188.534 248.68 170.989C246.334 153.444 237.79 137.319 224.595 125.533L224.442 125.395V92.6928C224.445 92.4941 224.388 92.2991 224.277 92.1342C224.166 91.9693 224.007 91.8424 223.822 91.7704C223.638 91.6917 223.435 91.6705 223.239 91.7095C223.043 91.7485 222.863 91.846 222.723 91.9891L217.585 97.0825V91.9765C217.588 91.7778 217.531 91.5829 217.42 91.4179C217.309 91.253 217.151 91.1261 216.965 91.0542C216.781 90.9756 216.577 90.9545 216.381 90.9938C216.184 91.0331 216.004 91.1309 215.864 91.2744L197.175 109.837L196.909 109.754C189.449 107.417 156.963 106.309 149.82 106.309C147.832 106.309 145.799 106.389 143.78 106.548C128.903 107.715 114.715 113.307 103.037 122.606C85.0778 136.859 74.7777 158.079 74.7777 180.825C74.8084 194.138 78.3997 207.199 85.1784 218.653C91.9572 230.106 101.676 239.534 113.326 245.957L113.564 246.089V263.777C113.588 266.634 114.739 269.367 116.766 271.379C118.793 273.391 121.532 274.52 124.387 274.52C127.242 274.52 129.982 273.391 132.009 271.379C134.036 269.367 135.187 266.634 135.211 263.777V253.939L135.758 254.042C143.541 255.508 176.313 255.739 184.233 254.699L184.755 254.63Z" fill="#3F3D56"/>
<path d="M132.98 55.0533L81.847 70.4345C80.2207 70.9257 78.8556 72.043 78.0517 73.541C77.2479 75.0389 77.0709 76.795 77.5598 78.4235C78.0487 80.052 79.1634 81.4196 80.6591 82.2259C82.1547 83.0322 83.909 83.2113 85.5365 82.7238L130.284 69.2606L131.221 68.9786C131.411 64.1436 132.721 59.419 135.049 55.1781C134.757 55.0465 134.445 54.9653 134.125 54.9377C133.74 54.9004 133.351 54.9396 132.98 55.0533Z" fill="#791CAC"/>
<path d="M84.6522 86.003C83.9734 86.0014 83.3123 85.7862 82.7624 85.388C82.2124 84.9899 81.8013 84.4287 81.5872 83.784L78.3898 74.1264C78.2562 73.7231 78.2034 73.2974 78.2342 72.8736C78.265 72.4498 78.3789 72.0363 78.5695 71.6566C78.76 71.2769 79.0234 70.9386 79.3445 70.6608C79.6657 70.383 80.0384 70.1712 80.4414 70.0376L122.059 56.2324C122.462 56.0987 122.887 56.0458 123.31 56.0766C123.733 56.1074 124.147 56.2214 124.526 56.412C124.905 56.6027 125.243 56.8662 125.521 57.1876C125.798 57.5091 126.01 57.8821 126.144 58.2853L129.341 67.943C129.607 68.7373 129.554 69.6041 129.192 70.3597C128.831 71.1154 128.19 71.7005 127.405 71.9913C127.366 72.0057 127.328 72.0193 127.288 72.0321L85.6721 85.8369C85.3432 85.9467 84.9989 86.0027 84.6522 86.003Z" fill="#2F2E41"/>
<path d="M162.592 37.9019C154.192 37.9052 146.123 41.1798 140.093 47.0326C134.063 52.8854 130.545 60.8572 130.284 69.2606C130.274 69.5887 130.27 69.9215 130.27 70.2543C130.27 76.653 132.166 82.9079 135.717 88.2282C139.269 93.5486 144.317 97.6952 150.223 100.144C156.129 102.593 162.628 103.233 168.897 101.985C175.167 100.737 180.926 97.6554 185.447 93.1308C189.967 88.6063 193.045 82.8416 194.293 76.5659C195.54 70.2902 194.9 63.7852 192.453 57.8736C190.007 51.962 185.864 46.9092 180.549 43.3543C175.234 39.7994 168.984 37.9019 162.592 37.9019ZM162.592 101.682C154.267 101.674 146.286 98.3596 140.399 92.4676C134.513 86.5756 131.202 78.5868 131.193 70.2543C131.193 69.8244 131.203 69.3992 131.221 68.9787C131.471 62.8224 133.524 56.8755 137.123 51.8774C140.723 46.8794 145.711 43.0506 151.467 40.8674C157.223 38.6841 163.493 38.2426 169.498 39.5977C175.503 40.9528 180.977 44.0448 185.241 48.4892C189.504 52.9336 192.368 58.5344 193.477 64.595C194.585 70.6556 193.89 76.9087 191.476 82.5767C189.063 88.2448 185.038 93.0777 179.903 96.4746C174.767 99.8715 168.747 101.682 162.592 101.682Z" fill="#3F3D56"/>
<path d="M189.834 70.2543C189.834 77.4863 186.964 84.4221 181.855 89.5359C176.746 94.6497 169.817 97.5226 162.592 97.5226C155.366 97.5226 148.437 94.6497 143.328 89.5359C138.219 84.4221 135.349 77.4863 135.349 70.2543C135.349 69.39 135.39 68.5396 135.469 67.6984C136.125 60.7188 139.442 54.2603 144.731 49.6641C150.02 45.0679 156.874 42.6871 163.87 43.016C170.866 43.3449 177.467 46.3583 182.302 51.4304C187.137 56.5026 189.834 63.2437 189.834 70.2543Z" fill="#E6E6E6"/>
<path d="M170.704 72.066C170.044 71.197 169.175 70.5087 168.179 70.0648C166.95 69.5462 165.68 69.1289 164.383 68.8169V61.3943C166.377 61.6952 168.247 62.5485 169.781 63.8577L171.286 60.6456C170.421 59.8736 169.427 59.2589 168.349 58.8293C167.156 58.3454 165.902 58.0236 164.623 57.8726V54.1104H161.137V57.9095C159.791 58.0609 158.493 58.4973 157.328 59.1898C156.276 59.813 155.39 60.682 154.747 61.7225C154.133 62.7378 153.814 63.9049 153.828 65.0917C153.768 66.3779 154.14 67.6471 154.885 68.6967C155.571 69.6054 156.477 70.3244 157.517 70.7858C158.766 71.3196 160.057 71.7478 161.377 72.066V79.1789C159.025 79.0012 156.783 78.106 154.955 76.6138L153.449 79.8305C154.472 80.6766 155.634 81.3367 156.885 81.7809C158.255 82.2716 159.686 82.5702 161.137 82.6683V86.3981H164.623V82.599C166.56 82.3872 168.376 81.5538 169.799 80.2234C170.427 79.6215 170.922 78.8957 171.254 78.0922C171.586 77.2887 171.748 76.4248 171.73 75.5554C171.787 74.3102 171.427 73.0816 170.704 72.066ZM161.377 68.0312C160.528 67.7734 159.739 67.3492 159.055 66.7833C158.784 66.542 158.57 66.2436 158.427 65.9096C158.285 65.5756 158.219 65.2142 158.233 64.8514C158.208 64.0282 158.51 63.2287 159.073 62.6284C159.698 61.9985 160.503 61.5799 161.377 61.4313V68.0312ZM166.572 77.8663C165.983 78.471 165.216 78.871 164.383 79.0079V72.8887C165.179 73.1024 165.924 73.475 166.572 73.984C166.818 74.1941 167.013 74.457 167.143 74.753C167.274 75.0491 167.336 75.3707 167.325 75.6941C167.357 76.4873 167.088 77.2633 166.572 77.8663Z" fill="#791CAC"/>
<path d="M86.1362 125.144C85.4224 125.143 84.729 124.906 84.1634 124.47C83.5978 124.034 83.1916 123.424 83.0079 122.734L81.2671 116.138C81.0492 115.309 81.1687 114.428 81.5993 113.687C82.03 112.946 82.7366 112.406 83.5643 112.186L138.484 97.6601C139.313 97.4437 140.193 97.5645 140.933 97.9963C141.673 98.4281 142.212 99.1357 142.432 99.9642L143.907 105.552L143.631 105.573C129.546 106.67 116.069 111.781 104.795 120.303L104.715 120.342L86.9562 125.038C86.6886 125.108 86.413 125.144 86.1362 125.144Z" fill="#2F2E41"/>
<path d="M77.0404 157.721C70.598 156.769 64.4366 154.437 58.9761 150.885C56.2709 149.126 53.7665 147.076 51.5079 144.771C49.2787 142.495 47.1461 139.908 46.0419 136.877C44.9796 134.073 45.0343 130.968 46.1949 128.203C47.3396 125.455 49.5263 123.273 52.2754 122.136C55.0411 121.032 58.3825 120.914 61.0741 122.123C62.3567 122.686 63.4666 123.58 64.2898 124.714C64.6725 125.237 64.9558 125.826 65.1257 126.451C65.2834 127.018 65.2977 127.615 65.1674 128.188C65.0096 128.761 64.7313 129.293 64.3511 129.75C63.9709 130.206 63.4977 130.575 62.9631 130.833C61.7867 131.438 60.512 131.827 59.199 131.983C57.8783 132.163 55.9813 132.327 54.9196 131.266C54.701 131.056 54.5291 130.802 54.4151 130.521C54.3353 130.306 54.308 130.075 54.3355 129.847C54.32 129.948 54.3995 129.629 54.395 129.642C54.3782 129.689 54.3055 129.804 54.4088 129.627C54.4411 129.569 54.4771 129.513 54.5165 129.459C54.4814 129.505 54.4043 129.581 54.5419 129.451C54.6557 129.326 54.8019 129.236 54.9641 129.19C55.028 129.171 55.0929 129.156 55.1569 129.139C55.3198 129.094 54.9946 129.141 55.1612 129.136C55.2255 129.134 55.2906 129.135 55.3547 129.133C55.5182 129.125 55.1934 129.088 55.3501 129.127C55.4109 129.143 55.4712 129.158 55.5311 129.176C55.6613 129.218 55.4389 129.081 55.5271 129.183C55.6305 129.303 55.4185 129.067 55.5361 129.183C55.5946 129.24 55.6497 129.301 55.7012 129.365C55.9051 129.566 56.1801 129.679 56.4666 129.679C56.7531 129.679 57.028 129.566 57.2319 129.365C57.4288 129.159 57.5387 128.884 57.5387 128.599C57.5387 128.313 57.4288 128.039 57.2319 127.833C56.1646 126.508 54.0565 126.836 52.9768 127.955C51.5999 129.382 52.1452 131.645 53.4845 132.89C55.0007 134.3 57.1482 134.398 59.0985 134.162C60.7468 134.004 62.3531 133.549 63.8402 132.82C65.3179 132.094 66.4735 130.844 67.0835 129.313C67.3589 128.496 67.4578 127.63 67.3737 126.772C67.2896 125.914 67.0244 125.084 66.5957 124.336C64.8737 121.096 61.3081 119.434 57.7837 119.147C55.9691 119.004 54.1444 119.224 52.4151 119.792C50.6858 120.36 49.0863 121.266 47.7091 122.457C45.0545 124.849 43.4199 128.171 43.1433 131.735C42.8356 135.431 44.2681 139.02 46.3566 142.002C48.5431 145.032 51.1522 147.733 54.1044 150.022C59.8759 154.635 66.6458 157.83 73.8724 159.354C74.732 159.532 75.5962 159.684 76.465 159.811C76.7414 159.878 77.033 159.837 77.2804 159.696C77.5277 159.556 77.7122 159.326 77.7964 159.054C77.8706 158.777 77.8329 158.482 77.6914 158.232C77.5499 157.983 77.3161 157.799 77.0404 157.721Z" fill="#3F3D56"/>
<path d="M180.186 110.637C170.748 110.503 161.338 110.743 151.959 111.356C148.753 111.565 145.979 112.7 145.979 114.606C145.979 116.2 148.731 118.067 151.959 117.856C161.334 117.243 170.743 117.003 180.186 117.137C187.885 117.245 187.881 110.745 180.186 110.637Z" fill="#CCCCCC"/>
<path d="M166.236 116.815C165.216 116.815 141.253 116.777 141.253 113.463C141.253 110.151 165.216 110.112 166.236 110.112C167.256 110.112 191.218 110.151 191.218 113.463C191.218 116.777 167.256 116.815 166.236 116.815ZM142.19 113.463C142.846 114.468 151.654 115.89 166.236 115.89C180.817 115.89 189.626 114.468 190.281 113.463C189.626 112.459 180.817 111.037 166.236 111.037C151.654 111.037 142.846 112.459 142.19 113.463Z" fill="#3F3D56"/>
<path d="M242.263 203.912C247.568 203.764 254.17 203.58 259.256 199.861C260.77 198.709 262.014 197.238 262.901 195.553C263.788 193.869 264.297 192.01 264.39 190.108C264.494 187.171 263.434 184.607 261.405 182.891C258.749 180.645 254.87 180.118 250.689 181.347L255.021 149.666L251.841 149.23L246.75 186.475L249.405 185.256C252.483 183.843 256.708 183.124 259.334 185.344C259.978 185.925 260.481 186.647 260.802 187.453C261.122 188.26 261.253 189.13 261.183 189.995C261.106 191.411 260.724 192.793 260.065 194.048C259.405 195.303 258.484 196.401 257.362 197.267C253.404 200.161 248.142 200.534 242.174 200.701L242.263 203.912Z" fill="#3F3D56"/>
<path d="M233.472 152.398H216.188V155.61H233.472V152.398Z" fill="#3F3D56"/>
<path d="M93.9574 139.918C93.188 139.916 92.4447 139.639 91.8606 139.138C91.2764 138.637 90.8896 137.944 90.7695 137.183L89.7145 130.444C89.5827 129.596 89.7923 128.731 90.2971 128.038C90.802 127.345 91.561 126.88 92.4075 126.747L148.524 117.946C149.37 117.814 150.235 118.024 150.927 118.529C151.62 119.034 152.083 119.794 152.217 120.641L153.272 127.381C153.404 128.228 153.194 129.093 152.689 129.787C152.185 130.48 151.426 130.944 150.579 131.078L94.4631 139.879C94.2958 139.905 94.1267 139.918 93.9574 139.918Z" fill="#2F2E41"/>
<path d="M70.7338 60.9401C83.7394 60.9401 94.2826 50.387 94.2826 37.3691C94.2826 24.3512 83.7394 13.7981 70.7338 13.7981C57.7281 13.7981 47.185 24.3512 47.185 37.3691C47.185 50.387 57.7281 60.9401 70.7338 60.9401Z" fill="#791CAC"/>
<path d="M84.0667 43.468C84.8193 43.2045 85.5068 42.7827 86.083 42.2311C86.4643 41.8378 86.755 41.3659 86.9348 40.8483C87.1147 40.3307 87.1793 39.78 87.1241 39.2348C87.0921 38.8462 86.9707 38.4703 86.7695 38.1365C86.5683 37.8026 86.2927 37.5198 85.9642 37.3103C85.112 36.7857 83.9858 36.8055 82.8489 37.333L82.7176 28.1321L81.7943 28.1453L81.9485 38.9619L82.6514 38.5005C83.4665 37.9663 84.6377 37.5789 85.4803 38.0977C85.6887 38.235 85.8627 38.4186 85.9887 38.6342C86.1146 38.8498 86.1892 39.0916 86.2066 39.3407C86.2455 39.7469 86.1965 40.1566 86.0629 40.5421C85.9293 40.9276 85.7144 41.2798 85.4326 41.5747C84.4316 42.5689 82.9499 42.902 81.2589 43.2067L81.4225 44.1163C82.3215 43.9797 83.2064 43.7627 84.0667 43.468Z" fill="#2F2E41"/>
<path d="M92.2267 27.4863L87.3091 28.2317L87.4473 29.1456L92.365 28.4001L92.2267 27.4863Z" fill="#2F2E41"/>
<path d="M76.7044 29.8388L71.7867 30.5842L71.925 31.498L76.8427 30.7526L76.7044 29.8388Z" fill="#2F2E41"/>
<path d="M86.2959 139.506C85.449 139.504 84.6227 139.244 83.927 138.761C83.2313 138.277 82.6992 137.593 82.4014 136.8L66.1651 93.2773C64.1806 87.9395 64.3925 82.0318 66.7544 76.8502C69.1162 71.6686 73.435 67.6364 78.7633 65.6382L91.9653 60.7038C92.4758 60.5118 93.0192 60.4226 93.5642 60.4415C94.1093 60.4605 94.6452 60.5871 95.1412 60.8142C95.6359 61.0355 96.0816 61.3532 96.4523 61.7489C96.823 62.1445 97.1111 62.6101 97.3 63.1185L127.376 119.959C127.571 120.471 127.663 121.017 127.647 121.566C127.631 122.114 127.506 122.654 127.28 123.154C127.055 123.653 126.733 124.104 126.333 124.479C125.932 124.853 125.462 125.145 124.949 125.338L87.7482 139.242C87.2838 139.416 86.7919 139.506 86.2959 139.506Z" fill="#2F2E41"/>
<path d="M87.9598 62.2008L117.802 102.145L97.609 62.62C97.4423 62.1589 97.1863 61.7351 96.8559 61.3729C96.5255 61.0108 96.127 60.7173 95.6833 60.5093C95.2395 60.3013 94.7592 60.1829 94.2697 60.1608C93.7802 60.1386 93.2911 60.2132 92.8305 60.3803L87.9598 62.2008Z" fill="#E6E6E6"/>
<path d="M135.211 92.5358L81.9279 89.1003C81.0881 89.0462 80.2671 88.827 79.5118 88.4553C78.7566 88.0835 78.0819 87.5666 77.5263 86.9338C76.9707 86.3011 76.545 85.5651 76.2736 84.7677C76.0022 83.9703 75.8903 83.1272 75.9444 82.2865C75.9985 81.4459 76.2175 80.6241 76.5889 79.8682C76.9602 79.1122 77.4767 78.4369 78.1089 77.8808C78.741 77.3246 79.4764 76.8986 80.273 76.6269C81.0696 76.3552 81.9119 76.2432 82.7518 76.2974L136.034 79.7325C136.428 79.7579 136.812 79.8605 137.166 80.0346C137.52 80.2086 137.836 80.4507 138.096 80.747C138.356 81.0433 138.555 81.3881 138.683 81.7615C138.81 82.1349 138.862 82.5298 138.837 82.9234L138.399 89.7309C138.348 90.526 137.983 91.2682 137.385 91.7942C136.787 92.3202 136.005 92.5869 135.211 92.5358Z" fill="#791CAC"/>
<path d="M120.973 94.7381C120.902 94.7381 120.832 94.7358 120.761 94.7313L77.0083 91.9104C76.5847 91.8832 76.1707 91.7726 75.7897 91.5852C75.4088 91.3977 75.0685 91.137 74.7883 90.8179C74.5081 90.4988 74.2934 90.1276 74.1565 89.7255C74.0196 89.3233 73.9632 88.8981 73.9905 88.4741L74.7387 76.8466C74.766 76.4226 74.8765 76.0082 75.0638 75.6269C75.2511 75.2456 75.5116 74.9051 75.8304 74.6246C76.1493 74.3441 76.5202 74.1292 76.922 73.9923C77.3238 73.8553 77.7486 73.7988 78.1722 73.8262L121.925 76.6469C122.78 76.7029 123.578 77.0962 124.144 77.7404C124.709 78.3847 124.997 79.2272 124.943 80.0832L124.194 91.7109C124.153 92.334 123.933 92.9319 123.561 93.4328C123.189 93.9338 122.68 94.3166 122.095 94.5352C121.736 94.6696 121.356 94.7383 120.973 94.7381Z" fill="#2F2E41"/>
<path d="M70.4638 21.6948C73.5618 19.0279 77.8159 21.4136 81.3686 20.996C84.7676 20.5964 87.4515 17.5447 88.1371 14.3026C88.937 10.5201 86.9756 6.73066 84.0846 4.37237C80.9182 1.78946 76.7188 1.04797 72.7394 1.52583C68.1785 2.07351 64.0073 4.20153 60.2646 6.77547C56.6519 9.183 53.3296 12.0009 50.3641 15.1728C47.7086 18.1084 45.4586 21.6076 44.7402 25.5578C44.0873 29.1478 44.5858 33.1259 46.7061 36.1671C47.8304 37.7259 49.337 38.9683 51.0807 39.7745C52.8987 40.6681 54.8381 41.307 56.5995 42.3173C59.2627 43.8449 61.8511 47.0125 61.0168 50.3088C60.838 51.0288 60.485 51.6938 59.989 52.2453C59.3931 52.9074 58.3181 52.0324 58.9156 51.3685C59.9651 50.2024 59.9237 48.6472 59.3645 47.255C58.6994 45.6862 57.5218 44.39 56.0245 43.5787C54.1807 42.5236 52.1452 41.8723 50.2555 40.9113C48.4467 40.0333 46.8767 38.731 45.679 37.115C43.4173 33.969 42.7407 29.8746 43.2537 26.087C43.8088 21.9883 45.9127 18.2637 48.5501 15.1425C51.4204 11.7458 54.9461 8.87052 58.548 6.2875C62.4128 3.5159 66.6826 1.1727 71.4075 0.325208C75.5032 -0.409439 79.9426 0.0428562 83.5242 2.27695C86.8673 4.36233 89.4309 7.94959 89.6859 11.958C89.7774 13.7818 89.3818 15.5971 88.5397 17.2171C87.6976 18.837 86.4394 20.2031 84.8947 21.1747C83.3097 22.1241 81.4669 22.5515 79.6263 22.3964C77.6585 22.2704 75.6889 21.6672 73.7085 21.8347C72.8124 21.8891 71.9585 22.2345 71.2761 22.8184C70.5992 23.4011 69.7925 22.2727 70.4638 21.6948Z" fill="#2F2E41"/>
</svg>
