<svg width="25" height="25" viewBox="0 0 25 25" fill="none" xmlns="http://www.w3.org/2000/svg">
<path d="M4.4375 11.479V16.6561C4.4375 18.5519 4.4375 18.5519 6.22917 19.7603L11.1562 22.604C11.8958 23.0311 13.1042 23.0311 13.8437 22.604L18.7708 19.7603C20.5625 18.5519 20.5625 18.5519 20.5625 16.6561V11.479C20.5625 9.58321 20.5625 9.58321 18.7708 8.37488L13.8437 5.53113C13.1042 5.10404 11.8958 5.10404 11.1562 5.53113L6.22917 8.37488C4.4375 9.58321 4.4375 9.58321 4.4375 11.479Z" stroke="#1B1A18" stroke-width="1.5" stroke-linecap="round" stroke-linejoin="round"/>
<path d="M18.2291 7.94796V5.20837C18.2291 3.12504 17.1874 2.08337 15.1041 2.08337H9.89575C7.81242 2.08337 6.77075 3.12504 6.77075 5.20837V7.87504" stroke="#1B1A18" stroke-width="1.5" stroke-linecap="round" stroke-linejoin="round"/>
<path d="M13.1563 11.4479L13.7501 12.375C13.8438 12.5208 14.0522 12.6666 14.2084 12.7083L15.2709 12.9791C15.9272 13.1458 16.1042 13.7083 15.6772 14.2291L14.9792 15.0729C14.8751 15.2083 14.7917 15.4479 14.8022 15.6145L14.8647 16.7083C14.9063 17.3854 14.4272 17.7291 13.8022 17.4791L12.7813 17.0729C12.6251 17.0104 12.3647 17.0104 12.2084 17.0729L11.1876 17.4791C10.5626 17.7291 10.0834 17.375 10.1251 16.7083L10.1876 15.6145C10.198 15.4479 10.1147 15.1979 10.0105 15.0729L9.3126 14.2291C8.88551 13.7083 9.0626 13.1458 9.71885 12.9791L10.7813 12.7083C10.948 12.6666 11.1563 12.5104 11.2397 12.375L11.8334 11.4479C12.2084 10.8854 12.7917 10.8854 13.1563 11.4479Z" stroke="#1B1A18" stroke-width="1.5" stroke-linecap="round" stroke-linejoin="round"/>
</svg>
