<svg width="25" height="25" viewBox="0 0 25 25" fill="none" xmlns="http://www.w3.org/2000/svg">
<path fill-rule="evenodd" clip-rule="evenodd" d="M12.5001 11.1771C12.9315 11.1771 13.2813 11.5269 13.2813 11.9583V13.2604H14.5834C15.0149 13.2604 15.3647 13.6102 15.3647 14.0417C15.3647 14.4731 15.0149 14.8229 14.5834 14.8229H13.2813V16.125C13.2813 16.5565 12.9315 16.9063 12.5001 16.9063C12.0686 16.9063 11.7188 16.5565 11.7188 16.125V14.8229H10.4167C9.98528 14.8229 9.6355 14.4731 9.6355 14.0417C9.6355 13.6102 9.98528 13.2604 10.4167 13.2604H11.7188V11.9583C11.7188 11.5269 12.0686 11.1771 12.5001 11.1771Z" fill="#1B1A18"/>
<path fill-rule="evenodd" clip-rule="evenodd" d="M10.1851 22.375H14.8147C18.0659 22.375 19.6914 22.375 20.8591 21.609C21.3645 21.2773 21.7986 20.8511 22.1364 20.3549C22.9166 19.2084 22.9166 17.6124 22.9166 14.4204C22.9166 11.2285 22.9166 9.63251 22.1364 8.48604C21.7986 7.98973 21.3645 7.56358 20.8591 7.23196C20.1087 6.73972 19.1694 6.56378 17.7312 6.5009C17.0448 6.5009 16.454 5.99029 16.3194 5.32954C16.1174 4.33843 15.2311 3.625 14.2017 3.625H10.7981C9.76872 3.625 8.88237 4.33843 8.68047 5.32954C8.54588 5.99029 7.95497 6.5009 7.26867 6.5009C5.83047 6.56378 4.89112 6.73972 4.14079 7.23196C3.63528 7.56358 3.20125 7.98973 2.86348 8.48604C2.08325 9.63251 2.08325 11.2285 2.08325 14.4204C2.08325 17.6124 2.08325 19.2084 2.86348 20.3549C3.20125 20.8511 3.63528 21.2773 4.14079 21.609C5.3085 22.375 6.93403 22.375 10.1851 22.375ZM16.6666 14.0417C16.6666 16.3428 14.8011 18.2083 12.4999 18.2083C10.1987 18.2083 8.33325 16.3428 8.33325 14.0417C8.33325 11.7405 10.1987 9.875 12.4999 9.875C14.8011 9.875 16.6666 11.7405 16.6666 14.0417ZM18.7499 10.1354C18.3185 10.1354 17.9687 10.4852 17.9687 10.9167C17.9687 11.3481 18.3185 11.6979 18.7499 11.6979H19.7916C20.223 11.6979 20.5728 11.3481 20.5728 10.9167C20.5728 10.4852 20.223 10.1354 19.7916 10.1354H18.7499Z" fill="#1B1A18"/>
</svg>
