<svg width="25" height="25" viewBox="0 0 25 25" fill="none" xmlns="http://www.w3.org/2000/svg">
<path d="M21.8438 1.54169H18.7813C17.8751 1.54169 17.2084 1.91669 16.9063 2.58335C16.7397 2.88544 16.6667 3.2396 16.6667 3.65627V6.71877C16.6667 8.04169 17.4584 8.83335 18.7813 8.83335H21.8438C22.2605 8.83335 22.6147 8.76044 22.9167 8.59377C23.5834 8.29169 23.9584 7.62502 23.9584 6.71877V3.65627C23.9584 2.33335 23.1667 1.54169 21.8438 1.54169ZM22.823 5.63544C22.7188 5.7396 22.5626 5.81252 22.3959 5.82294H20.9272V6.35419L20.9376 7.27085C20.9272 7.44794 20.8647 7.59377 20.7397 7.71877C20.6355 7.82294 20.4792 7.89585 20.3126 7.89585C19.9688 7.89585 19.6876 7.6146 19.6876 7.27085V5.81252L18.2292 5.82294C17.8855 5.82294 17.6042 5.53127 17.6042 5.18752C17.6042 4.84377 17.8855 4.56252 18.2292 4.56252L19.1459 4.57294H19.6876V3.1146C19.6876 2.77085 19.9688 2.47919 20.3126 2.47919C20.6563 2.47919 20.9376 2.77085 20.9376 3.1146L20.9272 3.85419V4.56252H22.3959C22.7397 4.56252 23.0209 4.84377 23.0209 5.18752C23.0105 5.3646 22.9376 5.51044 22.823 5.63544Z" fill="#1B1A18"/>
<path d="M9.37614 11.3136C10.7453 11.3136 11.8553 10.2037 11.8553 8.83445C11.8553 7.46525 10.7453 6.35529 9.37614 6.35529C8.00694 6.35529 6.89697 7.46525 6.89697 8.83445C6.89697 10.2037 8.00694 11.3136 9.37614 11.3136Z" fill="#1B1A18"/>
<path d="M21.8437 8.83331H21.3541V13.6354L21.2187 13.5208C20.4062 12.8229 19.0937 12.8229 18.2812 13.5208L13.9478 17.2396C13.1353 17.9375 11.8228 17.9375 11.0103 17.2396L10.6562 16.9479C9.91658 16.3021 8.7395 16.2396 7.90617 16.8021L4.01034 19.4166C3.78117 18.8333 3.64575 18.1562 3.64575 17.3646V8.6354C3.64575 5.6979 5.19784 4.14581 8.13533 4.14581H16.6666V3.65623C16.6666 3.23956 16.7395 2.8854 16.9062 2.58331H8.13533C4.34367 2.58331 2.08325 4.84373 2.08325 8.6354V17.3646C2.08325 18.5 2.28117 19.4896 2.66659 20.3229C3.56242 22.3021 5.47909 23.4166 8.13533 23.4166H16.8645C20.6562 23.4166 22.9166 21.1562 22.9166 17.3646V8.59373C22.6145 8.7604 22.2603 8.83331 21.8437 8.83331Z" fill="#1B1A18"/>
</svg>
