<svg width="26" height="25" viewBox="0 0 26 25" fill="none" xmlns="http://www.w3.org/2000/svg">
<path fill-rule="evenodd" clip-rule="evenodd" d="M13.0001 10.6772C13.4315 10.6772 13.7813 11.027 13.7813 11.4585V12.7606H15.0834C15.5149 12.7606 15.8647 13.1104 15.8647 13.5418C15.8647 13.9733 15.5149 14.3231 15.0834 14.3231H13.7813V15.6252C13.7813 16.0566 13.4315 16.4064 13.0001 16.4064C12.5686 16.4064 12.2188 16.0566 12.2188 15.6252V14.3231H10.9167C10.4853 14.3231 10.1355 13.9733 10.1355 13.5418C10.1355 13.1104 10.4853 12.7606 10.9167 12.7606H12.2188V11.4585C12.2188 11.027 12.5686 10.6772 13.0001 10.6772Z" fill="#1B1A18"/>
<path fill-rule="evenodd" clip-rule="evenodd" d="M10.6851 21.875H15.3147C18.5659 21.875 20.1914 21.875 21.3591 21.109C21.8645 20.7773 22.2986 20.3511 22.6364 19.8549C23.4166 18.7084 23.4166 17.1124 23.4166 13.9204C23.4166 10.7285 23.4166 9.13251 22.6364 7.98604C22.2986 7.48973 21.8645 7.06358 21.3591 6.73196C20.6087 6.23972 19.6694 6.06378 18.2312 6.0009C17.5448 6.0009 16.954 5.49029 16.8194 4.82954C16.6174 3.83843 15.7311 3.125 14.7017 3.125H11.2981C10.2687 3.125 9.38237 3.83843 9.18047 4.82954C9.04588 5.49029 8.45497 6.0009 7.76867 6.0009C6.33047 6.06378 5.39112 6.23972 4.64079 6.73196C4.13528 7.06358 3.70125 7.48973 3.36348 7.98604C2.58325 9.13251 2.58325 10.7285 2.58325 13.9204C2.58325 17.1124 2.58325 18.7084 3.36348 19.8549C3.70125 20.3511 4.13528 20.7773 4.64079 21.109C5.8085 21.875 7.43403 21.875 10.6851 21.875ZM17.1666 13.5417C17.1666 15.8428 15.3011 17.7083 12.9999 17.7083C10.6987 17.7083 8.83325 15.8428 8.83325 13.5417C8.83325 11.2405 10.6987 9.375 12.9999 9.375C15.3011 9.375 17.1666 11.2405 17.1666 13.5417ZM19.2499 9.63542C18.8185 9.63542 18.4687 9.9852 18.4687 10.4167C18.4687 10.8481 18.8185 11.1979 19.2499 11.1979H20.2916C20.723 11.1979 21.0728 10.8481 21.0728 10.4167C21.0728 9.9852 20.723 9.63542 20.2916 9.63542H19.2499Z" fill="#1B1A18"/>
</svg>
