<svg width="26" height="25" viewBox="0 0 26 25" fill="none" xmlns="http://www.w3.org/2000/svg">
<path d="M22.3438 1.0415H19.2813C18.3751 1.0415 17.7084 1.4165 17.4063 2.08317C17.2397 2.38525 17.1667 2.73942 17.1667 3.15609V6.21859C17.1667 7.5415 17.9584 8.33317 19.2813 8.33317H22.3438C22.7605 8.33317 23.1147 8.26025 23.4167 8.09359C24.0834 7.7915 24.4584 7.12484 24.4584 6.21859V3.15609C24.4584 1.83317 23.6667 1.0415 22.3438 1.0415ZM23.323 5.13525C23.2188 5.23942 23.0626 5.31234 22.8959 5.32275H21.4272V5.854L21.4376 6.77067C21.4272 6.94775 21.3647 7.09359 21.2397 7.21859C21.1355 7.32275 20.9792 7.39567 20.8126 7.39567C20.4688 7.39567 20.1876 7.11442 20.1876 6.77067V5.31234L18.7292 5.32275C18.3855 5.32275 18.1042 5.03109 18.1042 4.68734C18.1042 4.34359 18.3855 4.06234 18.7292 4.06234L19.6459 4.07275H20.1876V2.61442C20.1876 2.27067 20.4688 1.979 20.8126 1.979C21.1563 1.979 21.4376 2.27067 21.4376 2.61442L21.4272 3.354V4.06234H22.8959C23.2397 4.06234 23.5209 4.34359 23.5209 4.68734C23.5105 4.86442 23.4376 5.01025 23.323 5.13525Z" fill="#1B1A18"/>
<path d="M9.87614 10.8138C11.2453 10.8138 12.3553 9.70384 12.3553 8.33464C12.3553 6.96544 11.2453 5.85547 9.87614 5.85547C8.50694 5.85547 7.39697 6.96544 7.39697 8.33464C7.39697 9.70384 8.50694 10.8138 9.87614 10.8138Z" fill="#1B1A18"/>
<path d="M22.3437 8.3335H21.8541V13.1356L21.7187 13.021C20.9062 12.3231 19.5937 12.3231 18.7812 13.021L14.4478 16.7397C13.6353 17.4377 12.3228 17.4377 11.5103 16.7397L11.1562 16.4481C10.4166 15.8022 9.2395 15.7397 8.40617 16.3022L4.51034 18.9168C4.28117 18.3335 4.14575 17.6564 4.14575 16.8647V8.13558C4.14575 5.19808 5.69784 3.646 8.63533 3.646H17.1666V3.15641C17.1666 2.73975 17.2395 2.38558 17.4062 2.0835H8.63533C4.84367 2.0835 2.58325 4.34391 2.58325 8.13558V16.8647C2.58325 18.0002 2.78117 18.9897 3.16659 19.8231C4.06242 21.8022 5.97909 22.9168 8.63533 22.9168H17.3645C21.1562 22.9168 23.4166 20.6564 23.4166 16.8647V8.09391C23.1145 8.26058 22.7603 8.3335 22.3437 8.3335Z" fill="#1B1A18"/>
</svg>
