<svg xmlns="http://www.w3.org/2000/svg" xmlns:xlink="http://www.w3.org/1999/xlink" width="50" zoomAndPan="magnify" viewBox="0 0 37.5 38.249999" height="51" preserveAspectRatio="xMidYMid meet" version="1.0"><defs><g/><clipPath id="61c7be81c2"><path d="M 0.117188 0 L 36.894531 0 L 36.894531 37.515625 L 0.117188 37.515625 Z M 0.117188 0 " clip-rule="nonzero"/></clipPath><clipPath id="dbd5ac3419"><path d="M 4 0 L 36.894531 0 L 36.894531 37.515625 L 4 37.515625 Z M 4 0 " clip-rule="nonzero"/></clipPath><clipPath id="a91bad184f"><path d="M 0.117188 0 L 30 0 L 30 35 L 0.117188 35 Z M 0.117188 0 " clip-rule="nonzero"/></clipPath><clipPath id="1908a1aab5"><path d="M 0.117188 0 L 36 0 L 36 34 L 0.117188 34 Z M 0.117188 0 " clip-rule="nonzero"/></clipPath><clipPath id="4b26a5bb23"><path d="M 0.117188 0 L 36.894531 0 L 36.894531 33 L 0.117188 33 Z M 0.117188 0 " clip-rule="nonzero"/></clipPath><clipPath id="e15468d701"><path d="M 5 0 L 36.894531 0 L 36.894531 32 L 5 32 Z M 5 0 " clip-rule="nonzero"/></clipPath><clipPath id="9e25c23c47"><path d="M 2.828125 19.039062 L 17.132812 19.039062 L 17.132812 30.960938 L 2.828125 30.960938 Z M 2.828125 19.039062 " clip-rule="nonzero"/></clipPath></defs><g clip-path="url(#61c7be81c2)"><path stroke-linecap="butt" transform="matrix(0.10833, -0.0028142, 0.0028142, 0.10833, 18.734594, 14.043362)" fill="none" stroke-linejoin="miter" d="M 1.494627 126.998517 L 25.616686 22.946232 L 67.556248 21.439504 L 91.677915 126.997483 L 60.775701 126.987997 L 57.150331 106.917196 L 36.055134 106.946125 L 32.432876 127.00894 Z M 55.049624 92.006365 L 50.376016 62.316671 L 42.840112 62.301197 L 38.137245 92.035779 Z M 55.049624 92.006365 " stroke="#ffbcd9" stroke-width="39.590775" stroke-opacity="1" stroke-miterlimit="4"/></g><g clip-path="url(#dbd5ac3419)"><path stroke-linecap="butt" transform="matrix(0.108148, 0.00687039, -0.00687039, 0.108148, 29.709772, 13.930854)" fill="none" stroke-linejoin="miter" d="M 35.142832 21.414875 L 31.230496 126.98755 L 3.456635 127.018222 L 3.021847 22.949768 Z M 35.142832 21.414875 " stroke="#ffbcd9" stroke-width="39.590775" stroke-opacity="1" stroke-miterlimit="4"/></g><g fill="#f62c04" fill-opacity="1"><g transform="translate(19.091998, 27.801242)"><g><path d="M 0.15625 0 L 2.484375 -11.359375 L 7.03125 -11.625 L 9.9375 -0.265625 L 6.59375 -0.171875 L 6.125 -2.328125 L 3.84375 -2.265625 L 3.515625 -0.09375 Z M 5.875 -3.953125 L 5.265625 -7.15625 L 4.453125 -7.140625 L 4.046875 -3.90625 Z M 5.875 -3.953125 "/></g></g></g><g fill="#f62c04" fill-opacity="1"><g transform="translate(28.837234, 27.665687)"><g><path d="M 4.53125 -11.1875 L 3.390625 0.21875 L 0.375 0.03125 L 1.046875 -11.25 Z M 4.53125 -11.1875 "/></g></g></g><g clip-path="url(#a91bad184f)"><path stroke-linecap="butt" transform="matrix(0.245766, -0.0546222, 0.0546222, 0.245766, 2.899116, 6.893836)" fill="none" stroke-linejoin="miter" d="M 1.104636 39.999692 L 1.551579 6.594087 L 11.036433 6.11137 L 16.119967 23.787045 L 16.1272 6.591146 L 25.946951 6.10339 L 24.92949 40.00207 L 16.26759 40.000134 L 11.035891 24.707445 L 11.038811 39.998299 Z M 1.104636 39.999692 " stroke="#ffbcd9" stroke-width="12.71151" stroke-opacity="1" stroke-miterlimit="4"/></g><g clip-path="url(#1908a1aab5)"><path stroke-linecap="butt" transform="matrix(0.248767, -0.0387228, 0.0387228, 0.248767, 9.919379, 5.356145)" fill="none" stroke-linejoin="miter" d="M 0.975105 40.00186 L 0.963486 6.585256 L 23.538922 6.110903 L 23.538647 15.595135 L 9.723126 16.082636 L 9.734631 20.245574 L 20.6727 19.278767 L 20.674521 28.245144 L 9.687782 28.7176 L 9.676796 32.924145 L 23.535633 31.95661 L 23.540273 39.996982 Z M 0.975105 40.00186 " stroke="#ffbcd9" stroke-width="12.71151" stroke-opacity="1" stroke-miterlimit="4"/></g><g clip-path="url(#4b26a5bb23)"><path stroke-linecap="butt" transform="matrix(0.250761, -0.0224326, 0.0224326, 0.250761, 16.365397, 4.350423)" fill="none" stroke-linejoin="miter" d="M 14.004064 36.649526 C 14.705018 36.649922 15.316015 36.611115 15.822981 36.516269 C 16.314494 36.420041 16.729873 36.130071 17.03821 35.643595 C 17.374691 35.190791 17.592823 34.493737 17.723515 33.555198 C 17.807846 32.612511 17.813032 31.335615 17.726383 29.69222 L 13.411095 29.695623 C 12.382844 29.697103 11.480989 29.678736 10.690076 29.639137 C 9.927306 29.633212 9.215045 29.585072 8.568747 29.496101 C 7.890158 29.419818 7.27615 29.318158 6.73087 29.144758 C 6.150535 29.014954 5.543439 28.836024 4.896895 28.575678 C 3.312946 27.997809 2.201798 27.010488 1.547996 25.61233 C 0.877358 24.228244 0.524735 22.249505 0.53787 19.664806 C 0.529971 19.056574 0.520443 18.292422 0.476995 17.385037 C 0.449001 16.479034 0.517878 15.534965 0.669554 14.535992 C 0.805776 13.535637 1.083849 12.516817 1.503771 11.479531 C 1.920928 10.473152 2.5812 9.535255 3.484586 8.665839 C 4.524046 7.668398 5.874213 6.854528 7.551922 6.210156 C 9.22825 5.581239 11.528756 5.288556 14.42668 5.282979 C 15.984511 5.282141 17.34307 5.419253 18.547337 5.713914 C 19.702478 6.035337 20.738381 6.470712 21.642359 6.987752 C 22.544954 7.520245 23.331078 8.135785 23.971204 8.816151 C 24.577657 9.52466 25.101311 10.288073 25.526711 11.105006 C 26.205644 12.396369 26.647239 13.72881 26.865567 15.119166 C 27.068441 16.50814 27.172815 17.779259 27.163236 18.931141 C 27.135684 20.283924 27.001338 21.611575 26.777033 22.900024 L 17.243221 22.903916 L 17.234288 18.650444 C 17.240856 17.358094 17.096143 16.363763 16.801533 15.651995 C 16.476014 14.937462 15.745041 14.576098 14.622684 14.584737 C 14.358586 14.576689 14.091722 14.599548 13.792568 14.635097 C 13.507486 14.687482 13.17466 14.751173 12.82638 14.813482 C 12.028801 15.022529 11.453353 15.360489 11.130944 15.830129 C 10.774863 16.327912 10.56779 16.901335 10.506961 17.581305 C 10.415225 18.258511 10.39661 18.988991 10.467954 19.758674 C 10.521079 20.557882 10.560133 21.340253 10.556972 22.072115 C 10.5626 23.054005 10.838992 23.795298 11.384765 24.311448 C 11.895483 24.871195 12.619298 25.138455 13.553443 25.144133 C 14.302142 25.133223 15.004479 25.118164 15.692745 25.08627 C 16.331884 25.081135 16.986477 25.077384 17.624233 25.087703 C 19.073887 25.077188 20.407068 25.149719 21.594252 25.287077 C 22.780054 25.439889 23.825635 25.767088 24.70147 26.250454 C 25.57454 26.764729 26.254115 27.526512 26.726124 28.518968 C 27.181297 29.525495 27.401007 30.900397 27.402092 32.629603 C 27.405448 33.985151 27.162678 35.13175 26.673781 36.0694 C 26.152594 37.01974 25.492076 37.786262 24.689461 38.399874 C 23.85179 39.057083 22.919768 39.550076 21.875173 39.908378 C 20.847416 40.252608 19.811116 40.518187 18.784495 40.675589 C 17.725582 40.845679 16.70449 40.941265 15.736672 40.963729 C 14.733799 41.02979 13.889612 41.063314 13.219565 41.065683 C 11.569011 41.058226 10.148636 40.915585 8.959823 40.622306 C 7.723266 40.340333 6.681832 39.966772 5.818686 39.515696 C 4.940086 39.063237 4.22432 38.531879 3.671388 37.921623 C 3.100236 37.340892 2.655481 36.740313 2.321668 36.118504 C 1.516092 34.675614 1.165345 33.024171 1.251207 31.193701 L 11.089554 31.964775 C 11.086394 32.696637 11.119671 33.369449 11.176697 33.95092 C 11.218268 34.531008 11.331333 35.00845 11.529962 35.40008 C 11.710372 35.821235 12.010019 36.128437 12.397996 36.31892 C 12.752299 36.537546 13.255365 36.660437 13.894504 36.655303 Z M 14.004064 36.649526 " stroke="#ffbcd9" stroke-width="12.71151" stroke-opacity="1" stroke-miterlimit="4"/></g><g clip-path="url(#e15468d701)"><path stroke-linecap="butt" transform="matrix(0.251706, -0.00533619, 0.00533619, 0.251706, 23.734944, 3.708916)" fill="none" stroke-linejoin="miter" d="M 0.975243 18.310185 L 0.975337 6.59328 L 26.095637 6.101573 L 26.250664 17.821766 L 19.263966 17.96851 L 19.417801 39.993349 L 8.569903 39.996159 L 8.799924 18.165687 Z M 0.975243 18.310185 " stroke="#ffbcd9" stroke-width="12.71151" stroke-opacity="1" stroke-miterlimit="4"/></g><g fill="#ff3131" fill-opacity="1"><g transform="translate(5.084003, 16.724476)"><g><path d="M 0.28125 -0.0625 L -1.453125 -8.28125 L 0.875 -8.9375 L 3.078125 -4.859375 L 2.140625 -9.078125 L 4.53125 -9.75 L 6.125 -1.359375 L 4 -0.890625 L 1.890625 -4.359375 L 2.71875 -0.609375 Z M 0.28125 -0.0625 "/></g></g></g><g fill="#ff3131" fill-opacity="1"><g transform="translate(11.468291, 15.306827)"><g><path d="M 0.25 -0.03125 L -1.046875 -8.34375 L 4.53125 -9.34375 L 4.90625 -6.96875 L 1.5 -6.3125 L 1.65625 -5.28125 L 4.34375 -5.953125 L 4.6875 -3.734375 L 1.96875 -3.1875 L 2.125 -2.140625 L 5.53125 -2.890625 L 5.84375 -0.90625 Z M 0.25 -0.03125 "/></g></g></g><g fill="#ff3131" fill-opacity="1"><g transform="translate(17.2627, 14.380879)"><g><path d="M 3.421875 -1.15625 C 3.609375 -1.175781 3.765625 -1.203125 3.890625 -1.234375 C 4.015625 -1.265625 4.113281 -1.347656 4.1875 -1.484375 C 4.25 -1.597656 4.285156 -1.773438 4.296875 -2.015625 C 4.304688 -2.242188 4.273438 -2.5625 4.203125 -2.96875 L 3.125 -2.875 C 2.863281 -2.851562 2.632812 -2.835938 2.4375 -2.828125 C 2.25 -2.816406 2.070312 -2.8125 1.90625 -2.8125 C 1.75 -2.820312 1.59375 -2.84375 1.4375 -2.875 C 1.289062 -2.882812 1.140625 -2.914062 0.984375 -2.96875 C 0.566406 -3.082031 0.257812 -3.304688 0.0625 -3.640625 C -0.132812 -3.972656 -0.257812 -4.46875 -0.3125 -5.125 C -0.320312 -5.269531 -0.34375 -5.457031 -0.375 -5.6875 C -0.40625 -5.90625 -0.414062 -6.140625 -0.40625 -6.390625 C -0.394531 -6.640625 -0.347656 -6.898438 -0.265625 -7.171875 C -0.179688 -7.441406 -0.0351562 -7.695312 0.171875 -7.9375 C 0.410156 -8.207031 0.738281 -8.441406 1.15625 -8.640625 C 1.539062 -8.828125 2.097656 -8.957031 2.828125 -9.03125 C 3.222656 -9.0625 3.578125 -9.054688 3.890625 -9.015625 C 4.191406 -8.953125 4.460938 -8.867188 4.703125 -8.765625 C 4.929688 -8.648438 5.128906 -8.507812 5.296875 -8.34375 C 5.472656 -8.1875 5.617188 -8.015625 5.734375 -7.828125 C 5.929688 -7.503906 6.078125 -7.175781 6.171875 -6.84375 C 6.253906 -6.5 6.3125 -6.179688 6.34375 -5.890625 C 6.363281 -5.554688 6.351562 -5.21875 6.3125 -4.875 L 3.9375 -4.671875 L 3.84375 -5.75 C 3.820312 -6.070312 3.765625 -6.3125 3.671875 -6.46875 C 3.578125 -6.632812 3.390625 -6.707031 3.109375 -6.6875 C 3.035156 -6.675781 2.960938 -6.671875 2.890625 -6.671875 C 2.816406 -6.640625 2.738281 -6.613281 2.65625 -6.59375 C 2.445312 -6.53125 2.304688 -6.429688 2.234375 -6.296875 C 2.160156 -6.171875 2.125 -6.023438 2.125 -5.859375 C 2.113281 -5.691406 2.125 -5.507812 2.15625 -5.3125 C 2.195312 -5.113281 2.222656 -4.921875 2.234375 -4.734375 C 2.253906 -4.484375 2.335938 -4.300781 2.484375 -4.1875 C 2.640625 -4.050781 2.832031 -3.992188 3.0625 -4.015625 C 3.25 -4.035156 3.429688 -4.0625 3.609375 -4.09375 C 3.765625 -4.101562 3.925781 -4.113281 4.09375 -4.125 C 4.457031 -4.15625 4.789062 -4.171875 5.09375 -4.171875 C 5.382812 -4.160156 5.644531 -4.101562 5.875 -4 C 6.101562 -3.882812 6.296875 -3.707031 6.453125 -3.46875 C 6.578125 -3.226562 6.65625 -2.894531 6.6875 -2.46875 C 6.71875 -2.125 6.6875 -1.828125 6.59375 -1.578125 C 6.476562 -1.335938 6.332031 -1.128906 6.15625 -0.953125 C 5.957031 -0.773438 5.738281 -0.628906 5.5 -0.515625 C 5.25 -0.398438 4.992188 -0.3125 4.734375 -0.25 C 4.460938 -0.1875 4.203125 -0.140625 3.953125 -0.109375 C 3.710938 -0.0664062 3.507812 -0.0390625 3.34375 -0.03125 C 2.925781 0.0078125 2.5625 0.00390625 2.25 -0.046875 C 1.945312 -0.0859375 1.679688 -0.15625 1.453125 -0.25 C 1.222656 -0.351562 1.03125 -0.472656 0.875 -0.609375 C 0.71875 -0.742188 0.585938 -0.878906 0.484375 -1.015625 C 0.253906 -1.367188 0.128906 -1.773438 0.109375 -2.234375 L 2.609375 -2.25 C 2.617188 -2.082031 2.632812 -1.921875 2.65625 -1.765625 C 2.6875 -1.617188 2.726562 -1.503906 2.78125 -1.421875 C 2.832031 -1.316406 2.914062 -1.242188 3.03125 -1.203125 C 3.113281 -1.160156 3.238281 -1.144531 3.40625 -1.15625 Z M 3.421875 -1.15625 "/></g></g></g><g fill="#ff3131" fill-opacity="1"><g transform="translate(23.948391, 13.777166)"><g><path d="M 0.140625 -5.453125 L 0.078125 -8.40625 L 6.375 -8.671875 L 6.484375 -5.71875 L 4.71875 -5.65625 L 4.890625 -0.109375 L 2.15625 -0.046875 L 2.109375 -5.546875 Z M 0.140625 -5.453125 "/></g></g></g><g clip-path="url(#9e25c23c47)"><path fill="#ffde59" d="M 7.488281 19.140625 C 7.472656 19.078125 7.414062 19.039062 7.351562 19.054688 C 7.3125 19.066406 7.277344 19.097656 7.269531 19.140625 C 7.070312 19.886719 6.578125 21.261719 5.496094 22.105469 C 4.742188 22.691406 3.863281 23.09375 2.929688 23.285156 C 2.867188 23.296875 2.828125 23.355469 2.839844 23.417969 C 2.851562 23.460938 2.882812 23.492188 2.921875 23.503906 C 3.679688 23.714844 5 24.179688 5.667969 24.964844 C 6.195312 25.589844 6.664062 27.144531 6.871094 27.90625 C 6.890625 27.96875 6.953125 28.003906 7.011719 27.984375 C 7.046875 27.976562 7.078125 27.945312 7.089844 27.90625 C 7.300781 27.132812 7.847656 25.53125 8.871094 24.851562 C 9.785156 24.242188 10.800781 23.9375 11.375 23.800781 C 11.4375 23.785156 11.472656 23.722656 11.457031 23.660156 C 11.449219 23.625 11.417969 23.59375 11.382812 23.582031 C 10.6875 23.378906 9.398438 22.914062 8.871094 22.222656 C 8.050781 21.144531 7.65625 19.847656 7.488281 19.140625 Z M 13.238281 25.53125 C 13.230469 25.492188 13.191406 25.46875 13.15625 25.480469 C 13.128906 25.484375 13.109375 25.503906 13.105469 25.53125 C 12.984375 25.988281 12.683594 26.828125 12.019531 27.34375 C 11.558594 27.699219 11.019531 27.945312 10.449219 28.058594 C 10.410156 28.066406 10.386719 28.105469 10.398438 28.140625 C 10.402344 28.164062 10.421875 28.1875 10.445312 28.195312 C 10.910156 28.324219 11.71875 28.605469 12.125 29.085938 C 12.449219 29.464844 12.734375 30.421875 12.863281 30.886719 C 12.871094 30.925781 12.910156 30.945312 12.945312 30.9375 C 12.972656 30.929688 12.988281 30.910156 12.996094 30.886719 C 13.125 30.414062 13.460938 29.433594 14.085938 29.019531 C 14.644531 28.644531 15.265625 28.457031 15.617188 28.375 C 15.652344 28.363281 15.675781 28.328125 15.667969 28.289062 C 15.660156 28.265625 15.640625 28.246094 15.621094 28.242188 C 15.195312 28.113281 14.40625 27.832031 14.085938 27.40625 C 13.582031 26.757812 13.339844 25.964844 13.238281 25.53125 Z M 15.511719 20.332031 C 15.503906 20.304688 15.480469 20.289062 15.457031 20.296875 C 15.441406 20.300781 15.425781 20.3125 15.421875 20.332031 C 15.339844 20.636719 15.140625 21.191406 14.699219 21.535156 C 14.394531 21.769531 14.039062 21.933594 13.65625 22.011719 C 13.632812 22.019531 13.617188 22.039062 13.621094 22.066406 C 13.625 22.085938 13.636719 22.097656 13.65625 22.101562 C 13.960938 22.1875 14.496094 22.375 14.769531 22.695312 C 14.984375 22.945312 15.175781 23.578125 15.257812 23.886719 C 15.265625 23.914062 15.289062 23.925781 15.316406 23.917969 C 15.332031 23.914062 15.34375 23.902344 15.347656 23.886719 C 15.433594 23.574219 15.652344 22.921875 16.070312 22.648438 C 16.441406 22.398438 16.855469 22.277344 17.089844 22.222656 C 17.117188 22.214844 17.132812 22.191406 17.125 22.164062 C 17.121094 22.148438 17.109375 22.136719 17.09375 22.132812 C 16.8125 22.046875 16.289062 21.859375 16.074219 21.578125 C 15.742188 21.144531 15.578125 20.621094 15.511719 20.332031 Z M 15.511719 20.332031 " fill-opacity="1" fill-rule="nonzero"/></g></svg>