<svg width="36" height="35" viewBox="0 0 36 35" fill="none" xmlns="http://www.w3.org/2000/svg">
<path d="M27.7266 9.87695L27.7297 9.89224L27.7332 9.90743C27.8435 10.3856 27.8971 10.92 27.8971 11.5492V19.0596C27.8971 21.1148 27.315 22.4183 26.4521 23.2195C25.5758 24.0332 24.2522 24.4763 22.4805 24.4763H9.66178C9.06305 24.4763 8.51156 24.4229 8.01463 24.3111L7.98405 24.3042L7.95311 24.2992C7.66901 24.2538 7.3835 24.1722 7.10543 24.0713C6.19975 23.7323 5.50909 23.1886 5.0331 22.4173C4.5496 21.6338 4.24512 20.5453 4.24512 19.0596V11.5492C4.24512 9.494 4.8273 8.19054 5.69015 7.38932C6.56642 6.57564 7.89008 6.13257 9.66178 6.13257H22.4659C23.968 6.13257 25.1522 6.45211 26.0081 7.04354C26.8422 7.61994 27.4572 8.5175 27.7266 9.87695ZM7.7222 19.5929C8.8724 19.5929 9.81595 18.6494 9.81595 17.4992V13.1242C9.81595 11.974 8.8724 11.0305 7.7222 11.0305C6.572 11.0305 5.62845 11.974 5.62845 13.1242V17.4992C5.62845 18.6494 6.572 19.5929 7.7222 19.5929ZM11.2139 15.3117C11.2139 17.9931 13.3824 20.1617 16.0638 20.1617C18.7453 20.1617 20.9138 17.9931 20.9138 15.3117C20.9138 12.6303 18.7453 10.4617 16.0638 10.4617C13.3824 10.4617 11.2139 12.6303 11.2139 15.3117ZM24.3909 19.5929C25.5411 19.5929 26.4846 18.6494 26.4846 17.4992V13.1242C26.4846 11.974 25.5411 11.0305 24.3909 11.0305C23.2407 11.0305 22.2971 11.974 22.2971 13.1242V17.4992C22.2971 18.6494 23.2407 19.5929 24.3909 19.5929Z" fill="#013CBC" stroke="#013CBC" stroke-width="2"/>
<path d="M32.0713 19.0725V14.0386C32.2015 14.5823 32.2734 15.2065 32.2734 15.9225V23.4329C32.2734 25.4882 31.6912 26.7958 30.8259 27.6008C29.9475 28.4179 28.6202 28.8642 26.8421 28.8642H14.038C13.3486 28.8642 12.7284 28.7942 12.1764 28.6621H22.4671C25.3632 28.6621 27.7928 27.7973 29.4993 26.0928C31.206 24.3882 32.0713 21.9621 32.0713 19.0725Z" fill="#013CBC" stroke="#013CBC" stroke-width="2"/>
</svg>
