<svg width="55" height="55" viewBox="0 0 56 55" fill="none" xmlns="http://www.w3.org/2000/svg">
<path d="M37.8099 13.3771L37.8129 13.3924L37.8164 13.4075C37.9268 13.8857 37.9804 14.4201 37.9804 15.0494V22.5597C37.9804 24.615 37.3982 25.9184 36.5354 26.7196C35.6591 27.5333 34.3354 27.9764 32.5637 27.9764H19.745C19.1463 27.9764 18.5948 27.923 18.0979 27.8112L18.0673 27.8043L18.0364 27.7994C17.7523 27.7539 17.4668 27.6723 17.1887 27.5714C16.283 27.2324 15.5923 26.6887 15.1164 25.9174C14.6329 25.1339 14.3284 24.0455 14.3284 22.5597V15.0494C14.3284 12.9941 14.9105 11.6907 15.7734 10.8894C16.6497 10.0758 17.9733 9.63269 19.745 9.63269H32.5491C34.0512 9.63269 35.2354 9.95224 36.0913 10.5437C36.9255 11.1201 37.5405 12.0176 37.8099 13.3771ZM17.8055 23.0931C18.9557 23.0931 19.8992 22.1495 19.8992 20.9993V16.6244C19.8992 15.4742 18.9557 14.5306 17.8055 14.5306C16.6553 14.5306 15.7117 15.4742 15.7117 16.6244V20.9993C15.7117 22.1495 16.6553 23.0931 17.8055 23.0931ZM21.2971 18.8118C21.2971 21.4933 23.4657 23.6618 26.1471 23.6618C28.8285 23.6618 30.9971 21.4933 30.9971 18.8118C30.9971 16.1304 28.8285 13.9619 26.1471 13.9619C23.4657 13.9619 21.2971 16.1304 21.2971 18.8118ZM34.4741 23.0931C35.6243 23.0931 36.5679 22.1495 36.5679 20.9993V16.6244C36.5679 15.4742 35.6243 14.5306 34.4741 14.5306C33.3239 14.5306 32.3804 15.4742 32.3804 16.6244V20.9993C32.3804 22.1495 33.3239 23.0931 34.4741 23.0931Z" fill="#791CAC" stroke="#791CAC" stroke-width="2"/>
<path d="M42.1546 22.5725V17.5386C42.2848 18.0823 42.3566 18.7065 42.3566 19.4225V26.9329C42.3566 28.9882 41.7744 30.2958 40.9091 31.1008C40.0307 31.9179 38.7035 32.3642 36.9254 32.3642H24.1213C23.4318 32.3642 22.8116 32.2942 22.2596 32.1621H32.5504C35.4465 32.1621 37.876 31.2973 39.5826 29.5928C41.2893 27.8882 42.1546 25.4621 42.1546 22.5725Z" fill="#791CAC" stroke="#791CAC" stroke-width="2"/>
<circle cx="28.3333" cy="49" r="2.5" fill="#791CAC"/>
</svg>
