<svg width="56" height="55" viewBox="0 0 56 55" fill="none" xmlns="http://www.w3.org/2000/svg">
<path d="M37.7266 19.8769L37.7297 19.8922L37.7332 19.9074C37.8435 20.3856 37.8971 20.92 37.8971 21.5492V29.0596C37.8971 31.1148 37.315 32.4183 36.4521 33.2195C35.5758 34.0332 34.2522 34.4763 32.4805 34.4763H19.6618C19.0631 34.4763 18.5116 34.4229 18.0146 34.3111L17.9841 34.3042L17.9531 34.2992C17.669 34.2538 17.3835 34.1722 17.1054 34.0713C16.1997 33.7323 15.5091 33.1886 15.0331 32.4173C14.5496 31.6338 14.2451 30.5453 14.2451 29.0596V21.5492C14.2451 19.494 14.8273 18.1905 15.6902 17.3893C16.5664 16.5756 17.8901 16.1326 19.6618 16.1326H32.4659C33.968 16.1326 35.1522 16.4521 36.0081 17.0435C36.8422 17.6199 37.4572 18.5175 37.7266 19.8769ZM17.7222 29.5929C18.8724 29.5929 19.816 28.6494 19.816 27.4992V23.1242C19.816 21.974 18.8724 21.0305 17.7222 21.0305C16.572 21.0305 15.6285 21.974 15.6285 23.1242V27.4992C15.6285 28.6494 16.572 29.5929 17.7222 29.5929ZM21.2139 25.3117C21.2139 27.9931 23.3824 30.1617 26.0638 30.1617C28.7453 30.1617 30.9138 27.9931 30.9138 25.3117C30.9138 22.6303 28.7453 20.4617 26.0638 20.4617C23.3824 20.4617 21.2139 22.6303 21.2139 25.3117ZM34.3909 29.5929C35.5411 29.5929 36.4846 28.6494 36.4846 27.4992V23.1242C36.4846 21.974 35.5411 21.0305 34.3909 21.0305C33.2407 21.0305 32.2971 21.974 32.2971 23.1242V27.4992C32.2971 28.6494 33.2407 29.5929 34.3909 29.5929Z" fill="#791CAC" stroke="#791CAC" stroke-width="2"/>
<path d="M42.0713 29.0725V24.0386C42.2015 24.5823 42.2734 25.2065 42.2734 25.9225V33.4329C42.2734 35.4882 41.6912 36.7958 40.8259 37.6008C39.9475 38.4179 38.6202 38.8642 36.8421 38.8642H24.038C23.3486 38.8642 22.7284 38.7942 22.1764 38.6621H32.4671C35.3632 38.6621 37.7928 37.7973 39.4993 36.0928C41.206 34.3882 42.0713 31.9621 42.0713 29.0725Z" fill="#791CAC" stroke="#791CAC" stroke-width="2"/>
</svg>
