<svg width="55" height="55" viewBox="0 0 56 55" fill="none" xmlns="http://www.w3.org/2000/svg">
<path d="M15.1462 34.4945L15.1508 34.491L15.1508 34.4911L17.6438 32.625L15.1462 34.4945ZM15.1462 34.4945C14.848 34.7204 14.4167 34.5163 14.4167 34.125V13.7083V12.25C14.4167 10.769 14.7542 9.58358 15.4496 8.77828C16.1213 8.0004 17.2672 7.41663 19.25 7.41663H20.7084H33.3366C33.0164 7.98384 32.8334 8.63797 32.8334 9.33329V34.125C32.8334 34.4913 32.4057 34.7171 32.0974 34.4896C32.097 34.4893 32.0965 34.489 32.0961 34.4887L29.6101 32.6278M15.1462 34.4945L29.6101 32.6278M29.6101 32.6278C28.6367 31.8837 27.261 31.9914 26.4033 32.8491L23.9533 35.2991C23.7754 35.4771 23.4759 35.4773 23.2975 35.2999C23.2973 35.2996 23.297 35.2994 23.2967 35.2991L20.878 32.8658L20.8759 32.8637C20.0034 31.9912 18.6307 31.8853 17.6445 32.6244L29.6101 32.6278ZM16.7479 22.4729C16.7479 23.8272 17.8519 24.9312 19.2063 24.9312C20.3737 24.9312 21.355 24.111 21.6037 23.0173C21.8453 23.9064 22.6629 24.5666 23.625 24.5666H28C29.1502 24.5666 30.0938 23.6231 30.0938 22.4729C30.0938 21.3227 29.1502 20.3791 28 20.3791H23.625C22.6629 20.3791 21.8453 21.0394 21.6037 21.9285C21.355 20.8347 20.3737 20.0145 19.2063 20.0145C17.8519 20.0145 16.7479 21.1185 16.7479 22.4729ZM16.7479 16.6395C16.7479 17.9939 17.8519 19.0979 19.2063 19.0979C20.3737 19.0979 21.355 18.2777 21.6037 17.1839C21.8453 18.0731 22.6629 18.7333 23.625 18.7333H28C29.1502 18.7333 30.0938 17.7897 30.0938 16.6395C30.0938 15.4893 29.1502 14.5458 28 14.5458H23.625C22.6629 14.5458 21.8453 15.206 21.6037 16.0952C21.355 15.0014 20.3737 14.1812 19.2063 14.1812C17.8519 14.1812 16.7479 15.2852 16.7479 16.6395Z" fill="#791CAC" stroke="#791CAC" stroke-width="2"/>
<path d="M40.031 8.95435L40.0236 8.94674L40.0159 8.93929C39.1655 8.10734 37.9985 7.60413 36.7646 7.60413C35.8039 7.60413 35.0208 8.38726 35.0208 9.34788V17.3541V18.3541H36.0208H38.8208C39.4969 18.3541 40.2048 18.2029 40.7281 17.6759C41.25 17.1503 41.3958 16.4444 41.3958 15.7791V12.25C41.3958 11.0176 40.9082 9.84986 40.031 8.95435ZM34.8333 9.34788C34.8333 8.28284 35.6958 7.41894 36.7603 7.41663C38.0918 7.42998 39.2856 7.96015 40.1699 8.83C41.0437 9.71834 41.5833 10.9266 41.5833 12.25V15.7791C41.5833 16.7171 41.2908 17.3856 40.859 17.8173C40.4273 18.2491 39.7588 18.5416 38.8208 18.5416H34.8333V9.34788Z" fill="#791CAC" stroke="#791CAC" stroke-width="2"/>
<circle cx="28" cy="49" r="2.5" fill="#791CAC"/>
</svg>
