<svg width="36" height="35" viewBox="0 0 36 35" fill="none" xmlns="http://www.w3.org/2000/svg">
<path d="M5.14616 30.9947L5.15076 30.9912L5.15077 30.9912L7.64377 29.1251L5.14616 30.9947ZM5.14616 30.9947C4.84804 31.2205 4.41669 31.0165 4.41669 30.6251V10.2084V8.75008C4.41669 7.26911 4.75416 6.0837 5.44958 5.27841C6.12133 4.50053 7.26724 3.91675 9.25002 3.91675H10.7084H23.3366C23.0164 4.48396 22.8334 5.13809 22.8334 5.83341V30.6251C22.8334 30.9914 22.4057 31.2172 22.0974 30.9898C22.097 30.9895 22.0965 30.9891 22.0961 30.9888L19.6101 29.128M5.14616 30.9947L19.6101 29.128M19.6101 29.128C18.6367 28.3838 17.261 28.4916 16.4033 29.3492L13.9533 31.7992C13.7754 31.9772 13.4759 31.9774 13.2975 31.8C13.2973 31.7998 13.297 31.7995 13.2967 31.7992L10.878 29.3659L10.8759 29.3638C10.0034 28.4914 8.63069 28.3855 7.64452 29.1245L19.6101 29.128ZM6.74794 18.973C6.74794 20.3274 7.8519 21.4313 9.20627 21.4313C10.3737 21.4313 11.355 20.6112 11.6037 19.5174C11.8453 20.4065 12.6629 21.0667 13.625 21.0667H18C19.1502 21.0667 20.0938 20.1232 20.0938 18.973C20.0938 17.8228 19.1502 16.8792 18 16.8792H13.625C12.6629 16.8792 11.8453 17.5395 11.6037 18.4286C11.355 17.3348 10.3737 16.5147 9.20627 16.5147C7.8519 16.5147 6.74794 17.6186 6.74794 18.973ZM6.74794 13.1397C6.74794 14.494 7.8519 15.598 9.20627 15.598C10.3737 15.598 11.355 14.7778 11.6037 13.6841C11.8453 14.5732 12.6629 15.2334 13.625 15.2334H18C19.1502 15.2334 20.0938 14.2899 20.0938 13.1397C20.0938 11.9895 19.1502 11.0459 18 11.0459H13.625C12.6629 11.0459 11.8453 11.7061 11.6037 12.5953C11.355 11.5015 10.3737 10.6813 9.20627 10.6813C7.8519 10.6813 6.74794 11.7853 6.74794 13.1397Z" fill="#013CBC" stroke="#013CBC" stroke-width="2"/>
<path d="M30.031 5.45447L30.0236 5.44686L30.0159 5.43941C29.1655 4.60746 27.9985 4.10425 26.7646 4.10425C25.8039 4.10425 25.0208 4.88738 25.0208 5.848V13.8542V14.8542H26.0208H28.8208C29.4969 14.8542 30.2048 14.703 30.7281 14.176C31.25 13.6504 31.3958 12.9445 31.3958 12.2792V8.75008C31.3958 7.51768 30.9082 6.34998 30.031 5.45447ZM24.8333 5.848C24.8333 4.78296 25.6958 3.91906 26.7603 3.91675C28.0918 3.9301 29.2856 4.46027 30.1699 5.33013C31.0437 6.21847 31.5833 7.42669 31.5833 8.75008V12.2792C31.5833 13.2172 31.2908 13.8857 30.859 14.3175C30.4273 14.7492 29.7588 15.0417 28.8208 15.0417H24.8333V5.848Z" fill="#013CBC" stroke="#013CBC" stroke-width="2"/>
</svg>
