<svg width="56" height="55" viewBox="0 0 56 55" fill="none" xmlns="http://www.w3.org/2000/svg">
<path d="M15.1462 40.9947L15.1508 40.9912L15.1508 40.9912L17.6438 39.1251L15.1462 40.9947ZM15.1462 40.9947C14.848 41.2205 14.4167 41.0165 14.4167 40.6251V20.2084V18.7501C14.4167 17.2691 14.7542 16.0837 15.4496 15.2784C16.1213 14.5005 17.2672 13.9167 19.25 13.9167H20.7084H33.3366C33.0164 14.484 32.8334 15.1381 32.8334 15.8334V40.6251C32.8334 40.9914 32.4057 41.2172 32.0974 40.9898C32.097 40.9895 32.0965 40.9891 32.0961 40.9888L29.6101 39.128M15.1462 40.9947L29.6101 39.128M29.6101 39.128C28.6367 38.3838 27.261 38.4916 26.4033 39.3492L23.9533 41.7992C23.7754 41.9772 23.4759 41.9774 23.2975 41.8C23.2973 41.7998 23.297 41.7995 23.2967 41.7992L20.878 39.3659L20.8759 39.3638C20.0034 38.4914 18.6307 38.3855 17.6445 39.1245L29.6101 39.128ZM16.7479 28.973C16.7479 30.3274 17.8519 31.4313 19.2063 31.4313C20.3737 31.4313 21.355 30.6112 21.6037 29.5174C21.8453 30.4065 22.6629 31.0667 23.625 31.0667H28C29.1502 31.0667 30.0938 30.1232 30.0938 28.973C30.0938 27.8228 29.1502 26.8792 28 26.8792H23.625C22.6629 26.8792 21.8453 27.5395 21.6037 28.4286C21.355 27.3348 20.3737 26.5147 19.2063 26.5147C17.8519 26.5147 16.7479 27.6186 16.7479 28.973ZM16.7479 23.1397C16.7479 24.494 17.8519 25.598 19.2063 25.598C20.3737 25.598 21.355 24.7778 21.6037 23.6841C21.8453 24.5732 22.6629 25.2334 23.625 25.2334H28C29.1502 25.2334 30.0938 24.2899 30.0938 23.1397C30.0938 21.9895 29.1502 21.0459 28 21.0459H23.625C22.6629 21.0459 21.8453 21.7061 21.6037 22.5953C21.355 21.5015 20.3737 20.6813 19.2063 20.6813C17.8519 20.6813 16.7479 21.7853 16.7479 23.1397Z" fill="#791CAC" stroke="#791CAC" stroke-width="2"/>
<path d="M40.031 15.4545L40.0236 15.4469L40.0159 15.4394C39.1655 14.6075 37.9985 14.1042 36.7646 14.1042C35.8039 14.1042 35.0208 14.8874 35.0208 15.848V23.8542V24.8542H36.0208H38.8208C39.4969 24.8542 40.2048 24.703 40.7281 24.176C41.25 23.6504 41.3958 22.9445 41.3958 22.2792V18.7501C41.3958 17.5177 40.9082 16.35 40.031 15.4545ZM34.8333 15.848C34.8333 14.783 35.6958 13.9191 36.7603 13.9168C38.0918 13.9301 39.2856 14.4603 40.1699 15.3301C41.0437 16.2185 41.5833 17.4267 41.5833 18.7501V22.2792C41.5833 23.2172 41.2908 23.8857 40.859 24.3175C40.4273 24.7492 39.7588 25.0417 38.8208 25.0417H34.8333V15.848Z" fill="#791CAC" stroke="#791CAC" stroke-width="2"/>
</svg>
