<svg width="56" height="55" viewBox="0 0 56 55" fill="none" xmlns="http://www.w3.org/2000/svg">
<path d="M42.3333 41.0833H13.1666C13.149 41.0833 13.1255 41.0764 13.1026 41.0535C13.0797 41.0306 13.0729 41.0071 13.0729 40.9895C13.0729 40.9719 13.0797 40.9484 13.1026 40.9255C13.1255 40.9026 13.149 40.8958 13.1666 40.8958H42.3333C42.3509 40.8958 42.3744 40.9026 42.3973 40.9255C42.4202 40.9484 42.427 40.9719 42.427 40.9895C42.427 41.0071 42.4202 41.0306 42.3973 41.0535C42.3744 41.0764 42.3509 41.0833 42.3333 41.0833Z" fill="#791CAC" stroke="#791CAC" stroke-width="2"/>
<path d="M30.0312 41.0834H25.4688V15.8334C25.4688 15.1427 25.614 14.6689 25.8331 14.3865C26.0165 14.1501 26.3519 13.9167 27.0938 13.9167H28.4062C29.1481 13.9167 29.4835 14.1501 29.6669 14.3865C29.886 14.6689 30.0312 15.1427 30.0312 15.8334V41.0834Z" fill="#791CAC" stroke="#791CAC" stroke-width="2"/>
<path d="M14.625 24.5834V42.0834H20.4583V24.5834C20.4583 22.9792 19.875 21.6667 18.125 21.6667H16.9583C15.2083 21.6667 14.625 22.9792 14.625 24.5834Z" fill="#791CAC"/>
<path d="M35.0416 31.8749V42.0833H40.875V31.8749C40.875 30.2708 40.2916 28.9583 38.5416 28.9583H37.375C35.625 28.9583 35.0416 30.2708 35.0416 31.8749Z" fill="#791CAC"/>
</svg>
