<svg width="36" height="35" viewBox="0 0 36 35" fill="none" xmlns="http://www.w3.org/2000/svg">
<path d="M32.3333 31.0833H3.16663C3.14904 31.0833 3.12554 31.0764 3.10264 31.0535C3.07974 31.0306 3.07288 31.0071 3.07288 30.9895C3.07288 30.9719 3.07974 30.9484 3.10264 30.9255C3.12554 30.9026 3.14904 30.8958 3.16663 30.8958H32.3333C32.3509 30.8958 32.3744 30.9026 32.3973 30.9255C32.4202 30.9484 32.427 30.9719 32.427 30.9895C32.427 31.0071 32.4202 31.0306 32.3973 31.0535C32.3744 31.0764 32.3509 31.0833 32.3333 31.0833Z" fill="#013CBC" stroke="#013CBC" stroke-width="2"/>
<path d="M20.0312 31.0834H15.4688V5.83341C15.4688 5.14269 15.614 4.66885 15.8331 4.38652C16.0165 4.1501 16.3519 3.91675 17.0938 3.91675H18.4062C19.1481 3.91675 19.4835 4.1501 19.6669 4.38652C19.886 4.66885 20.0312 5.14269 20.0312 5.83341V31.0834Z" fill="#013CBC" stroke="#013CBC" stroke-width="2"/>
<path d="M4.625 14.5834V32.0834H10.4583V14.5834C10.4583 12.9792 9.875 11.6667 8.125 11.6667H6.95833C5.20833 11.6667 4.625 12.9792 4.625 14.5834Z" fill="#013CBC"/>
<path d="M25.0416 21.8749V32.0833H30.875V21.8749C30.875 20.2708 30.2916 18.9583 28.5416 18.9583H27.375C25.625 18.9583 25.0416 20.2708 25.0416 21.8749Z" fill="#013CBC"/>
</svg>
