<svg width="55" height="55" viewBox="0 0 56 55" fill="none" xmlns="http://www.w3.org/2000/svg">
<path d="M42.2499 34.5833H13.0833C13.0657 34.5833 13.0422 34.5764 13.0193 34.5535C12.9964 34.5306 12.9895 34.5071 12.9895 34.4895C12.9895 34.4719 12.9964 34.4484 13.0193 34.4255C13.0422 34.4026 13.0657 34.3958 13.0833 34.3958H42.2499C42.2675 34.3958 42.291 34.4026 42.3139 34.4255C42.3368 34.4484 42.3437 34.4719 42.3437 34.4895C42.3437 34.5071 42.3368 34.5306 42.3139 34.5535C42.291 34.5764 42.2675 34.5833 42.2499 34.5833Z" fill="#791CAC" stroke="#791CAC" stroke-width="2"/>
<path d="M29.9479 34.5833H25.3854V9.33329C25.3854 8.64257 25.5306 8.16873 25.7497 7.88639C25.9331 7.64998 26.2686 7.41663 27.0104 7.41663H28.3229C29.0647 7.41663 29.4001 7.64998 29.5836 7.88639C29.8026 8.16873 29.9479 8.64257 29.9479 9.33329V34.5833Z" fill="#791CAC" stroke="#791CAC" stroke-width="2"/>
<path d="M14.5416 18.0833V35.5833H20.375V18.0833C20.375 16.4791 19.7916 15.1666 18.0416 15.1666H16.875C15.125 15.1666 14.5416 16.4791 14.5416 18.0833Z" fill="#791CAC"/>
<path d="M34.9583 25.3749V35.5833H40.7916V25.3749C40.7916 23.7708 40.2083 22.4583 38.4583 22.4583H37.2916C35.5416 22.4583 34.9583 23.7708 34.9583 25.3749Z" fill="#791CAC"/>
<circle cx="27.6666" cy="49" r="2.5" fill="#791CAC"/>
</svg>
