<svg width="36" height="35" viewBox="0 0 36 35" fill="none" xmlns="http://www.w3.org/2000/svg">
<path d="M16.1715 30.1607L16.1699 30.1598L8.67463 25.8251C7.0806 24.7508 6.61709 24.3496 6.39993 23.9717C6.20698 23.6359 6.1272 23.1743 6.1272 21.4541V13.5354C6.1272 11.8142 6.20683 11.3546 6.395 11.0246C6.60523 10.6561 7.05213 10.2678 8.617 9.20786L16.1819 4.84573C16.1821 4.84565 16.1822 4.84556 16.1824 4.84547C16.629 4.5885 17.2833 4.42236 18.0074 4.42236C18.7312 4.42236 19.3853 4.58833 19.8318 4.84509C19.8322 4.8453 19.8326 4.84552 19.8329 4.84573L27.3256 9.17903C28.9227 10.2553 29.3851 10.6524 29.6019 11.0279C29.7929 11.3587 29.8731 11.8142 29.8731 13.5354V21.4687C29.8731 23.1899 29.7934 23.6495 29.6053 23.9794C29.395 24.348 28.9481 24.7363 27.3832 25.7962L19.8175 30.1588L19.8101 30.1631L19.8028 30.1674C19.3765 30.4197 18.725 30.5854 18.0001 30.5854C17.2789 30.5854 16.6204 30.4211 16.1715 30.1607ZM11.7605 17.502C11.7605 20.9409 14.5613 23.7416 18.0001 23.7416C21.439 23.7416 24.2397 20.9409 24.2397 17.502C24.2397 14.0632 21.439 11.2625 18.0001 11.2625C14.5613 11.2625 11.7605 14.0632 11.7605 17.502Z" fill="#013CBC" stroke="#013CBC" stroke-width="3"/>
</svg>
