<svg width="56" height="55" viewBox="0 0 56 55" fill="none" xmlns="http://www.w3.org/2000/svg">
<path d="M26.1715 40.1607L26.1699 40.1598L18.6746 35.8251C17.0806 34.7508 16.6171 34.3496 16.3999 33.9717C16.207 33.6359 16.1272 33.1743 16.1272 31.4541V23.5354C16.1272 21.8142 16.2068 21.3546 16.395 21.0246C16.6052 20.6561 17.0521 20.2678 18.617 19.2079L26.1819 14.8457C26.1821 14.8456 26.1822 14.8456 26.1824 14.8455C26.629 14.5885 27.2833 14.4224 28.0074 14.4224C28.7312 14.4224 29.3853 14.5883 29.8318 14.8451C29.8322 14.8453 29.8326 14.8455 29.8329 14.8457L37.3256 19.179C38.9227 20.2553 39.3851 20.6524 39.6019 21.0279C39.7929 21.3587 39.8731 21.8142 39.8731 23.5354V31.4687C39.8731 33.1899 39.7934 33.6495 39.6053 33.9794C39.395 34.348 38.9481 34.7363 37.3832 35.7962L29.8175 40.1588L29.8101 40.1631L29.8028 40.1674C29.3765 40.4197 28.725 40.5854 28.0001 40.5854C27.2789 40.5854 26.6204 40.4211 26.1715 40.1607ZM21.7605 27.502C21.7605 30.9409 24.5613 33.7416 28.0001 33.7416C31.439 33.7416 34.2397 30.9409 34.2397 27.502C34.2397 24.0632 31.439 21.2625 28.0001 21.2625C24.5613 21.2625 21.7605 24.0632 21.7605 27.502Z" fill="#791CAC" stroke="#791CAC" stroke-width="3"/>
</svg>
